<?xml version='1.0' encoding='UTF-8'?>
<svg xmlns="http://www.w3.org/2000/svg" xmlns:xlink="http://www.w3.org/1999/xlink" class="svgContent heatmap-0 rhtmlHeatmap" width="490" height="490">
  <g class="inner" style="position:relative">
    <g class="axis xaxis">
      <g class="xaxis-label tick-0">
        <path class="click-rect" transform="translate(75.885 21.5) matrix(1 0 -1 1 52.58 0)" fill="transparent" stroke="transparent" d="M0 0h41.262v52.58H0z"/>
        <text transform="translate(75.885 21.5) rotate(-45 73.785 1.386)" dy="0" style="text-anchor:start;font-family:Arial;font-size:10px;fill:#2c2c2c">Coca-Cola</text>
      </g>
      <g class="xaxis-label tick-1">
        <path class="click-rect" transform="translate(117.147 21.5) matrix(1 0 -1 1 52.58 0)" fill="transparent" stroke="transparent" d="M0 0h41.262v52.58H0z"/>
        <text transform="translate(117.147 21.5) rotate(-45 73.785 1.386)" dy="0" style="text-anchor:start;font-family:Arial;font-size:10px;fill:#2c2c2c">Diet Coke</text>
      </g>
      <g class="xaxis-label tick-2">
        <path class="click-rect" transform="translate(158.41 21.5) matrix(1 0 -1 1 52.58 0)" fill="transparent" stroke="transparent" d="M0 0h41.262v52.58H0z"/>
        <text transform="translate(158.41 21.5) rotate(-45 73.785 1.386)" dy="0" style="text-anchor:start;font-family:Arial;font-size:10px;fill:#2c2c2c">Coke Zero</text>
      </g>
      <g class="xaxis-label tick-3">
        <path class="click-rect" transform="translate(199.672 21.5) matrix(1 0 -1 1 52.58 0)" fill="transparent" stroke="transparent" d="M0 0h41.262v52.58H0z"/>
        <text transform="translate(199.672 21.5) rotate(-45 73.785 1.386)" dy="0" style="text-anchor:start;font-family:Arial;font-size:10px;fill:#2c2c2c">Pepsi </text>
      </g>
      <g class="xaxis-label tick-4">
        <path class="click-rect" transform="translate(240.935 21.5) matrix(1 0 -1 1 52.58 0)" fill="transparent" stroke="transparent" d="M0 0h41.262v52.58H0z"/>
        <text transform="translate(240.935 21.5) rotate(-45 73.785 1.386)" dy="0" style="text-anchor:start;font-family:Arial;font-size:10px;fill:#2c2c2c">Diet Pepsi</text>
      </g>
      <g class="xaxis-label tick-5">
        <path class="click-rect" transform="translate(282.197 21.5) matrix(1 0 -1 1 52.58 0)" fill="transparent" stroke="transparent" d="M0 0h41.262v52.58H0z"/>
        <text transform="translate(282.197 21.5) rotate(-45 73.785 1.386)" dy="0" style="text-anchor:start;font-family:Arial;font-size:10px;fill:#2c2c2c">Pepsi Max</text>
      </g>
      <g class="xaxis-label tick-6">
        <path class="click-rect" transform="translate(323.46 21.5) matrix(1 0 -1 1 52.58 0)" fill="transparent" stroke="transparent" d="M0 0h41.262v52.58H0z"/>
        <text transform="translate(323.46 21.5) rotate(-45 73.785 1.386)" dy="0" style="text-anchor:start;font-family:Arial;font-size:10px;fill:#2c2c2c">Dislike all cola</text>
      </g>
      <g class="xaxis-label tick-7">
        <path class="click-rect" transform="translate(364.722 21.5) matrix(1 0 -1 1 52.58 0)" fill="transparent" stroke="transparent" d="M0 0h41.262v52.58H0z"/>
        <text transform="translate(364.722 21.5) rotate(-45 73.785 1.386)" dy="0" style="text-anchor:start;font-family:Arial;font-size:10px;fill:#2c2c2c">Don't care</text>
      </g>
    </g>
    <text transform="translate(240.935 2)" dy="0" style="text-anchor:middle;font-weight:400;font-size:12px;fill:#2c2c2c;font-family:Arial" class="title">
      <tspan x="0" y="0" style="dominant-baseline:text-before-edge">Preferred cola</tspan>
    </text>
    <g class="axis yaxis">
      <g class="yaxis-label tick-0">
        <path class="click-rect" fill="transparent" stroke="transparent" d="M0 0h48.359v40.792H0z" transform="translate(21.525 80.08)"/>
        <text dy="0" transform="translate(21.525 80.08) translate(48.36 15.396)" style="font-family:Arial;font-size:10px;fill:#2c2c2c;text-anchor:end">
          <tspan x="0" y="5" style="dominant-baseline:central">18 to 24</tspan>
        </text>
      </g>
      <g class="yaxis-label tick-1">
        <path class="click-rect" fill="transparent" stroke="transparent" d="M0 0h48.359v40.792H0z" transform="translate(21.525 120.872)"/>
        <text dy="0" transform="translate(21.525 120.872) translate(48.36 15.396)" style="font-family:Arial;font-size:10px;fill:#2c2c2c;text-anchor:end">
          <tspan x="0" y="5" style="dominant-baseline:central">25 to 29</tspan>
        </text>
      </g>
      <g class="yaxis-label tick-2">
        <path class="click-rect" fill="transparent" stroke="transparent" d="M0 0h48.359v40.792H0z" transform="translate(21.525 161.664)"/>
        <text dy="0" transform="translate(21.525 161.664) translate(48.36 15.396)" style="font-family:Arial;font-size:10px;fill:#2c2c2c;text-anchor:end">
          <tspan x="0" y="5" style="dominant-baseline:central">30 to 34</tspan>
        </text>
      </g>
      <g class="yaxis-label tick-3">
        <path class="click-rect" fill="transparent" stroke="transparent" d="M0 0h48.359v40.792H0z" transform="translate(21.525 202.456)"/>
        <text dy="0" transform="translate(21.525 202.456) translate(48.36 15.396)" style="font-family:Arial;font-size:10px;fill:#2c2c2c;text-anchor:end">
          <tspan x="0" y="5" style="dominant-baseline:central">35 to 39</tspan>
        </text>
      </g>
      <g class="yaxis-label tick-4">
        <path class="click-rect" fill="transparent" stroke="transparent" d="M0 0h48.359v40.792H0z" transform="translate(21.525 243.248)"/>
        <text dy="0" transform="translate(21.525 243.248) translate(48.36 15.396)" style="font-family:Arial;font-size:10px;fill:#2c2c2c;text-anchor:end">
          <tspan x="0" y="5" style="dominant-baseline:central">40 to 44</tspan>
        </text>
      </g>
      <g class="yaxis-label tick-5">
        <path class="click-rect" fill="transparent" stroke="transparent" d="M0 0h48.359v40.792H0z" transform="translate(21.525 284.04)"/>
        <text dy="0" transform="translate(21.525 284.04) translate(48.36 15.396)" style="font-family:Arial;font-size:10px;fill:#2c2c2c;text-anchor:end">
          <tspan x="0" y="5" style="dominant-baseline:central">45 to 49</tspan>
        </text>
      </g>
      <g class="yaxis-label tick-6">
        <path class="click-rect" fill="transparent" stroke="transparent" d="M0 0h48.359v40.792H0z" transform="translate(21.525 324.832)"/>
        <text dy="0" transform="translate(21.525 324.832) translate(48.36 15.396)" style="font-family:Arial;font-size:10px;fill:#2c2c2c;text-anchor:end">
          <tspan x="0" y="5" style="dominant-baseline:central">50 to 54</tspan>
        </text>
      </g>
      <g class="yaxis-label tick-7">
        <path class="click-rect" fill="transparent" stroke="transparent" d="M0 0h48.359v40.792H0z" transform="translate(21.525 365.624)"/>
        <text dy="0" transform="translate(21.525 365.624) translate(48.36 15.396)" style="font-family:Arial;font-size:10px;fill:#2c2c2c;text-anchor:end">
          <tspan x="0" y="5" style="dominant-baseline:central">55 to 64</tspan>
        </text>
      </g>
      <g class="yaxis-label tick-8">
        <path class="click-rect" fill="transparent" stroke="transparent" d="M0 0h48.359v40.792H0z" transform="translate(21.525 406.416)"/>
        <text dy="0" transform="translate(21.525 406.416) translate(48.36 15.396)" style="font-family:Arial;font-size:10px;fill:#2c2c2c;text-anchor:end">
          <tspan x="0" y="5" style="dominant-baseline:central">65 or more</tspan>
        </text>
      </g>
      <g class="yaxis-label tick-9">
        <path class="click-rect" fill="transparent" stroke="transparent" d="M0 0h48.359v40.792H0z" transform="translate(21.525 447.208)"/>
        <text dy="0" transform="translate(21.525 447.208) translate(48.36 15.396)" style="font-family:Arial;font-size:10px;fill:#2c2c2c;text-anchor:end">
          <tspan x="0" y="5" style="dominant-baseline:central">65+</tspan>
        </text>
      </g>
    </g>
    <text dy="0" transform="rotate(-90 143.02 141.02)" style="font-weight:400;font-size:12px;fill:#2c2c2c;font-family:Arial;text-anchor:middle;dominant-baseline:text-before-edge" class="ytitle">Age</text>
    <g class="legend">
      <g class="legendBars">
        <path style="fill:#08306b;stroke:#08306b;stroke-width:1px" d="M0 0h26v7.358H0z" transform="translate(437.984 100.08)"/>
        <path transform="translate(437.984 100.08) translate(0 7.358)" style="fill:#08306c;stroke:#08306c;stroke-width:1px" d="M0 0h26v7.358H0z"/>
        <path transform="translate(437.984 100.08) translate(0 14.717)" style="fill:#07316d;stroke:#07316d;stroke-width:1px" d="M0 0h26v7.358H0z"/>
        <path transform="translate(437.984 100.08) translate(0 22.075)" style="fill:#07316d;stroke:#07316d;stroke-width:1px" d="M0 0h26v7.358H0z"/>
        <path transform="translate(437.984 100.08) translate(0 29.434)" style="fill:#07326e;stroke:#07326e;stroke-width:1px" d="M0 0h26v7.358H0z"/>
        <path transform="translate(437.984 100.08) translate(0 36.792)" style="fill:#06326f;stroke:#06326f;stroke-width:1px" d="M0 0h26v7.358H0z"/>
        <path transform="translate(437.984 100.08) translate(0 44.15)" style="fill:#063370;stroke:#063370;stroke-width:1px" d="M0 0h26v7.358H0z"/>
        <path transform="translate(437.984 100.08) translate(0 51.509)" style="fill:#063371;stroke:#063371;stroke-width:1px" d="M0 0h26v7.358H0z"/>
        <path transform="translate(437.984 100.08) translate(0 58.867)" style="fill:#053471;stroke:#053471;stroke-width:1px" d="M0 0h26v7.358H0z"/>
        <path transform="translate(437.984 100.08) translate(0 66.226)" style="fill:#053472;stroke:#053472;stroke-width:1px" d="M0 0h26v7.358H0z"/>
        <path transform="translate(437.984 100.08) translate(0 73.584)" style="fill:#053573;stroke:#053573;stroke-width:1px" d="M0 0h26v7.358H0z"/>
        <path transform="translate(437.984 100.08) translate(0 80.942)" style="fill:#053573;stroke:#053573;stroke-width:1px" d="M0 0h26v7.358H0z"/>
        <path transform="translate(437.984 100.08) translate(0 88.3)" style="fill:#053574;stroke:#053574;stroke-width:1px" d="M0 0h26v7.358H0z"/>
        <path transform="translate(437.984 100.08) translate(0 95.66)" style="fill:#053675;stroke:#053675;stroke-width:1px" d="M0 0h26v7.358H0z"/>
        <path transform="translate(437.984 100.08) translate(0 103.018)" style="fill:#043675;stroke:#043675;stroke-width:1px" d="M0 0h26v7.358H0z"/>
        <path transform="translate(437.984 100.08) translate(0 110.376)" style="fill:#043776;stroke:#043776;stroke-width:1px" d="M0 0h26v7.358H0z"/>
        <path transform="translate(437.984 100.08) translate(0 117.734)" style="fill:#043777;stroke:#043777;stroke-width:1px" d="M0 0h26v7.358H0z"/>
        <path transform="translate(437.984 100.08) translate(0 125.093)" style="fill:#043877;stroke:#043877;stroke-width:1px" d="M0 0h26v7.358H0z"/>
        <path transform="translate(437.984 100.08) translate(0 132.451)" style="fill:#043878;stroke:#043878;stroke-width:1px" d="M0 0h26v7.358H0z"/>
        <path transform="translate(437.984 100.08) translate(0 139.81)" style="fill:#03397a;stroke:#03397a;stroke-width:1px" d="M0 0h26v7.358H0z"/>
        <path transform="translate(437.984 100.08) translate(0 147.168)" style="fill:#033a7b;stroke:#033a7b;stroke-width:1px" d="M0 0h26v7.358H0z"/>
        <path transform="translate(437.984 100.08) translate(0 154.526)" style="fill:#023b7d;stroke:#023b7d;stroke-width:1px" d="M0 0h26v7.358H0z"/>
        <path transform="translate(437.984 100.08) translate(0 161.885)" style="fill:#013c7f;stroke:#013c7f;stroke-width:1px" d="M0 0h26v7.358H0z"/>
        <path transform="translate(437.984 100.08) translate(0 169.243)" style="fill:#013d80;stroke:#013d80;stroke-width:1px" d="M0 0h26v7.358H0z"/>
        <path transform="translate(437.984 100.08) translate(0 176.602)" style="fill:#013e81;stroke:#013e81;stroke-width:1px" d="M0 0h26v7.358H0z"/>
        <path transform="translate(437.984 100.08) translate(0 183.96)" style="fill:#013f82;stroke:#013f82;stroke-width:1px" d="M0 0h26v7.358H0z"/>
        <path transform="translate(437.984 100.08) translate(0 191.318)" style="fill:#003f83;stroke:#003f83;stroke-width:1px" d="M0 0h26v7.358H0z"/>
        <path transform="translate(437.984 100.08) translate(0 198.677)" style="fill:#004084;stroke:#004084;stroke-width:1px" d="M0 0h26v7.358H0z"/>
        <path transform="translate(437.984 100.08) translate(0 206.035)" style="fill:#004287;stroke:#004287;stroke-width:1px" d="M0 0h26v7.358H0z"/>
        <path transform="translate(437.984 100.08) translate(0 213.394)" style="fill:#00448a;stroke:#00448a;stroke-width:1px" d="M0 0h26v7.358H0z"/>
        <path transform="translate(437.984 100.08) translate(0 220.752)" style="fill:#004891;stroke:#004891;stroke-width:1px" d="M0 0h26v7.358H0z"/>
        <path transform="translate(437.984 100.08) translate(0 228.11)" style="fill:#004e97;stroke:#004e97;stroke-width:1px" d="M0 0h26v7.358H0z"/>
        <path transform="translate(437.984 100.08) translate(0 235.469)" style="fill:#005099;stroke:#005099;stroke-width:1px" d="M0 0h26v7.358H0z"/>
        <path transform="translate(437.984 100.08) translate(0 242.827)" style="fill:#00529a;stroke:#00529a;stroke-width:1px" d="M0 0h26v7.358H0z"/>
        <path transform="translate(437.984 100.08) translate(0 250.186)" style="fill:#00579e;stroke:#00579e;stroke-width:1px" d="M0 0h26v7.358H0z"/>
        <path transform="translate(437.984 100.08) translate(0 257.544)" style="fill:#015ba1;stroke:#015ba1;stroke-width:1px" d="M0 0h26v7.358H0z"/>
        <path transform="translate(437.984 100.08) translate(0 264.902)" style="fill:#0561a7;stroke:#0561a7;stroke-width:1px" d="M0 0h26v7.358H0z"/>
        <path transform="translate(437.984 100.08) translate(0 272.26)" style="fill:#1069ac;stroke:#1069ac;stroke-width:1px" d="M0 0h26v7.358H0z"/>
        <path transform="translate(437.984 100.08) translate(0 279.62)" style="fill:#2d7fb7;stroke:#2d7fb7;stroke-width:1px" d="M0 0h26v7.358H0z"/>
        <path transform="translate(437.984 100.08) translate(0 286.978)" style="fill:#3e8ebf;stroke:#3e8ebf;stroke-width:1px" d="M0 0h26v7.358H0z"/>
        <path transform="translate(437.984 100.08) translate(0 294.336)" style="fill:#5ba1ca;stroke:#5ba1ca;stroke-width:1px" d="M0 0h26v7.358H0z"/>
        <path transform="translate(437.984 100.08) translate(0 301.694)" style="fill:#69a9cf;stroke:#69a9cf;stroke-width:1px" d="M0 0h26v7.358H0z"/>
        <path transform="translate(437.984 100.08) translate(0 309.053)" style="fill:#73aed1;stroke:#73aed1;stroke-width:1px" d="M0 0h26v7.358H0z"/>
        <path transform="translate(437.984 100.08) translate(0 316.411)" style="fill:#8fbed8;stroke:#8fbed8;stroke-width:1px" d="M0 0h26v7.358H0z"/>
        <path transform="translate(437.984 100.08) translate(0 323.77)" style="fill:#b3d2e7;stroke:#b3d2e7;stroke-width:1px" d="M0 0h26v7.358H0z"/>
        <path transform="translate(437.984 100.08) translate(0 331.128)" style="fill:#c4dbef;stroke:#c4dbef;stroke-width:1px" d="M0 0h26v7.358H0z"/>
        <path transform="translate(437.984 100.08) translate(0 338.486)" style="fill:#cde0f3;stroke:#cde0f3;stroke-width:1px" d="M0 0h26v7.358H0z"/>
        <path transform="translate(437.984 100.08) translate(0 345.845)" style="fill:#e9f2fb;stroke:#e9f2fb;stroke-width:1px" d="M0 0h26v7.358H0z"/>
        <path transform="translate(437.984 100.08) translate(0 353.203)" style="fill:#f1f7fd;stroke:#f1f7fd;stroke-width:1px" d="M0 0h26v7.358H0z"/>
        <path transform="translate(437.984 100.08) translate(0 360.562)" style="fill:#f7fbff;stroke:#f7fbff;stroke-width:1px" d="M0 0h26v7.358H0z"/>
      </g>
      <g class="legendLabels">
        <g class="tick" style="opacity:1">
          <path d="M0 0h6" transform="translate(467.984 468)"/>
          <text dy=".32em" style="text-anchor:start;font-size:10px;font-family:Arial;fill:#2c2c2c" transform="translate(467.984 468)">0%</text>
        </g>
        <g class="tick" style="opacity:1">
          <path d="M0 0h6" transform="translate(467.984 437.897)"/>
          <text dy=".32em" style="text-anchor:start;font-size:10px;font-family:Arial;fill:#2c2c2c" transform="translate(467.984 437.897)">5%</text>
        </g>
        <g class="tick" style="opacity:1">
          <path d="M0 0h6" transform="translate(467.984 407.795)"/>
          <text dy=".32em" style="text-anchor:start;font-size:10px;font-family:Arial;fill:#2c2c2c" transform="translate(467.984 407.795)">10%</text>
        </g>
        <g class="tick" style="opacity:1">
          <path d="M0 0h6" transform="translate(467.984 377.692)"/>
          <text dy=".32em" style="text-anchor:start;font-size:10px;font-family:Arial;fill:#2c2c2c" transform="translate(467.984 377.692)">15%</text>
        </g>
        <g class="tick" style="opacity:1">
          <path d="M0 0h6" transform="translate(467.984 347.59)"/>
          <text dy=".32em" style="text-anchor:start;font-size:10px;font-family:Arial;fill:#2c2c2c" transform="translate(467.984 347.59)">20%</text>
        </g>
        <g class="tick" style="opacity:1">
          <path d="M0 0h6" transform="translate(467.984 317.487)"/>
          <text dy=".32em" style="text-anchor:start;font-size:10px;font-family:Arial;fill:#2c2c2c" transform="translate(467.984 317.487)">25%</text>
        </g>
        <g class="tick" style="opacity:1">
          <path d="M0 0h6" transform="translate(467.984 287.385)"/>
          <text dy=".32em" style="text-anchor:start;font-size:10px;font-family:Arial;fill:#2c2c2c" transform="translate(467.984 287.385)">30%</text>
        </g>
        <g class="tick" style="opacity:1">
          <path d="M0 0h6" transform="translate(467.984 257.282)"/>
          <text dy=".32em" style="text-anchor:start;font-size:10px;font-family:Arial;fill:#2c2c2c" transform="translate(467.984 257.282)">35%</text>
        </g>
        <g class="tick" style="opacity:1">
          <path d="M0 0h6" transform="translate(467.984 227.18)"/>
          <text dy=".32em" style="text-anchor:start;font-size:10px;font-family:Arial;fill:#2c2c2c" transform="translate(467.984 227.18)">40%</text>
        </g>
        <g class="tick" style="opacity:1">
          <path d="M0 0h6" transform="translate(467.984 197.077)"/>
          <text dy=".32em" style="text-anchor:start;font-size:10px;font-family:Arial;fill:#2c2c2c" transform="translate(467.984 197.077)">45%</text>
        </g>
        <g class="tick" style="opacity:1">
          <path d="M0 0h6" transform="translate(467.984 166.975)"/>
          <text dy=".32em" style="text-anchor:start;font-size:10px;font-family:Arial;fill:#2c2c2c" transform="translate(467.984 166.975)">50%</text>
        </g>
        <g class="tick" style="opacity:1">
          <path d="M0 0h6" transform="translate(467.984 136.872)"/>
          <text dy=".32em" style="text-anchor:start;font-size:10px;font-family:Arial;fill:#2c2c2c" transform="translate(467.984 136.872)">55%</text>
        </g>
        <g class="tick" style="opacity:1">
          <path d="M0 0h6" transform="translate(467.984 106.77)"/>
          <text dy=".32em" style="text-anchor:start;font-size:10px;font-family:Arial;fill:#2c2c2c" transform="translate(467.984 106.77)">60%</text>
        </g>
        <path class="domain" d="M473.984 100.08h-6V468h6"/>
      </g>
    </g>
    <g class="colormap-transform" transform="translate(75.885 80.08)">
      <svg class="colormap" width="330.1" height="407.92">
        <path class="data-cell" data-index="0x0" data-row="0" data-column="0" fill="#00589f" d="M0 0h41.012v40.542H0z"/>
        <path class="data-cell" data-index="0x1" data-row="0" data-column="1" fill="#e1edf8" d="M41.262 0h41.012v40.542H41.262z"/>
        <path class="data-cell" data-index="0x2" data-row="0" data-column="2" fill="#a3c9df" d="M82.525 0h41.012v40.542H82.525z"/>
        <path class="data-cell" data-index="0x3" data-row="0" data-column="3" fill="#8bbcd7" d="M123.787 0h41.012v40.542h-41.012z"/>
        <path class="data-cell" data-index="0x4" data-row="0" data-column="4" fill="#f7fbff" d="M165.05 0h41.012v40.542H165.05z"/>
        <path class="data-cell" data-index="0x5" data-row="0" data-column="5" fill="#3689bc" d="M206.312 0h41.012v40.542h-41.012z"/>
        <path class="data-cell" data-index="0x6" data-row="0" data-column="6" fill="#053472" d="M247.575 0h41.012v40.542h-41.012z"/>
        <path class="data-cell" data-index="0x7" data-row="0" data-column="7" fill="#f7fbff" d="M288.837 0h41.012v40.542h-41.012z"/>
        <path class="data-cell" data-index="1x0" data-row="1" data-column="0" fill="#4792c2" d="M0 40.792h41.012v40.542H0z"/>
        <path class="data-cell" data-index="1x1" data-row="1" data-column="1" fill="#9bc5db" d="M41.262 40.792h41.012v40.542H41.262z"/>
        <path class="data-cell" data-index="1x2" data-row="1" data-column="2" fill="#0561a7" d="M82.525 40.792h41.012v40.542H82.525z"/>
        <path class="data-cell" data-index="1x3" data-row="1" data-column="3" fill="#b3d2e7" d="M123.787 40.792h41.012v40.542h-41.012z"/>
        <path class="data-cell" data-index="1x4" data-row="1" data-column="4" fill="#83b7d5" d="M165.05 40.792h41.012v40.542H165.05z"/>
        <path class="data-cell" data-index="1x5" data-row="1" data-column="5" fill="#0a66aa" d="M206.312 40.792h41.012v40.542h-41.012z"/>
        <path class="data-cell" data-index="1x6" data-row="1" data-column="6" fill="#f7fbff" d="M247.575 40.792h41.012v40.542h-41.012z"/>
        <path class="data-cell" data-index="1x7" data-row="1" data-column="7" fill="#f7fbff" d="M288.837 40.792h41.012v40.542h-41.012z"/>
        <path class="data-cell" data-index="2x0" data-row="2" data-column="0" fill="#4e97c5" d="M0 81.584h41.012v40.542H0z"/>
        <path class="data-cell" data-index="2x1" data-row="2" data-column="1" fill="#7bb3d3" d="M41.262 81.584h41.012v40.542H41.262z"/>
        <path class="data-cell" data-index="2x2" data-row="2" data-column="2" fill="#9bc5db" d="M82.525 81.584h41.012v40.542H82.525z"/>
        <path class="data-cell" data-index="2x3" data-row="2" data-column="3" fill="#3689bc" d="M123.787 81.584h41.012v40.542h-41.012z"/>
        <path class="data-cell" data-index="2x4" data-row="2" data-column="4" fill="#f7fbff" d="M165.05 81.584h41.012v40.542H165.05z"/>
        <path class="data-cell" data-index="2x5" data-row="2" data-column="5" fill="#6aaacf" d="M206.312 81.584h41.012v40.542h-41.012z"/>
        <path class="data-cell" data-index="2x6" data-row="2" data-column="6" fill="#f7fbff" d="M247.575 81.584h41.012v40.542h-41.012z"/>
        <path class="data-cell" data-index="2x7" data-row="2" data-column="7" fill="#f7fbff" d="M288.837 81.584h41.012v40.542h-41.012z"/>
        <path class="data-cell" data-index="3x0" data-row="3" data-column="0" fill="#136bad" d="M0 122.376h41.012v40.542H0z"/>
        <path class="data-cell" data-index="3x1" data-row="3" data-column="1" fill="#004e97" d="M41.262 122.376h41.012v40.542H41.262z"/>
        <path class="data-cell" data-index="3x2" data-row="3" data-column="2" fill="#3184ba" d="M82.525 122.376h41.012v40.542H82.525z"/>
        <path class="data-cell" data-index="3x3" data-row="3" data-column="3" fill="#94c0d8" d="M123.787 122.376h41.012v40.542h-41.012z"/>
        <path class="data-cell" data-index="3x4" data-row="3" data-column="4" fill="#f7fbff" d="M165.05 122.376h41.012v40.542H165.05z"/>
        <path class="data-cell" data-index="3x5" data-row="3" data-column="5" fill="#f7fbff" d="M206.312 122.376h41.012v40.542h-41.012z"/>
        <path class="data-cell" data-index="3x6" data-row="3" data-column="6" fill="#f7fbff" d="M247.575 122.376h41.012v40.542h-41.012z"/>
        <path class="data-cell" data-index="3x7" data-row="3" data-column="7" fill="#f7fbff" d="M288.837 122.376h41.012v40.542h-41.012z"/>
        <path class="data-cell" data-index="4x0" data-row="4" data-column="0" fill="#94c0d8" d="M0 163.168h41.012v40.542H0z"/>
        <path class="data-cell" data-index="4x1" data-row="4" data-column="1" fill="#004994" d="M41.262 163.168h41.012v40.542H41.262z"/>
        <path class="data-cell" data-index="4x2" data-row="4" data-column="2" fill="#3e8ebf" d="M82.525 163.168h41.012v40.542H82.525z"/>
        <path class="data-cell" data-index="4x3" data-row="4" data-column="3" fill="#00458c" d="M123.787 163.168h41.012v40.542h-41.012z"/>
        <path class="data-cell" data-index="4x4" data-row="4" data-column="4" fill="#5ba1ca" d="M165.05 163.168h41.012v40.542H165.05z"/>
        <path class="data-cell" data-index="4x5" data-row="4" data-column="5" fill="#73aed1" d="M206.312 163.168h41.012v40.542h-41.012z"/>
        <path class="data-cell" data-index="4x6" data-row="4" data-column="6" fill="#f7fbff" d="M247.575 163.168h41.012v40.542h-41.012z"/>
        <path class="data-cell" data-index="4x7" data-row="4" data-column="7" fill="#f7fbff" d="M288.837 163.168h41.012v40.542h-41.012z"/>
        <path class="data-cell" data-index="5x0" data-row="5" data-column="0" fill="#bbd6eb" d="M0 203.96h41.012v40.542H0z"/>
        <path class="data-cell" data-index="5x1" data-row="5" data-column="1" fill="#d2e3f4" d="M41.262 203.96h41.012v40.542H41.262z"/>
        <path class="data-cell" data-index="5x2" data-row="5" data-column="2" fill="#62a5ce" d="M82.525 203.96h41.012v40.542H82.525z"/>
        <path class="data-cell" data-index="5x3" data-row="5" data-column="3" fill="#00539b" d="M123.787 203.96h41.012v40.542h-41.012z"/>
        <path class="data-cell" data-index="5x4" data-row="5" data-column="4" fill="#bbd6eb" d="M165.05 203.96h41.012v40.542H165.05z"/>
        <path class="data-cell" data-index="5x5" data-row="5" data-column="5" fill="#cbdff3" d="M206.312 203.96h41.012v40.542h-41.012z"/>
        <path class="data-cell" data-index="5x6" data-row="5" data-column="6" fill="#f7fbff" d="M247.575 203.96h41.012v40.542h-41.012z"/>
        <path class="data-cell" data-index="5x7" data-row="5" data-column="7" fill="#08306b" d="M288.837 203.96h41.012v40.542h-41.012z"/>
        <path class="data-cell" data-index="6x0" data-row="6" data-column="0" fill="#559cc8" d="M0 244.752h41.012v40.542H0z"/>
        <path class="data-cell" data-index="6x1" data-row="6" data-column="1" fill="#abcde3" d="M41.262 244.752h41.012v40.542H41.262z"/>
        <path class="data-cell" data-index="6x2" data-row="6" data-column="2" fill="#1b70b0" d="M82.525 244.752h41.012v40.542H82.525z"/>
        <path class="data-cell" data-index="6x3" data-row="6" data-column="3" fill="#bbd6eb" d="M123.787 244.752h41.012v40.542h-41.012z"/>
        <path class="data-cell" data-index="6x4" data-row="6" data-column="4" fill="#015da3" d="M165.05 244.752h41.012v40.542H165.05z"/>
        <path class="data-cell" data-index="6x5" data-row="6" data-column="5" fill="#136bad" d="M206.312 244.752h41.012v40.542h-41.012z"/>
        <path class="data-cell" data-index="6x6" data-row="6" data-column="6" fill="#f7fbff" d="M247.575 244.752h41.012v40.542h-41.012z"/>
        <path class="data-cell" data-index="6x7" data-row="6" data-column="7" fill="#043878" d="M288.837 244.752h41.012v40.542h-41.012z"/>
        <path class="data-cell" data-index="7x0" data-row="7" data-column="0" fill="#3e8ebf" d="M0 285.544h41.012v40.542H0z"/>
        <path class="data-cell" data-index="7x1" data-row="7" data-column="1" fill="#2175b2" d="M41.262 285.544h41.012v40.542H41.262z"/>
        <path class="data-cell" data-index="7x2" data-row="7" data-column="2" fill="#2d7fb7" d="M82.525 285.544h41.012v40.542H82.525z"/>
        <path class="data-cell" data-index="7x3" data-row="7" data-column="3" fill="#3689bc" d="M123.787 285.544h41.012v40.542h-41.012z"/>
        <path class="data-cell" data-index="7x4" data-row="7" data-column="4" fill="#013c7f" d="M165.05 285.544h41.012v40.542H165.05z"/>
        <path class="data-cell" data-index="7x5" data-row="7" data-column="5" fill="#004185" d="M206.312 285.544h41.012v40.542h-41.012z"/>
        <path class="data-cell" data-index="7x6" data-row="7" data-column="6" fill="#053472" d="M247.575 285.544h41.012v40.542h-41.012z"/>
        <path class="data-cell" data-index="7x7" data-row="7" data-column="7" fill="#f7fbff" d="M288.837 285.544h41.012v40.542h-41.012z"/>
        <path class="data-cell" data-index="8x0" data-row="8" data-column="0" fill="#d2e3f4" d="M0 326.336h41.012v40.542H0z"/>
        <path class="data-cell" data-index="8x1" data-row="8" data-column="1" fill="#7bb3d3" d="M41.262 326.336h41.012v40.542H41.262z"/>
        <path class="data-cell" data-index="8x2" data-row="8" data-column="2" fill="#d2e3f4" d="M82.525 326.336h41.012v40.542H82.525z"/>
        <path class="data-cell" data-index="8x3" data-row="8" data-column="3" fill="#d9e8f6" d="M123.787 326.336h41.012v40.542h-41.012z"/>
        <path class="data-cell" data-index="8x4" data-row="8" data-column="4" fill="#277ab4" d="M165.05 326.336h41.012v40.542H165.05z"/>
        <path class="data-cell" data-index="8x5" data-row="8" data-column="5" fill="#cbdff3" d="M206.312 326.336h41.012v40.542h-41.012z"/>
        <path class="data-cell" data-index="8x6" data-row="8" data-column="6" fill="#f7fbff" d="M247.575 326.336h41.012v40.542h-41.012z"/>
        <path class="data-cell" data-index="8x7" data-row="8" data-column="7" fill="#f7fbff" d="M288.837 326.336h41.012v40.542h-41.012z"/>
        <path class="data-cell" data-index="9x0" data-row="9" data-column="0" fill="#e9f2fb" d="M0 367.128h41.012v40.542H0z"/>
        <path class="data-cell" data-index="9x1" data-row="9" data-column="1" fill="#c3daee" d="M41.262 367.128h41.012v40.542H41.262z"/>
        <path class="data-cell" data-index="9x2" data-row="9" data-column="2" fill="#e1edf8" d="M82.525 367.128h41.012v40.542H82.525z"/>
        <path class="data-cell" data-index="9x3" data-row="9" data-column="3" fill="#eff6fc" d="M123.787 367.128h41.012v40.542h-41.012z"/>
        <path class="data-cell" data-index="9x4" data-row="9" data-column="4" fill="#5ba1ca" d="M165.05 367.128h41.012v40.542H165.05z"/>
        <path class="data-cell" data-index="9x5" data-row="9" data-column="5" fill="#d2e3f4" d="M206.312 367.128h41.012v40.542h-41.012z"/>
        <path class="data-cell" data-index="9x6" data-row="9" data-column="6" fill="#f7fbff" d="M247.575 367.128h41.012v40.542h-41.012z"/>
        <path class="data-cell" data-index="9x7" data-row="9" data-column="7" fill="#f7fbff" d="M288.837 367.128h41.012v40.542h-41.012z"/>
        <g class="brush" style="pointer-events:all;-webkit-tap-highlight-color:transparent"/>
      </svg>
    </g>
  </g>
</svg>
