<svg id="Layer_1" data-name="Layer 1" xmlns="http://www.w3.org/2000/svg" viewBox="0 0 927.4 588.42"><defs><style>.cls-1{fill:#cc2f4a;}.cls-2{fill:#e27f90;}.cls-3{fill:#b9d7ff;}.cls-4{fill:#4389e3;}.cls-5{fill:#86b6f2;}.cls-6{fill:#f2b3be;}.cls-7{fill:#d0d0d0;}.cls-10,.cls-8{fill:none;}.cls-8,.cls-9{stroke:#fff;}.cls-9{fill:#002b84;}.cls-10{stroke:#b0b0b0;stroke-width:2px;}</style></defs><path class="cls-1" d="M643,467.4l.4-7.3-.9-1.2-1.7-.7-2.5-2.8.5-2.9,48.8-5.1-.7-2.2-1.5-1.5-.5-1.4.6-6.3-2.4-5.7.5-2.6.3-3.7,2.2-3.8-.2-1.1-1.7-1v-3.2l-1.8-1.9-2.9-6.1-12.9-45.8-45.7,4,1.3,2-1.3,67,4.4,33.2.9-.5,1.3.1.6.4.8-.1,2-3.8v-2.3L632,460l1.4.5,3.4,6.4v.9l-3.3,2.2,3.5-.4,4.9-1.6Z" transform="translate(0 -5.2)"/><path class="cls-2" d="M15.8,572h2.4l.7.7-1,1.2-1.9.2-2.5,1.3-3.7-.1,2.2-.9.3-1.1,2.5-.3Zm8.3-1.7,1.3.5h.9l.5,1.2.3-.6.9.2,1.1,1.5v.5l-4.2,1.9-2.4-.1-1-.5-1.1.7h-2l-1.1-1.4,4.7-.5Zm5.4-.1,1,.1.7.7v1l-1.3.1L29,571Zm2.5.3,1.3-.1-.1,1-1.1.6Zm.3,2.2,3.4-.1.2,1.1-1.3.1-.3-.5-.8.6-.4-.6-.9-.2Zm166.3,7.6,2.1.1-1,1.9-1.1-.1-.4-.8.5-1.3m-1.1-2.9.6-1.3-.2-2.3,2.4-.5,4.5,4.4,1.3,3.4,1.9,1.6.3,5.1H207l-1.3-2.3-3.1-2.4H202l1.1,2.8,1.7.2.2,2.1-.9.1-4.1-4.4-.1-.9,1.9-1v-1l-.5-.8-1.6-.6-1.7-1.3,1.4.1.5-.4-.6-.9-.6.5Zm-3.6-9.1,1.3.1,2.4,2.5-.2.8-.8-.1-.1,1.8.5.5v1.5l-.8.3-.4,1.2-.8-.4-.4-2.2,1.1-1.4-2.1-2.2.1-1.2Zm1.5-1.5,1.9.2,2.5.1,3.4,3.2-.2.5-1.1.6-1.1-.2-.1-.7-1.2-1.6-.3.7,1,1.3-.2,1.2-.8-.1-1.3.2-.1-1.7-2.6-2.8Zm-12.7-8.9.9-.4h1.6l.7-.5,4.1,2.2.1,1.5-.5.5h-.8l-1.4-.7,1.1,1.3h1.8l.5,2H190l-2.2-1.5-1.1-.2.6,1.3.1.9.8-.6,1.7,1.2,1.3-.1-.2.8,1.9,4.3v3.4l.4,2.1-.8.3-1.2-2-.5-1.5-1.6-1.6-.2-2.7-.6-1.7h-.7l.3,1.1v.5l-1.4,1,.1-3.3-1.6-1.6-1.3-2.3-1.2-1.2Zm7.2-2.3,1.1,1.8,2.4-.1,1,2.1-.6.6,2,3.2v1.3l-1.2.8v.7l-2,1.9-.5-1.4-.1-1.3.6-.7v-1.1l-1.5-1.9-.5-3.7-.9-1.5Zm-56.7-18.3-4,4.1v1.6l2.1-.8.8-1.9,2.2-2.4Zm-31.6,16.6v.6l1.8,1.2.2-1.4.6.9,3.5.1.7-.6.2-1.8-.5-.7h-1.4v-.8l.4-.6v-.4l-1.5-.3-3.3,3.6Zm-8.1,6.2,1.5,5.8h2.1l2.4-2.5.3,1.2,6.3-4,.7-1-1-1.1v-.7l.5-1.3-.9-.1-2,1V556l-2.7-.6-2.4.3-.2,3.4-.8-2-1.5-.1-1,.6Zm-2.2,8.2.1-.7,2.1-1.3.6.3,1.3.2,1.3,1.2-2.2-.2-.4-.6-1,.6Zm-5.2,3.3-1.1.8,1.5,1.4.8-.7-.1-1.3Zm-6.3-7.9,1.4.1.4.6-1.8.1ZM66,575.4v.5l.7.1-.1-.6Zm-.4-3.2-1,1v.5l.7,1.1,1-1-.7-.1Zm-2-.8-.3,1-1.3.1-.4.2V574l-.5.9h.6l.7-.9.8-.1.9-1,.2-1.3Zm-4.4-2-.2,1.8,1.4.8,1.2-.6v-1l1.7-.3-.1-.6-.9-.2-.7.6-.9-.5Zm-4.9-.1,1,.7-.3,1.2-1.4-1.1Zm-4.2,1.3,1.4.1-.7.8Zm-3.5,3,1.8,1.1-1.7.1ZM21.2,542.4l1.2.6-.8.6Zm-.7-6.3.4,1.2.8-1.2Zm24.3-19.3,1.5-.1.9.4,1.1-.5,1.3-.1,1.6.8.8,1.9-.1.9-1.2,2-2.4-.2-2.1-1.8-1-.4-1.1-2ZM23.7,502.4l.1,1.9,2,2v.5l-.8-.2-1.7-.8-.3-1.1-.3-1.6ZM42,479.1v1.2l1.9,1.8h2.3l.6,1.1v1.6l2.1,1.9,1.8,1.2-.1.7-.7,1.1-1.4-1.2-2.1.1-.8-.8-.9-2.1-1.5-2.2-2.6-.1-1-.7,1-2.1Zm16.8-4.5h1l.1,1.1h-1ZM75,494.3l.9.1v1.2l-1.7-.5ZM202.8,572l-1.2.4-.1,1.1h1.2ZM45.2,567.5l-1.3-.4-4.1.6L37,569.1l-.1,1.9,1.9.7,1.5-.9,1.7-.1,4.7,1.4.1-1.3-1.6-1.1Zm2.1,2.3-.4-1.4,1.2.2.1,1.4H50l.4-2.5.3,2.4,2.5-.1,3.2-3.3.8.1-.7,1.3,1.4.9,4.2-.2,2.6-1.2,1.4-.1.3,1.5.6-.5.4-1.4,5.9.2,1.9-1.6-1.3-1.1.6-1.2,2.6.2-.2-1.2,2.5.2.7-1.1,1.1.2,4.6-1.9.2-1.7,5.6-2.4,2-1.9,1.2-.6,1.3.8,2.3-.9,1.1-1.9.5-1.3,1.7-.9,1.5-.7.4-1.4-1.1-1.7-2.2-.2-.2-1.3.8-1.6,1.4-.2,1.3-1.5,1.9-.1,3.4-3.2.4-1.4,1.5-2.3,3.8-4.1,2.5-.9,1.9-.9,2.1.8,1.4,2.6H121l-1.4-1.5-3,2-1.7.1-.2,3.1-3.1,4.9.6,2h2.3l-.6,1-1.4.1-2.4,1.8v.9l1.9,1,3.4-.6,1.4-1.7,1.4.1,3-1.7.5-2.3,1.6-.1,6.3.8,1-1.1,1-4.5-1.6,1.1.6-2.2-1.6-1.4.8-1.5.1,1.5h3.4l.7-1,1.6-.1-.3,1.7,1.9.1-1.9,1.3,4.1,1.1-3.5.4-1.3,1.2.9,1.4,4.6-1.7,2.3,1.7.7-.9.6,1.4,4,2.3h2.9l3.9-.5,4.3,1.1,2,1.9,4.5.4,1.8-1.5.8,2.4-1.8.7,1.2,1.2,7.4,3.8,1.4,2.5,5.4,4.1,3.3-2-.6-2.2-3.5-2,3.1,1.2.5-.7.9,1.3v2.7l2.1-.6,2.1,1.8-2.5-9.8,1.2,1.3,1.4,6,2.2,2.5,2.4-.4,1.8,3.5h.9l.6,5.6,3.4.5,1.6,2.2,1.8,1.1.4,2.8-1.8,2.6,2.9,1.6,1.2-2.4-.2,3.1-.8.9,1.4,1.7.7-2.4-.2-1.2.8.2.6,2.3-1,1.4.6,2.6.5.4.3-1.6.7.6-.3,2,1.2.2-.4.9,1.7-.1v-1h-1l.1-1.7-.8-.6,1.7-.3.5-.8v-1.6l.5,1.3-.6,1.8,1.2,3.9,1.8.1,2.2-4.2.1-1.9-1.3-4-.1-1.2.5-1.2-.7-.7-1.7.1-2.5-2h-1.7l-2-1.4h-1.5l-.5-1.6-1.4-.3-.2-1.5-1-.5.1-1.7-5.1-7.4-1.8-1.5V554l-4.3-3.5-.7-1.1-1.6-2-1.9-.6v-2.2l-1.2-1.3-1.7-.7-2.1,1.3-1.6,2.1-.4,2.4-1.5.1-2.5,2.7-.8-.3v-2.5l-2.4-2.2-2.3-2-.5-2-2.5-1.3.2-2.2-2.8-.1-.7,1.1h-1.2l-.7-.7-1.2.8-1.8-1.2V452.8l-6.9-4.1-1.8-.5-2.2,1.1-2.2.1-2.3-1.6-4.3-.6-5.8-3.6-5.7-.4-2,.5-.2-1.8-1.8-.7,1.1-1-.2-.9-3.2-1.1h-2.4l-.4.4-.9-.6.1-2.6-.8-.9-2.5,2.9-.8-.1v-.8l1.7-.8v-.8l-1.9-2.4-1.1-.1-4.5,3.1h-3.9l.4-.9-1.8-.1-5.2,3.4H97.8l-.6-.8-2.7,1.5-3.6,3.7L88.1,445l-1.5,1.2-2.6.1-2.2-.4-2.3-1.3h0l-2.8,3.9-.1,2.4,2.6,2.4,2.1,4.5.2,5.3,2.9,2,3.4.4.7.8L87,468.6l.7,2.7L86,468.7v-2.4l-1.5-.3.1,1.2.7,2.1,2.9,3.7H86.8l-2.2,1.1-6.2-2.5-.1-2,1.4-1.3v-1.4l-2.1-.5-2.3.2-4.8.2,1.5,2.3-1.9-1.8-8.4,1.2-.8,1.5,4.9,4.7-.8,1.4-.3,2-.7.8-.1,1.9,4.4,3.6,4.1.2,4.6,1.9h2l.8-.6,3.8.1.1-.8,1.2,1.1.1,2-2.5-.1.1,3.3.5,3.2-2.9,2.7-1.9-.1-2-.8-1,.1-3.1,2.1-1.7.2-1.4-2.8H66l-2.2,2-.5,1.8L60,501.7,54.7,506l-.3,3.1.7,2.2,1,1.2,1-.4.9,1-.8.6-1.5.9,1.1,1.5-2.6,1.1.8,2.2,1.7,2.3.8,4.1,4,1.5,2.6-.8,1.7-1.1.5,2.1.3,4.4-1.9,1.4v4.4l-.6.9H62.4l1.7,1.2,2.1-.1.4-1,4.6-.6,2,2.6,1.3-.7,1.3,5.1,1,.5,1-.7.1-2.4.9-1,.7,1.1.2,1.6,1.6.4,4.7-1.2.2,1.2-2,1.1-1.6,1.7-2.8,7-4.3,2-1.4,1.5-.3,1.4-1-.6L63.5,562l-1.8,4.1-1.3-.4.5-1.1-1.5-1.4-3.5-.2-5.3,3.2-2.2,1.3H46.1l-.5,2.4Z" transform="translate(0 -5.2)"/><path class="cls-3" d="M139.6,387.6l3-2.2.8-2.4-1-1.6-1.8-.2-1.1-1.6,1.1-6.9,1.6-.3,2.4-3.2,1.6-7,2.4-3.6,4.8-1.7,1.3-1.3-.4-1.9-2.3-2.5-1.2-5.8-1.4-1.8-1.3-3.4.9-2.1,1.4-3,.5-2.9-.5-4.9,1-13.6,3.5-.6,3.7,1.4,1.2,2.7h2l2.4-2.9,3.4-17.5,46.2,8.2,40,6L236.4,435.1l-37.3-5.4-64.2-37.5.5-2.9,2-1.8Z" transform="translate(0 -5.2)"/><path class="cls-1" d="M584.2,367l.9-2.2,1.2.5.7-1-.8-.7.3-1.5-1.1-.9.6-1-.1-1.5-1.1-.1.8-.8,1.3.8.3-1.4-.4-1.1.1-.7,2,.6-.4-1.5,1.6-1.3-.5-.9-1.1.1-.6-.9.9-.9,1.6-.2.5-.8,1.4-.2-.1-.8-.9-.9v-.5h1.5l.4-.7-1.4-1-.1-.6-11.2.8,2.8-5.1,1.7-1.5v-2.2l-1.6-2.5-39.8,2-39.1.7,4.1,24.4-.7,39,2.6,2.3,2.8-1.3,3.2.8.2,11.9,52.3-1.3,1.2-1.5.5-3-1.5-2.3-.5-2.2.9-.7v-.8l-1.7-1.1-.1-.7,1.6-.9-1.2-1.1,1.7-7.1,3.4-1.6v-.8l-1.1-1.4,2.9-5.4H577l1.5-1.2-.3-5.2,3.1-4.5,1.8-.6-.5-3.1Z" transform="translate(0 -5.2)"/><path class="cls-4" d="M69.4,365.6l3.4,5.2-1.4.1L69.6,369Zm1.9-9.8,1.8,4.1,2.6,1,.7-.6-1.3-2.5-2.6-2.4Zm-19.9-19v2.4l2,1.2,4.4-.2,1-1-3.1-.2Zm-5.9.1,3.3.5,1.4,2.2H46.4Zm47.9,45.5-1-3,.2-3-.4-7.9-1.8-4.8-1.2-1.4-.6-1.5-7-8.6-3.6.1-2-1.9,1.1-1.8-.7-3.7-2.2-1.2-3.9-.6-2.8-1.3L66,339.9l-4.5-6.6-2.7-2.2-3.7-.5L52,328.3l-4.7-1.5-2.8-.3L42,324l.2-2.8.8-4.8,1.8-5.1-1.4-1.6-4-9.4-2.7-3.7-.4-3-1.6-2.3.2-2.5-2-5L30,281.1l.6-7.1,2.4-.8,1.8-3.1-.4-3.2-1-.9H30.9l-2.5-3.3-1.5-3.5v-7.5l1.2-4.2.2-2.1,2.5.2-.1,1.6-.8.7v2.5l3.7,3.2v-4.7l-1.4-3.4.5-1.1-1-1.7,2.8-1.5-1.9-3-1.4.5-1.5,3.8.5,1.3-.8,1-.9-.1-5.4-6.1.7-5.6-1.1-3.9-6.5-12.8.8-10.7,2.3-3.6.2-6.4L14,184.5l.3-5.2,6.9-7.5,1.7-2.4-.1-1.4,4-9.2.1-8.4.9-2.5,66.1,18.6L77.5,229.6l1.1,3.5,70.4,105-.9,2.1,1.3,3.4,1.4,1.8,1.2,5.8,2.3,2.5.4,1.9-1.3,1.3-4.8,1.7-2.4,3.6-1.6,7-2.4,3.2-1.6.3-1.1,6.9,1.1,1.6,1.8.2,1,1.6-.8,2.4-3,2.2-2.2-.1Z" transform="translate(0 -5.2)"/><path class="cls-5" d="M374.6,323.3l-16.5-1-51.7-4.8L253.8,311l11.5-88.3,44.9,5.7,37.5,3.4,33.1,2.4-1.4,22.1Z" transform="translate(0 -5.2)"/><path class="cls-5" d="M873.5,178.9l.4-1.1-3.2-12.3-.1-.3-14.9,3.4v.7l-.9.3-.5-.7-10.5,2.4,2.8,16.3,1.8,1.5-3.5,3.4,1.7,2.2,5.4-4.5,1.7-1.3h.8l2.4-3.1,1.4.1,2.9-1.1h2.1l5.3-2.7,2.8-.9,1-1,1.5.5Z" transform="translate(0 -5.2)"/><path class="cls-5" d="M822.2,226.6l-1.6.3-1.5,1.1-1.2,2.1,7.6,27.1,10.9-2.3-2.2-7.6-1.1.5-3.3-2.6-.5-1.7-1.8-1-.2-3.7-2.1-2.2-1.1-.8-1.2-1.1-.4-3.2.3-2.1,1-2.2Z" transform="translate(0 -5.2)"/><path class="cls-2" d="M751.7,445.1l-4-.7-1.7-.9-2.2,1.4v2.5l1.4,2.1-.5,4.3-2.1.6-1-1.1-.6-3.2-50.1,3.3-3.3-6-48.8,5.1-.5,2.9,2.5,2.8,1.7.7.9,1.2-.4,7.3-1.1.6.5.4,1-.3.7-.8,10.5-2.7,9.2-.5,8.1,1.9,8.5,5,2.4.8,2.2,2-.1,2.7h2.4l1.9-1,2.5.1,2-.8,2.9-2,3.1-2.9,1.1-.4.6.5h1.4l.5-.8-.5-1.2-.6-.6.2-.8,2-1.1,5-.4.8,1,1,.1,2.3,1,3,1.8,1.2,1.7,1.1,1.2,2.8,1.4v2.4l2.8,1.9,1,.1,1.6,1.4.7,1.6,1,.2.8,2.1.7.6,1-1.1,2.9.1.5,1.4,1.1.9v1.3l2.9,2.2.2,9.6-1.8,5.8,1,1.2-.2,3.4-.8,1.4.7,1.2,2.3,2.3.3,1.5.8,1-.4-1.9,1.3-.6.8-3.6-3-1.2.1-.6,2.6-.4.9,2.6,1.1.6.1-2,1.1.3.6.8-.1.7-2.9,4.2-.2,1.1-1.7,1.9v1.1l3.7,3.8,5.3,7.9,1.8,2.1v1.8L755,539l2.3.6.7-1.2-2.1.3-3-4.5.2-1.4,1.5-.8v-1.5l-.6-1.3.9-.9.4.9.7.5v4l-1.2-.6-.8.9,1.4,1.6,1,2.6,1.2-.6,2.3,1.2L762,541l1.6,5.1,3.1,4.8.8-1.3,2.8-.5,3.2,1.3.3,1.7,3.3,3.8.1,1.1,2.2,2.7-.7.5v2.7l2.7,1.4h1.5l2.7-1.8,1.5.3,1.1.4,2.3-1.7.2-.7,1.2.3,2.4-1.7,1.3-2.3-.7-3.2-.2-1.3,1.1-4,.6-.2.6,1.6.8-1.8L797,541l-.4-10.5-1-6.8-.7-1.7-6.6-11.1-5.2-9.1-2.2-3.3-1.3-3.6-.2-3.4.9-.3v-.9l-1.1-2.2-4-4-7.6-9.7L761.9,464l-4.3-10.7-.6-3.7-1.2-1-.5-3.8Zm9.2,134.5,1.7-.1-.7-1Zm7.3-1.1v-.7l1.6-.2,3.7-3.3,1.5-.6,2.4-.9.3,1.3,1.7.8-2.6,1.2h-2.4l-3.9,2.5Zm17.2-7.6-3,1.4-1,1.3,1.1.1Zm3.8-2.9-1.1.3-1.4,2,1.1-.2,1.5-1.6Zm8.3-15.7-1.7,5.6-.8,1-1,2.6-1.2,1.6-.7,1.7-1.9,2.2v.9l2.7-2.8,2.4-3.5.6-2,2.1-4.9Z" transform="translate(0 -5.2)"/><path class="cls-3" d="M761.8,414.1v1.4l-4.2,6.2-1.2.2,1.5.5v2l-.9,1.1-.6,6-2.3,6.2.5,2,.7,5.1-3.6.3-4-.7-1.7-.9-2.2,1.4v2.5l1.4,2.1-.5,4.3-2.1.6-1-1.1-.6-3.2-50.1,3.3-3.3-6-.7-2.2-1.5-1.5-.5-1.4.6-6.3-2.4-5.7.5-2.6.3-3.7,2.2-3.8-.2-1.1-1.7-1v-3.2l-1.8-1.9-2.9-6.1-12.9-45.8,22.9-2.9,21.4-3-.1,1.9-1.9,1-1.4,3.2.2,1.3,6.1,3.8,2.6-.3,3.1,4,.4,1.7,4.2,5.1,2.6,1.7,1.4.2,2.2,1.6,1.1,2.2,2,1.6,1.8.5,2.7,2.7.1,1.4,2.6,2.8,5,2.3,3.6,6.7.3,2.7,3.9,2.1,2.5,4.8.8,3.1,4.2.4Z" transform="translate(0 -5.2)"/><path class="cls-4" d="M317,553.7l-.2,3.2,1.7,1.9.1,1.2-4.8,4.5-.1,1.2,1.9,3.2,1.7,4.2v2.6l-.5,1.2.1,3.4,4.1,2.1,1.1,1.1,1.2-1.1,2.1-3.6,4.5-2.9,3.3-.5,2.5-1,1.7-1.2,3.2-3.5-2.8-1.1-1.4-1.4.1-1.7-.5-.6h-2l.2-2.5-.7-1.2-2.6-2.3-4.5-1.9-2.8-.2-3.3-2.7-1.2-.6Zm-15.3-17-1.1,1.5-.1,1.7,2.7,2.4,1.9.5.6,1,.4,3,3.6.2,5.3-2.6-.1-2.5-1.4-.5-3.5-2.6-1.8-.3-2.9,1.3-1.5-2.7Zm-1.5,11.5.9-1.4,2.5-.3.6,1.8Zm-7-8.7,1.7,4,3.1-.6.3-2-1.4-1.5Zm-4.1-6.7-1.1,2.4h5l4.8,1.6,2.5-1.6.2-1.5-4.8.2Zm-16-10.6-1.9,2.1-2.9.6.8,2.2,2.2,2.8.1,1,2.1-.3,2.3.1,1.7,1.2,3.5-.8v-.7l-1-.8-.5-2.1-.8-.3-.5,1-1.2-1.3.2-1.4-1.8-3.3-1.1-.7Zm-31.8-12.4-4.2,2.9.2,2.3,2.4,1.2,1.9,1.3,2.7.4,2.6-2.2-.2-1.9.8-1.7v-1.4l-1-.9Zm-10.8,4.8-.3,1.2-1.9.9-.6,1.8,1,.8,1.1-1.5,1.9-.6.4-2.6Z" transform="translate(0 -5.2)"/><path class="cls-1" d="M165.3,183.1l-24.4-5.4,8.5-37.3,2.9-5.8.4-2.1.8-.9-.9-2-2.9-1.2.2-4.2,4-5.8,2.5-.8,1.6-2.3-.1-1.6,1.8-1.6,3.2-5.5,4.2-4.8-.5-3.2-3.5-3.1-1.6-3.6,1.1-4.3-.7-4,12.7-56.1,14.2,3-4.8,22,3.7,7.4-1.6,4.8,3.6,4.8,1.9.7,3.9,8.3v2.1l2.3,3h.9l1.4,2.1h3.2v1.6l-7.1,17-.5,4.1,1.4.5,1.6,2.6,2.8-1.4,3.6-2.4,1.9,1.9.5,2.5-.5,3.2,2.5,9.7,2.6,3.5,2.3,1.4.4,3V137l2.3,2.3,1.6-2.3,6.9,1.6,2.1-1.2,9,1.7,2.8-3.3,1.8-.6,1.2,1.8,1.6,4.1.9.1L236.5,196l-47.9-8.2Z" transform="translate(0 -5.2)"/><path class="cls-5" d="M623.5,265.9l-1,5.2v2l2.4,3.5v.7l-.3.9.9,1.9-.3,2.4-1.6,1.8-1.3,4.2-3.8,5.3-.1,7h-1l.9,1.9v.9l-2.2,2.7.1,1.1,1.5,2.2-.1.9-3.7.6-.6,1.2-1.2-.6-1,.5-.4,3.3,1.7,1.8-.4,2.4-1.5.3-6.9-3-4,3.7.3,1.8h-2.8l-1.4-1.5-1.8-3.8v-1.9l.8-.6.1-1.3-1.7-1.9-.9-2.5-2.7-4.1-4.8-1.3-7.4-7.1-.4-2.4,2.8-7.6-.4-1.9,1.2-1.1v-1.3l-2.8-1.5-3-.7-3.4,1.2-1.3-2.3.6-1.9-.7-2.4-8.6-8.4-2.2-1.5-2.5-5.9-1.2-5.4,1.4-3.7.7-.7.1-2.3-.7-.9,1-1.5,1.8-.6.9-.3,1-1.2v-2.4l1.7-2.4.5-.5.1-3.5L563,232l-1-.3-1.1-1.6,1-4,3-.8h2.4l4.2-1.8,1.7-2.2.1-2.4,1.1-1.3,1.3-3.2-.1-2.6-2.8-3.5h-1.2l-.9-1.1.2-1.6-1.7-1.7-2.5-1.3.5-.6,45.9-2.8.1,4.6,3.4,4.6,1.2,4.1,1.6,3.2Z" transform="translate(0 -5.2)"/><path class="cls-2" d="M629.2,214.8l-5.1,2.3-4.7-1.4,4.1,50.2-1,5.2v2l2.4,3.5v.7l-.3.9.9,1.9-.3,2.4-1.6,1.8-1.3,4.2-3.8,5.3-.1,7h-1l.9,1.9,1.1.8.6-1-.7-1.7,4.6-.5.2,1.2,1.1.2.4-.9-.6-1.3.3-.8,1.3.8,1.7-.4,1.7.6,3.4,2.1,1.8-2.8,3.5-2.2,3,3.3,1.6-2.1.3-2.7,3.8-2.3.2,1.3,1.9,1.2,3-.2,1.2-.7.1-3.4,2.5-3.7,4.6-4.4-.1-1.7,1.2-3.8,2.2,1,6.7-4.5-.4-1.7-1.5-2.1,1-1.9-6.6-57.2-.1-1.4-32.4,3.4Z" transform="translate(0 -5.2)"/><path class="cls-2" d="M556.9,183l2.1,1.6.6,1.1L558,189l-.1,2.5,2,5.5,2.7,1.5,3.3.7,1.3,2.8-.5.6,2.5,1.3,1.7,1.7-.2,1.6.9,1.1h1.2l2.8,3.5.1,2.6-1.3,3.2-1.1,1.3-.1,2.4-1.7,2.2-4.2,1.8h-2.4l-3,.8-1,4,1.1,1.6,1,.3.9,1.4-.1,3.5-.5.5-1.7,2.4v2.4l-1,1.2-.9.3-1.8.6-1,1.5.7.9-.1,2.3-.7.7-1.5-.8-1.1-1.1-.6-1.6-1.7-1.3-14.3.8-27.2,1.2-25.9-.1-1.8-4.4.7-2.2-.8-3.3.2-2.9-1.3-.7-.4-6.1-2.8-5-.2-3.7-2.2-4.3-1.3-3.7v-1.4l-.6-1.7v-2.3l-.5-.9-.7-1.7-.3-1.3-1.3-1.2,1-4.3,1.7-5.1-.7-2-1.3-.4-.4-1.6,1-.5.1-1.1-1.3-1.5.1-1.6,2.2.1h28.2l36.3-.9,18.6-.7Z" transform="translate(0 -5.2)"/><path class="cls-2" d="M459.1,259.5l-43.7-1.2-36-2-4.8,67,67.7,2.9,62,.1-.5-48.1-3.2-.7-2.6-4.7-2.5-2.5.5-2.3,2.7-2.6.1-1.2-1.5-2.1-.9,1-2-.6-2.9-3Z" transform="translate(0 -5.2)"/><path class="cls-1" d="M692.1,322.5l-20.5,1.4-5.2.8-17.4,1-2.6.8-22.6,2-.7-.6h-3.7l1.2,3.2-.6.9-23.3,1.5,1-2.7,1.4.9.7-.4,1.2-4.1-1-1,1-2,.2-.9-1.3-.8-.3-1.8,4-3.7,6.9,3,1.5-.3.4-2.4-1.7-1.8.4-3.3,1-.5,1.2.6.6-1.2,3.7-.6.1-.9-1.5-2.2-.1-1.1,2.2-2.7v-.9l1.1.8.6-1-.7-1.7,4.6-.5.2,1.2,1.1.2.4-.9-.6-1.3.3-.8,1.3.8,1.7-.4,1.7.6,3.4,2.1,1.8-2.8,3.5-2.2,3,3.3,1.6-2.1.3-2.7,3.8-2.3.2,1.3,1.9,1.2,3-.2,1.2-.7.1-3.4,2.5-3.7,4.6-4.4-.1-1.7,1.2-3.8,2.2,1,6.7-4.5-.4-1.7-1.5-2.1,1-1.9,1.3.5,2.2.1,1.9-.8,2.9,1.2,2.2,3.4v1l4.1.7,2.3-.2,1.9,2.1,2.2.2v-1l1.9-.8,3,.8,1.2.8,1.3-.7h.9l.6-1.7,3.4-1.8.5.8.8,2.9,3.5,1.4,1.2,2.1-.1,1.1.6,1-.6,3.6,1.9,1.6.8,1.1,1,.6-.1.9,4.4,5.6h1.4l1.5,1.8,1.2.3,1.4-.1-4.9,6.6-2.9,1-3,3-.4,2.2-2.1,1.3-.1,1.7-1.4,1.4-1.8.5-.5,1.9-1,.4-6.9,4.2Zm-98,11.3-.7-.7.2-1h1.1l.7.7-.3,1Z" transform="translate(0 -5.2)"/><path class="cls-2" d="M602.5,472.8l-1.2-1.8.3-1.3-4.8-6.8.9-4.6,1-1.4.1-1.4-36,2,1.7-11.9,2.4-4.8,6-8.4-1.8-2.5h2v-3.3l-2.4-2.5.5-1.7-1.2-1-1.6-7.1.6-1.4-52.3,1.3.5,19.9.7,3.4,2.6,2.8.7,5.4,3.8,4.6.8,4.3h1l-.1,7.3-3.3,6.4,1.3,2.3-1.3,1.5.7,3-.1,4.3-2.2,3.5-.1.8-1.7,1.2,1,1.8,1.2,1.1,1.6-1.3,5.3-.9,6.1-.1,9.6,3.8,8,1,1.5-1.4,1.8-.2,4.8,2.2,1.6-.4,1.1-1.5-4.2-1.8-2.2,1-1.1-.2-1.4-2,3.3-2.2,1.6-.1v1.7l1.5-.1,3.4-.3.4,2.3,1.1.4.6,1.9,4.8,1,1.7,1.6v.7h-1.2l-1.5,1.7,1.7,1.2,5.4,1,2.7,2.8,4.4-1-3.7.2-.1-.6,2.8-.7.2-1.8,1.2-.3V494l1.1.1v1.6l2.5.1.8-1.9.9.3.2,2.5,1.2.2-1.8,2,2.6-.9,2-1.1,2.9-3.3h-.7l-1.3,1.2-.4-.1-.5-.8.9-1.2v-2.3l1.1-.8.7.7,1-.8,1-.1.6,1.3-.6,1.9h2.4l5.1,1.7.5,1.3,1.6,1.4,2.8.1,1.3.7,1.8-1,.9-1.7v-1.7h-1.4L613,492l-1.1-1.1-3.2-.9-2.6.2-4.2-2.4v-2.3l1.3-1,2.4.6-3.1-1.6.2-.8h3.6l2.6-3.5-2.6-1.8.8-1.5-1.2-.8h-.8l-2,2.1v2.1l-.6.7-1.1-.1-1.6-1.4h-1.3V477l.6-.7.8.7,1.7-1.6.7-1.6.8-.3Zm-10.3-2.7,1.9,1,.8,1.1,2.5.1,1.5.8.2,1.4-.4.6-.9-1.5-1.4,1.2-.9,1.4-2.8.8-1.6.1-3.7-1,.1-1.7,2-2,1.1-2.4Zm-4.7,1.2v1.1l-1.8,2h-1.2v-2.2l1.6-1.5Z" transform="translate(0 -5.2)"/><path class="cls-5" d="M875,128.7l.6,4,3.2,2,.8,2.2,2.3,1.4,1.4-.3,1-3-.8-2.9,1.6-.9.5-2.8-.6-1.3,3.3-1.9-2.2-2.3.9-2.4,1.4-2.2.5,3.2,1.6-2,1.3.9,1.2-.8v-1.7l3.2-1.3.3-2.9,2.5-.2,2.7-3.7v-.7l-.9-.5-.1-3.3.6-1.1.2,1.6,1-.5-.2-3.2-.9.3-.1,1.2-1.2-1.4.9-1.4.6.1,1.1-.4.5,2.8,2-.3,2.9.7v-1l-1.1-1.2,1.3.1.1-2.3.6.8.3,1.9,2.1,1.5.2-1,.9-.2-.3-.8.8-.6-.1-1.6-1.6-.2-2,.7,1.4-1.6.7-.8,1.3-.2.4,1.3,1.7,1.6.4-2.1,2.3-1.2-.9-1.3.1-1.7,1.1.5h.7l1.7-1.4.4-2.3,2.2.3.1-.7.2-1.6.5,1.4,1.5-1,2.3-4.1-.1-2.2-1.4-2-3-3.2H921l-.8,2.2-2.9-3,.3-.8V74.4L916,69.9l-.8-.2-.7.4h-4.8l-.3-3.6-8.1-26L894,36.8l-2.9-.1-6.7,6.6-2.7-1-1-3.9H878l-6.9,19.5.7,6.2-1.7,2.4-.4,4.6,1.3,3.7.8.2v1.6l-1.6,4.5-1.5,1.4-1.3,2.2-.4,7.8-2.4-1-1.5.4ZM909.6,104l-1,.8v1.3l.7-.8.9.8.4-.5,1.1.2-1-.8.4-.8Zm-1.7,2.6-1,1.1.5.4-.1,1h1.1v-1.8Zm-3-1.6.9,1.3,1,.5.3-1V104l-1.3-.7-.4,1.2Zm-1,5-1.7-1.7,1.6-2.4.8.3.2,1.1,1,.8v1.1l-1,1Z" transform="translate(0 -5.2)"/><path class="cls-4" d="M822.9,269.3v-1.7h-.8v1.8Zm11.8-3.9,1.2-2.2.1-2.5-.6-.6-.7.9-.2,2.1-.8,1.4-.3,1.1-4.6,1.6-.7.8-1.3.2-.4.9-1.3.6-.3-2.5.4-.7-.8-.5.2-1.5-1.6,1v-2l1.2-.3-1.9-.4-.7-.8.4-1.3-.8-.6-.7,1.6.5.8-.7.6-1.1.5-2-1-.2-1.2-1-1.1-1.4-1.7,1.5-.8-1-.6v-.9l.6-1,1.7-.3-1.4-.6-.1-.7-1.3-.1-.4,1.1-.6.3.1-3.4,1-1,.8.7.1-1.6-1-.9-.9,1.1-1,1.4-.6-1,.2-2.4.9-1,.9.9,1.2-.7-.4-1.7-1,1-.9-2.1-.2-1.7,1.1-2.4,1.1-1.4,1.4-.2-.5-.8.5-.6-.3-.7.2-2.1-1.5.4-.8,1.1,1,1.3-2.6,3.6-.9-.4-.7.9-.6,2.2-1.8.5,1.3.6,1.3,1.3-.2.7.9,1.2-1.1,1,.5.3-.5,1.3v2.1l-.5,1.3.9,1.1.7,3.4,1.3,1.4,1.6,1.4.4,2.8,1.6,2,.4,1.4v1h-.7l-1.5-1.2-.4.2-1.2-.2-1.7-1.4-1.4-.3-1,.5-1.2-.3-.4.2-1.7-.8-1-1-1-1.3-.6-.2-.8.7-1.6,1.3-1.1-.8-.4-2.3.8-2.1-.3-.5.3-.4-.7-1,1-.1,1-.9.4-1.8,1.7-2.6-2.6-1.8-1,1.7-.6-.6h-1l-.6-.1-.4-.4.1-.5-1.7-.6-.8.3-1.2-.1-.7-.7-.5-.2-.2-.7.6-.8v-.9l-1.2-.2-1-.9-.9.1-1.6-.3-.9-.4.2-1.6-1-.5-.2-.7h-.7l-.8-1.2.2-1-2.6.4-2.2-1.6-1.4.3-.9,1.4h-1.3l-1.7,2.9-3.3.4-1.9-1-2.6,3.8-2.2-.3-3.1,3.9-.9,1.6-1.8,1.6-1.7-11.4,60.5-11.8,7.6,27.1,10.9-2.3v5.3l-.1,3.1-1,1.8Zm-13.4-1.8-1.3.9.8,1.8,1.7.8-.4-1.6Z" transform="translate(0 -5.2)"/><path class="cls-4" d="M899.9,174.2h3.4l.9-.6.1-1.3-1.9-1.8.4,1-1.5,1.5H899l.1.8Zm-9,1.8-1.2-.6,1-.8.6-2.1,1.2-1,.8-.2.6.9,1.1.2.6-.6.5,1.9-1.3.3-2.8.7ZM856,152.6l18.4-3.8,1-1.5.3-1.7,1.9-.6.5-1.1,1.7-1.1,1.3.3,1.7,3.3,1,.4,1.1-1.3.8,1.3v1.1l-3,2.4.2.8-.9,1,.4.8-1.3.3.9,1.2-.8.7.6,1,.9-.2.3-.8,1.1.6h1.8l2.5,2.6.2,2.6,1.8.1.8,1.1.6,2,1,.7h1.9l1.9-.1.8-.9,1.6-1.2,1.1-.3-1.2-2.1-.3.9-1.5-3.6h-.8l-.4.9-1.2-1,1.3-1.1,1.8.4,2.3,2.1,1.3,2.7,1.2,3.3-1,2.8v-1.8l-.7-1-3.5,2.3-.9-.3-1.6,1-.1,1.2-2.2,1.2-2,2.1-2,1.9h-1.2l3.3-3.3.5-1.9-.5-.6-.3-1.3-.9-.1-.1,1.3-1,1.2h-1.2l-.3,1.1.4,1.2-1.2,1.1-1.1-.2-.4,1-1.4-3-1.3-1.1-2.6-1.3-.6-2.2h-.8l-.7-2.6-6.5,2-.1-.3-14.9,3.4v.7l-.9.3-.5-.7-10.5,2.4-.7-1,.5-15Z" transform="translate(0 -5.2)"/><path class="cls-5" d="M663.3,209.8l.1,1.4,21.4-3.5.5-1.2,3.9-5.9v-4.3l.8-2.1,2.2-.8,2-7.8,1-.5,1,.6-.2.6-1.1.8.3.9.8.4,1.9-1.4.4-9.8-1.6-2.3-1.2-3.7v-2.5l-2.3-4.4v-1.8l-1.2-3.3-2.3-3-2.9-1-4.8,3-2.5,4.6-.2.9-3,3.5-1.5-.2-2.9-2.8-.1-3.4,1.5-1.9,2-.2,1.2-1.7.2-4,.8-.8,1.1-.1.9-1.7-.2-9.6-.3-1.3-1.2-1.2-1.7-1-.1-1.8.7-.6,1.8.8-.3-1.7-1.9-2.7-.7-1.6-1.1-1.1h-2.2l-8.1-2.9-1.4-1.7-3.1-.3-1.2.3-4.4-2.3h-1.4l.5,1-2.7-.1.1.6.6.6-2.5,2.1.1,1.8,1.5,2.3,1.5.2v.6l-1.5.5-2.1-.1-2.8,2.5.1,2.5.4,5.8-2.2,3.4.8-4.5-.8-.6-.9,5.3-1-2.3.5-2.3-.5-1,.6-1.3-.6-1.1,1-1v-1.2l-1.3.6-1.3,3.1-.7.7-1.3,2.4-1.7-.2-.1,1.2h-1.6l.2,1.5.2,2-3,1.2.1,1.3,1,1.7-.1,5.2-1.3,4.4-1.7,2.5,1.2,1.4.8,3.5-1,2.5-.2,2.1,1.7,3.4,2.5,4.9,1.2,1.9,1.6,6.9-.1,8.8-.9,3.9-2,3.2-.9,3.7-2,3-1.2,1ZM567.5,113l3,3.8,17,3.8,1.4,1,4,.8.7.5,2.8-.2,4.9.8,1.4,1.5-1,1,.8.8,3.8.7,1.2,1.2.1,4.4-1.3,2.8,2,.1,1-.8.9.8-1.1,3.1,1,1.6,1.2.3.8-1.8,2.9-4.6,1.6-6,2.3-2-.5-1.6.5-.9,1,1.6-.3,2.2,2.9-2.2.2-2.3,2.1.6.8-1.6.7.6-.7,1.5-1,.5-1,2,1.4,1.8,1.1-.5-.5-.7,1-1.5,1.9-1.7h.8l.2-2.6,2-1.8,7.9-.5,1.9-3.1,3.8-.3,3.8,1.2,4.2,2.7.7-.2-.2-3.5.7-.2,4.5,1.1,1.5-.2,2.9-.7,1.7.4,1.8.1v-1.1l-.7-.9-1.5-.2-1.1-.8.5-1.4-.8-.3-2.6.1-.1-1,1.1-.8.6.8.5-1.8-.7-.7.7-.2-1.4-1.3.3-1.3.1-1.9h-1.3l-1.5,1-1.9.1-.5,1.8-1.9.2-.3-1.2-2.2.1-1,1.2-.7-.1-.2-.8-2.6.4-.1-4.8,1-2-.7-.1-1.8,1.1h-2.2l-3.8,2.7-6.2.3-4.1.8-1.9,1.5-1.4,1.3-2.5,1.7-.3.8-.6-1.7-1.3-.6v.6l.7.7v1.3l-1.5-.6h-.6l-.3,1.2-2-1.9-1.3-.2-1.3,1.5-3.2-.1-.5-1.4-2-1.9-1.3-1.6v-.7l-1.1-1.4-2.6-1.2-3.3-.1-1.1-.9h-1.4l-.7.4-2.2,2.2-.7,1.1-1-.7.2-1,.8-2.1,3.2-5,.8-.2,1.7-1.9.7-1.6,3-.6.8-.6-.1-1-.5-.5-4.5.2-2,.5-2.6,1.2-1.2,1.2-1.7,2.2-1.8,1-3.3,3.4-.4,1.6-7.4,4.6-4,.5-1.8.4-2.3,3-1.8.7-4.4,2.3Zm100.7,3.8,3.8.1.6-.5-.2-2-1.7-1.8-1.9.1-.1.5,1.1.4-1.6.8-.3,1-.6-.6-.4.8ZM593.1,74.9l-2.3.2L588.1,77,581,82.3l.8,1,1.8.3,2.8-2-1.1-.5,2.3-1.6h1l3-1.9-.1-.9Zm41.1,62.8v1l2.1,1.6-.2-2.4Zm-.7,2.8,1.1.1v.9h-1Zm21.4-21.3v.9l.8-.2v-.5Zm4.7,3.1-.1-1.1-1.6-.2-.6-.4h-.9l-.4.3.9.4,1.1,1.1Zm-18,1.2-.1,1.1-.3.7.2,2.2.4.3.7.1.5-.9.1-1.6-.3-.6-.1-1.1Z" transform="translate(0 -5.2)"/><path class="cls-5" d="M464.7,68.6l-1.1,2.8.8,1.4-.3,5.1-.5,1.1,2.7,9.1,1.3,2.5.7,14,1,2.7-.4,5.8,2.9,7.4.3,5.8-.1,2.1-.1,2.2-.9,2-3.1,1.9-.3,1.2,1.7,2.5.4,1.8,2.6.6,1.5,1.9-.2,39.5h28.2l36.3-.9,18.6-.7-1.1-4.5-.2-3-2.2-3-2.8-.7-5.2-3.6-.6-3.3-6.3-3.1-.2-1.3h-3.3l-2.2-2.6-2-1.3.7-5.1-.9-1.6.5-5.4,1-1.8-.3-2.7-1.2-1.3-1.8-.3v-1.7l2.8-5.8,5.9-3.9-.4-13,.9.4.6-.5.1-1.1.9-.6,1.4,1.2.7-.1h0l-1.2-2.2,4.3-3.1,3.1-3.7,1.6-.8L554,95l6.3-5.8,3.9-2.1,6.3-2.7,7.6-4.5-.6-.4-3.7.7-2.8.1-1-1.6-1.4-.9L558.8,79l-1-2.8-1.6-.1-1.7.8L550.8,80h-4.1l-2.1-1-.3-1.7-3.9-.8-.6-1.6-.7-1.3-1,.9-2.6.1-9.9-5.5h-2.9l-.8-.7-3.1,1.3L518,71l-3.3.8-1.3-.2V69.9l-.7-.9h-5.9l-.4-1.4h-2.6l-1.1.4-2.4-1.7.3-1.4-.6-2.4-.7-1.1-.2-3-1-3.1L496,53.7h-2.9l.1,8-30.9-.4Z" transform="translate(0 -5.2)"/><path class="cls-2" d="M623.8,468.6l-5,.1-2.4-1.5-7.9,2.5-.9-.7-.5.2-.1,1.6-.6.1-2.6,2.7-.7-.1-.6-.7-1.2-1.8.3-1.3-4.8-6.8.9-4.6,1-1.4.1-1.4-36,2,1.7-11.9,2.4-4.8,6-8.4-1.8-2.5h2v-3.3l-2.4-2.5.5-1.7-1.2-1-1.6-7.1.6-1.4,1.2-1.5.5-3-1.5-2.3-.5-2.2.9-.7v-.8l-1.7-1.1-.1-.7,1.6-.9-1.2-1.1,1.7-7.1,3.4-1.6v-.8l-1.1-1.4,2.9-5.4H577l1.5-1.2-.3-5.2,3.1-4.5,1.8-.6-.5-3.1,38.3-2.6,1.3,2-1.3,67,4.4,33.2Z" transform="translate(0 -5.2)"/><path class="cls-2" d="M555.3,248.9l-1.1-1.1-.6-1.6-1.7-1.3-14.3.8-27.2,1.2-25.9-.1,1.3,1.3-.3,1.4,2.1,3.7,3.9,6.3,2.9,3,2,.6.9-1,1.5,2.1-.1,1.2L496,268l-.5,2.3,2.5,2.5,2.6,4.7,3.2.7.5,48.1.2,10.8,39.1-.7,39.8-2,1.6,2.5v2.2l-1.7,1.5-2.8,5.1,11.2-.8,1-2,1.2-.5v-.7l-1.2-1.1-.6-1,1.7.2.8-.7-1.4-1.5,1.4-.5.1-1-.6-1v-1.3l-.7-.7.2-1h1.1l.7.7-.3,1,.8.7.8-1,1-2.7,1.4.9.7-.4,1.2-4.1-1-1,1-2,.2-.9-1.3-.8h-2.8l-1.4-1.5-1.8-3.8v-1.9l.8-.6.1-1.3-1.7-1.9-.9-2.5-2.7-4.1-4.8-1.3-7.4-7.1-.4-2.4,2.8-7.6-.4-1.9,1.2-1.1v-1.3l-2.8-1.5-3-.7-3.4,1.2-1.3-2.3.6-1.9-.7-2.4-8.6-8.4-2.2-1.5-2.5-5.9-1.2-5.4,1.4-3.7Z" transform="translate(0 -5.2)"/><path class="cls-2" d="M247,130.5l57.3,7.9,51,5.3,2-20.7,5.2-66.7L309,50.7,254.7,43,188.8,30.5l-4.8,22,3.7,7.4-1.6,4.8,3.6,4.8,1.9.7,3.9,8.3v2.1l2.3,3h.9l1.4,2.1h3.2v1.6l-7.1,17-.5,4.1,1.4.5,1.6,2.6,2.8-1.4,3.6-2.4,1.9,1.9.5,2.5-.5,3.2,2.5,9.7,2.6,3.5,2.3,1.4.4,3V137l2.3,2.3,1.6-2.3,6.9,1.6,2.1-1.2,9,1.7,2.8-3.3,1.8-.6,1.2,1.8,1.6,4.1.9.1Z" transform="translate(0 -5.2)"/><path class="cls-2" d="M402.5,191.1l38,1.6,3.4,3.2,1.7.2,2.1,2,1.8-.1,1.8-2,1.5.6,1-.7.7.5.9-.4.7.4.9-.4,1,.5,1.4-.6,2,.6.6,1.1,6.1,2.2,1.2,1.3.9,2.6,1.8.7,1.5-.2.5.9v2.3l.6,1.7v1.4l1.3,3.7,2.2,4.3.2,3.7,2.8,5,.4,6.1,1.3.7-.2,2.9.8,3.3-.7,2.2,1.8,4.4,1.3,1.3-.3,1.4,2.1,3.7,3.9,6.3H459.1l-43.7-1.2-36-2,1.4-22.1-33.1-2.4,3.7-44.2Z" transform="translate(0 -5.2)"/><path class="cls-5" d="M167.6,296.8l-3.4,17.5-2.4,2.9h-2l-1.2-2.7-3.7-1.4-3.5.6-1,13.6.5,4.9-.5,2.9-1.4,3-70.4-105-1.1-3.5,16.4-63.1,47,11.2,24.4,5.4,23.3,4.7Z" transform="translate(0 -5.2)"/><path class="cls-5" d="M862.6,93.6l-1.3.1-1-1.1L858.4,94l-.5,6.1,1.2,2.3-1.1,3.5,2.1,2.8-.4,1.7.1,1.3-1.1,2.1-1.4.4-.6,1.3-2.1,1-.7,1.5,1.4,3.4-.5,2.5.5,1.5-1,1.9.4,1.9-1.3,1.9.2,2.2-.7,1.1.7,4.5.7,1.5-.5,2.6.9,1.8-.2,2.5-.5,1.3-.1,1.4,2.1,2.6,18.4-3.8,1-1.5.3-1.7,1.9-.6.5-1.1,1.7-1.1,1.3.3.8-4.8-2.3-1.4-.8-2.2-3.2-2-.6-4L863.1,91.9Z" transform="translate(0 -5.2)"/><path class="cls-5" d="M842.5,195.4l-14.6-4.9-1.8,2.5.1,2.2-3,5.4,1.5,1.8-.7,2-1,1,.5,3.6,2.7.9,1,2.8,2.1,1.1,4.2,3.2-3.3,2.6-1.6,2.3-1.8,3-1.6.6-1.4,1.7-1,2.2-.3,2.1.8.9.4,2.3,1.2.6,2.4,1.5,1.8.8,1.6.8.1,1.1.8.1,1.1-1.2.8.4,2.1.2-.2,2.9.2,2.5,1.8-.7,1.5-3.9,1.6-4.8,2.9-2.8.6-3.5-.6-1.2,1.7-2.9v-1.2l-.7-1.1,1.2-2.7-.3-3.6-.6-8.2-1.2-1.4v1.4l.5.6h-1.1l-.6-.4-1.3-.2-.9.6-1.2-1.6.7-1.7v-1l1.7-.7.8-2.1Z" transform="translate(0 -5.2)"/><path class="cls-5" d="M357.5,332.9h-.8l-7.9,99.3L317,429.6,282.6,426l-.3,3,2,2.2-30.8-4.1-1.4,10.2-15.7-2.2L253.8,311l52.6,6.5,51.7,4.8Z" transform="translate(0 -5.2)"/><path class="cls-4" d="M872.9,181.6l-1.3.1-.5,1Zm-30.6,22.7.7.6,1.3-.3,1.1.3.9-1.3h1.9l2.4-.9,5.1-2.1-.5-.5-1.9.8-2,.9.2-.8,2.6-1.1.8-1,1.2.1,4.1-2.3v.7l-4.2,3,4.5-2.8,1.7-2.2,1.5-.1,4.5-3.1,3.2-3.1,3-2.3,1-1.2-1.7-.1-1,1.2-.2.7-.9.7-.8-1.1-1.7,1-.1.9-.9-.2.5-.9-1.2-.7-.6.9.9.3.2.5-.3.5-1.4,2.6h-1.9l.9-1.8.9-.6.3-1.7,1.4-1.6.9-.8,1.5-.7-1.2-.2-.7.9h-.7l-1.1.8-.2,1-2.2,2.1-.4.9-1.4.9-7.7,1.9.2.9-.9.7-2,.3-1-.6-.2,1.1-1.1-.4.1,1-1.2-.1-1.2.5-.2,1.1h-1l.2,1h-.7l.2,1-1.8.4-1.5,2.3Zm-.8-.4-1.6.4v1l-.7,1.6.6.7,2.4-2.3-.1-.9Zm-10.1-95.2-.6,1.9,1.4.9-.4,1.5.5,3.2,2.2,2.3-.4,2.2.6,2-.4,1-.3,3.8,3.1,6.7-.8,1.8.9,2.2.9-1.6,1.9,1.5,3,14.2-.5,2,1.1,1-.5,15,.7,1,2.8,16.3,1.8,1.5-3.5,3.4,1.7,2.2-1.3,3.3-1.5,1.7-1.5,2.3-.2-.7.4-5.9-14.6-4.9-1.6-1.1-1.9.3-3-2.2-3-5.8h-2l-.4-1.5-1.7-1.1L743.8,193l-.8-6,4.3-3.9.6-1.7,3.9-2.5.6-2.4,2.3-2,.8-1.1-1.7-3.3-1.7-.5-1.8-3-.2-3.2,7.6-3.9,8.2-1.6h4.4l3.2,1.6.9-.1,1.8-1.6,3.4-.7h3l2.6-1.3,2.5-2.6,2.4-3.1,1.9-.4,1.1-.5.4-3.2-1.4-2.7-1.2-.7,2-1.3-.1-1.8h-1.5l-2.3-1.4-.1-3.1,6.2-6.1.7-2.4,3.7-6.3,5.9-6.4,2.1-1.7,2.5.1,20.6-5.2Z" transform="translate(0 -5.2)"/><path class="cls-6" d="M829,300.1l-29.1,6.1-39.4,7.3L731.1,317v5.2l-1.5-.1-1.4,1.2-2.4,5.2-2.6-1.1-3.5,2.5L719,332l-1.5,1.2-.8-.8-.1-1.5-.8-.2-4,3.3-.6,3.4-4.7,2.4L706,341l-3.2,2.6-3.6.5-4.6,3-.8,4.1-1.3.9L691,352l-1.4,1.3-.1,4.9,21.4-3,4.4-1.9,1.3-.1,7.3-4.3,23.2-2.2.4.5-.2,1.4.7.3,1.2-1.5,3.3,3,.1,2.6,19.7-2.8,24.5,17.1,4-2.2,3-.7h1.7l1.1,1.1.8-2,.6-5,1.7-3.9,5.4-6.1,4.1-3.5,5.4-2.3,2.5-.4,1.3.4.7,1.1,3.3-6.6,3.3-5.3-.7-.3-4.4,6.8-.5-.8,2-2.2-.4-1.5-2-.5,1,1.3-1.2.1-1.2-1.8-1.2,2-1.6.2,1-2.7.7-1.7-.2-2.9-2.2-.1.9-.9,1.1.3,2.7.1.8-.5h2.3l2-1.9.2-3.2,1.3-1.4,1.2-.2,1.3-1-.5-3.7-2.2-3.8-2.7-.2-.9,1.6-.5-1-2.7.2-1.2.4-1.9,1.2-.3-.4h-.9l-1.8,1.2-2.6.5v-1.3l.8-1,1,.7h1l1.7-2.1,3.7-1.7,2-2.2H833l.8,1.3,1.7.8-.5-1.5-.3-1.6-2.8-3.1-.3-1.4-.4,1-.9-1.3Zm7,31,2.7-2.5,4.6-3.3v-3.7l-.4-3.1-1.7-4.2,1.5,1.4,1,3.2.4,7.6-1.7.4-3.1,2.4-3.2,3.2Zm1.9-19.3-.9-.2v1l2.5,2.2-.2-1.4Zm2.9,2.1-1.4-2.8-2.2-3.4-2.4-3-2.2-4.3-.8-.7L834,304l.3,1.3,3.4,5.5,1.8,2.1Z" transform="translate(0 -5.2)"/><path class="cls-1" d="M464.7,68.6l-1.1,2.8.8,1.4-.3,5.1-.5,1.1,2.7,9.1,1.3,2.5.7,14,1,2.7-.4,5.8,2.9,7.4.3,5.8-.1,2.1-29.5-.4-46-2.1L357.3,123l5.2-66.7L407,59.7l55.3,1.6Z" transform="translate(0 -5.2)"/><path class="cls-2" d="M685.7,208.8l1.9-.4,3,1.3,2.1.6.7.9h1l1-1.5,1.3.8h1.5l-.1,1-3.1.5-2,1.1,1.9.8,1.6-1.5,2.4-.4,2.2,1.5,1.5-.1,2.5-1.7,3.6-2.1,5.2-.3,4.9-5.9,3.8-3.1,9.3-5.1,4.9,29.9-2.2,1.2,1.4,2.1-.1,2.2.6,2-1.1,3.4-.1,5.4-1,3.6.5,1.1-.4,2.2-1.1.5-2,3.3-1.8,2h-.6l-1.8,1.7-1.3-1.2-1.5,1.8-.3,1.2h-1.3l-1.3,2.2.1,2.1-1,.5,1.4,1.1v1.9l-1,.2-.7.8-1,.5-.6-2.1-1.6-.5-1,2.3-.3,2.2-1.1,1.3,1.3,3.6-1.5.8L714,278h-1.5l-3.2,1.4-1.2-2.1-3.5-1.4-.8-2.9-.5-.8-3.4,1.8-.6,1.7h-.9l-1.3.7-1.2-.8-3-.8-1.9.8v1l-2.2-.2-1.9-2.1-2.3.2-4.1-.7v-1l-2.2-3.4-2.9-1.2-1.9.8-2.2-.1-1.3-.5-6.6-57.2,21.4-3.5Z" transform="translate(0 -5.2)"/><path class="cls-1" d="M501.5,398.6l-4.6-3.8-2.2-.9-.5,1.6-5.1.3-.6-1.5-5,2.5-1.6-.7-3.7.3-.6,1.7-3.6.9-1.3-1.2-1.2.1-2-1.8-2.1.7-2-.5-1.8-2-2.5,4.2-1.2.8-1-1.8.3-2-1.2-.7-2.3,2.5-1.7-1.2-.1-1.5-1.3.5-2.6-1.7-3,2.6-2.3-1.1.7-2.1-2.3.1-1.9-3-3.5-1.1-2,2.3-2.3-2.2-1.4.4-2,.1-3.5-1.9-2.3.1-1.2-.7-.5-2.9-2.3-1.7-1.1,1.5-1.4-1-1.2-.4-1.1,1-1.5-.3-2.5-3-2.7-1.3,1.4-42.7-52.6-3.2.6-10.6,16.5,1,67.7,2.9,62,.1.2,10.8,4.1,24.4-.7,39Z" transform="translate(0 -5.2)"/><path class="cls-5" d="M93.9,166.5l47,11.2,8.5-37.3,2.9-5.8.4-2.1.8-.9-.9-2-2.9-1.2.2-4.2,4-5.8,2.5-.8,1.6-2.3-.1-1.6,1.8-1.6,3.2-5.5,4.2-4.8-.5-3.2-3.5-3.1-1.6-3.6-30.3-7.3-2.8,1-5.4-.9-1.8-.9L119.7,85l-3.3-.4-4.5.5-.9.7-4.2-.4-.8-1.6-1.2-.2-4.4,1.3-1.6-1.1-2.2.8-.2-1.8-2.3-1.2-1.5-.2-1-1.1-3,.3-1.2-.8H86.2l-1.2.9-5.5.7-6.6-4.2L74,71.6l-.4-4.1-3.2-3.7-3.7.1-.4-1.1.4-1.2-.7-.8-1,.1-1.1,1.3L62.4,62l-.5-1.1-1-.1-.7.6-2-1.9v4.3l-1.3,1.3-1.1,3.5-.1,2.3L51.2,83.2,38,114.5l-3.2,4.6-1.6-.1.1,2.1-5.2,7.1-.3,3.3,1,1.3.1,2.4-1.2,1.1-1.2,3,.1,5.7,1.2,2.9Z" transform="translate(0 -5.2)"/><path class="cls-5" d="M826.3,189.4l-1.9.3-3-2.2-3-5.8h-2l-.4-1.5-1.7-1.1L743.8,193l-.8-6-4.2,3.4-.9.1-2.7,3-3.3,1.7,4.9,29.9,3.2,19.7,17.4-2.9,60.5-11.8,1.2-2.1,1.5-1.1,1.6-.3,1.6.6,1.4-1.7,1.6-.6,1.8-3,1.6-2.3,3.3-2.6-4.2-3.2-2.1-1.1-1-2.8-2.7-.9-.5-3.6,1-1,.7-2-1.5-1.8,3-5.4-.1-2.2,1.8-2.5Z" transform="translate(0 -5.2)"/><path class="cls-5" d="M883.2,170.7l-1.3-1.1-2.6-1.3-.6-2.2h-.8l-.7-2.6-6.5,2,3.2,12.3-.4,1.1.4,1.8,5.6-3.6.1-3-.8-.8.4-.6-.1-1.3-.9-.7,1.2-.4-.9-1.6,1.8.7.3,1.4.7,1.2-1.4-.8,1.1,1.7-.3,1.2-.6-1.1v2.5l.6-.9.4.9,1.3-1.5-.2-2.5,1.4,3.1,1-.9Zm-4.7,12.2h.9l.5-.6-.8-1.3-.7.7Z" transform="translate(0 -5.2)"/><path class="cls-2" d="M772.3,350.2,752.6,353l-.1-2.6-3.3-3-1.2,1.5-.7-.3.2-1.4-.4-.5-23.2,2.2-7.3,4.3-1.3.1-4.4,1.9-.1,1.9-1.9,1-1.4,3.2.2,1.3,6.1,3.8,2.6-.3,3.1,4,.4,1.7,4.2,5.1,2.6,1.7,1.4.2,2.2,1.6,1.1,2.2,2,1.6,1.8.5,2.7,2.7.1,1.4,2.6,2.8,5,2.3,3.6,6.7.3,2.7,3.9,2.1,2.5,4.8.8,3.1,4.2.4.8-1.5h.6l1.8-1.5.5-2,3.2-2.1.3-2.4-1.2-.9.8-.7.8.4,1.3-.4,1.8-2.1,3.8-1.8,1.6-2.4.1-.7,4.8-4.4-.1-.5-.9-.8,1.1-1.5h.8l.4.5.7-.8h1.3l.6-1.5,2.3-2.1-.3-5.4.8-2.3,3.6-6.2,2.4-2.2,2.2-1.1Z" transform="translate(0 -5.2)"/><path class="cls-1" d="M396.5,125.9l46,2.1,29.5.4-.1,2.2-.9,2-3.1,1.9-.3,1.2,1.7,2.5.4,1.8,2.6.6,1.5,1.9-.2,39.5-2.2-.1-.1,1.6,1.3,1.5-.1,1.1-1,.5.4,1.6,1.3.4.7,2-1.7,5.1-1,4.3,1.3,1.2.3,1.3.7,1.7-1.5.2-1.8-.7-.9-2.6-1.2-1.3-6.1-2.2-.6-1.1-2-.6-1.4.6-1-.5-.9.4-.7-.4-.9.4-.7-.5-1,.7-1.5-.6-1.8,2-1.8.1-2.1-2-1.7-.2-3.4-3.2-38-1.6-51.1-3.5,3.9-43.9,2-20.7Z" transform="translate(0 -5.2)"/><path class="cls-1" d="M620.9,365.1l45.7-4,22.9-2.9.1-4.9L691,352l1.5.1,1.3-.9.8-4.1,4.6-3,3.6-.5L706,341l.5-1.2,4.7-2.4.6-3.4,4-3.3.8.2.1,1.5.8.8L719,332l.7-2.1,3.5-2.5,2.6,1.1,2.4-5.2,1.4-1.2,1.5.1V317l.3-.7-4.6.5-.2,1-28.9,3.3-5.6,1.4-20.5,1.4-5.2.8-17.4,1-2.6.8-22.6,2-.7-.6h-3.7l1.2,3.2-.6.9-23.3,1.5-.8,1-.8-.7h-1v1.3l.6,1-.1,1-1.4.5,1.4,1.5-.8.7-1.7-.2.6,1,1.2,1.1v.7l-1.2.5-1,2,.1.6,1.4,1-.4.7h-1.5v.5l.9.9.1.8-1.4.2-.5.8-1.6.2-.9.9.6.9,1.1-.1.5.9-1.6,1.3.4,1.5-2-.6-.1.7.4,1.1-.3,1.4-1.3-.8-.8.8,1.1.1.1,1.5-.6,1,1.1.9-.3,1.5.8.7-.7,1-1.2-.5-.9,2.2-1.6.7Z" transform="translate(0 -5.2)"/><path class="cls-2" d="M282.3,429l.3-3,34.4,3.6,31.8,2.6,7.9-99.3h.8l52.6,3.2-1.4,42.7,2.7,1.3,2.5,3,1.5.3,1.1-1,1.2.4,1.4,1,1.1-1.5,2.3,1.7.5,2.9,1.2.7,2.3-.1,3.5,1.9,2-.1,1.4-.4,2.3,2.2,2-2.3,3.5,1.1,1.9,3,2.3-.1-.7,2.1L447,396l3-2.6,2.6,1.7,1.3-.5.1,1.5,1.7,1.2,2.3-2.5,1.2.7-.3,2,1,1.8,1.2-.8,2.5-4.2,1.8,2,2,.5,2.1-.7,2,1.8,1.2-.1L474,399l3.6-.9.6-1.7,3.7-.3,1.6.7,5-2.5.6,1.5,5.1-.3.5-1.6,2.2.9,4.6,3.8,6.4,1.9,2.6,2.3,2.8-1.3,3.2.8.2,11.9.5,19.9.7,3.4,2.6,2.8.7,5.4,3.8,4.6.8,4.3h1l-.1,7.3-3.3,6.4,1.3,2.3-1.3,1.5.7,3-.1,4.3-2.2,3.5-.1.8-1.7,1.2,1,1.8,1.2,1.1-3.5.3-8.4,3.9-3.5,1.4-1.8,1.8-.7-.5,2.1-2.3,1.8-.7.5-.9-2.9-.1-.7-.8.8-2-.9-1.8h-.6l-2.4,1.3-1.9,2.6.3,1.7,3.3,3.4,1.3.3v.8l-2.3,1.6-4.9,4-4,3.9-3.2,1.4-5,3-3.7,2-4.5,1.9-4.1,2.5,3.2-3v-1.1l.6-.8-.2-1.8-1.5-.1-1.1,1.5-2.6,1.3-1.8-1.2-.3-1.7h-1.5l.8,2.2,1.4.7,1.2.9,1.8,1.6-.7.8-3.9,1.7-1.7.1-1.2-1.2-.5,2.1.5,1.1-2.7,2-1.5.2-.8.7-.4,1.7-1.8,3.3-1.6.7-1.6-.6-1.8,1.1.3,1.4,1.3.8,1,.8-1.8,3.5-.3,2.8-1,1.7-1.4,1-2.9.4,1.8.6,1.9-.6-.4,3.2-1.1-.1.2,1.2.3,1.4-1.3.9v3.1l1.6,1.4.6,3.1-.4,2.2-1,.4.4,1.5,1.1.4.8,1.7v2.6l1.1,2.1,2.2,2.6-.1.7-2.2-.2-1.6,1.4.2,1.4-.9-.3-1.4-.2-3.4-3.7-2.3-.6h-7.1l-2.8-.8-3.6-3-1.7-1-2.1.1-3.2-2.6-5.4-1.6v-1.3l-1.4-1.8-.9-4.7-1.1-1.7-1.7-1.4v-1.6l-1.4-.6.6-2.6-.3-2.2-1.3-1.4.7-3-.8-3.2-1.7-1.4h-1.1l-4-3.5.1-1.9-.8-1.7-.8-.2-.9-2.4-2-1.6-2.9-2.5-.2-2.1-1-.7.2-1.6.5-.7-1.4-1.5.1-.7-2-2.2.1-2.1-2.7-4.9-.1-1.7-1.8-3.1-5.1-4.8v-1.1l-3.3-1.7-.1-1.8-1.2-.4v-.7l-.8-.2-2.1-2.8h-.8l-.7-.6-1.3,1.1h-2.2l-2.6-1.1h-4.6l-4.2-2.1-1.3,1.9-2.2-.6-3.3,1.2-1.7,2.8-2,3.2-1.1,4.4-1.4,1.2-1.1.1L345,496l-1.3.6-.1,1.8-2.9.1-1.8-1.5h-1l-2-2.9-3.6-.5-1.7-2.3-1.3-.2-2.1-.8-3.4-3.4.2-.8-1.6-1.2-1-.1-3.4-3.1-.1-2-2.3-4,.2-1.6-.7-1.3.8-1.5-.1-2.4-2.6-4.1-.6-4.2L311,459v-1l-1.2-.2-.7-1.1-2.4-1.7-.9-.1-1.9-1.6v-1.1l-2.9-1.8-.6-2.1-2.6-2.3-3.2-4.4-3-1.3-2.1-1.8.2-1.2-1.3-1.4-1.7-3.7-2.4-1ZM457.2,567.3l.8.1-.6-4.8-3.5-12.3-.2-8.1,4.9-10.5,6.1-8.2,7.2-5.1v-.7h-.8l-2.6,1-3.6,2.3-.7,1.5L456,534.1l-2.8,7.9v8.8l3.6,12Z" transform="translate(0 -5.2)"/><path class="cls-2" d="M233.2,217.9l3.3-21.9-47.9-8.2-21,109,46.2,8.2,40,6,11.5-88.3Z" transform="translate(0 -5.2)"/><path class="cls-4" d="M859.1,102.4l-1.1,3.5,2.1,2.8-.4,1.7.1,1.3-1.1,2.1-1.4.4-.6,1.3-2.1,1-.7,1.5,1.4,3.4-.5,2.5.5,1.5-1,1.9.4,1.9-1.3,1.9.2,2.2-.7,1.1.7,4.5.7,1.5-.5,2.6.9,1.8-.2,2.5-.5,1.3-.1,1.4,2.1,2.6-12.4,2.7-1.1-1,.5-2-3-14.2-1.9-1.5-.9,1.6-.9-2.2.8-1.8-3.1-6.7.3-3.8.4-1-.6-2,.4-2.2-2.2-2.3-.5-3.2.4-1.5-1.4-.9.6-1.9-.8-1.7,27.3-6.9Z" transform="translate(0 -5.2)"/><path class="cls-5" d="M834.7,265.4l-1.1,2.8.5,1.1.4-1.1.8-3.1Zm-34.6-7-.7-1,1-.1,1-.9.4-1.8-.2-.5.1-.5-.3-.7-.6-.5-.4-.1-.5-.4-.6-.6h-1l-.6-.1-.4-.4.1-.5-1.7-.6-.8.3-1.2-.1-.7-.7-.5-.2-.2-.7.6-.8v-.9l-1.2-.2-1-.9-.9.1-1.6-.3-.4.7-.4,1.6-.5,2.3-10-5.2-.2.9.9,1.6-.8,2.3.1,2.9-1.2.8-.5,2.1-.9.8-1.4,1.8-.9.8-1,2.5-2.4-1.1-2.3,8.5-1.3,1.6-2.8-.5-1.3-1.9-2.3-.7-.1,4.7-1.4,1.7.4,1.5-2.1,2.2.4,1.9-3.7,6.3-1,3.3,1.5,1.2-1.5,1.9.1,1.4-2.3,2-.7-1.1-4.3,3.1-1.5-1-.6,1.4.8.5-.5.9-5.5,2.4-3-1.8-.8,1.7-1.9,1.8-2.3.1-4.4-2.3-.1-1.5-1.5-.7.8-1.2-.7-.6-4.9,6.6-2.9,1-3,3-.4,2.2-2.1,1.3-.1,1.7-1.4,1.4-1.8.5-.5,1.9-1,.4-6.9,4.2,28.9-3.3.2-1,4.6-.5-.3.7,29.4-3.5,39.4-7.3,29.1-6.1-.6-1.2.4-.1.9.9-.1-1.4-.3-1.9,1.6,1.2.9,2.1v-1.3l-3.4-5.5v-1.2l-.7-.8-1.3.7.5,1.4h-.8l-.4-1-.6.9-.9-1.1-2.1-.1-.2.7,1.5,2.1-1.4-.7-.5-1-.4.8-.8.1-1.5,1.7.3-1.6v-1.4l-1.5-.7-1.8-.5-.2-1.7-.6-1.3-.6,1.1-1.7-1-2,.3.2-.9,1.5-.2.9.5,1.7-.8.9.4.5,1v.7l1.9.4.3.9.9.4.9,1.2,1.4-1.6h.6l-.1-2.1-1.3,1-.6-.9,1.5-.2-1.2-.9-1.2.6-.1-1.7-1.7.2-2.2-1.1-1.8-2.2,3.6,2.2.9.3,1.7-.8-1.7-.9.6-.6-1-.5.8-.2-.3-.9,1.1.9.4-.8.4,1.3,1.2.8.6-.5-.5-.6-.1-2.5-1.1-.1-1.6-.8.9-1.1-2-.1-.4-.5-1.4.6-1.4-.8-.5-1.2-2.1-1.2-2.1-1.8-2.2-1.9,3,1.3.9,1.2,2.1.7,2.3,2.5.2-1.7.6,1.3,2.3.5v-4l-.8-1.1,1.1.4.1-1.6-3.1-1.4-1.6-.2-1.3-.2.3-1.2-1.5-.3-.1-.6h-1.8l-.2.8-.7-1h-2.7l-1-.4-.2-1-1.2-.6-.4-1.5-.6-.4-.7,1.1-.9.2-.9.7h-1.5l-.9-1.3.4-3.1.5-2.4.6.5ZM822,270l.9-.1v-.6l-.8.1Zm7.5,14.2-1,2.7,1.2-1.3Zm-1.8-15.3.7.3-.2,1.9-.5-.5-1.3,1,1,.4-1.8,4.4.1,8.1,1.9,3.1.5-1.5.4-2.7-.3-2.3.7-.9-.2-1.4,1.2-.6-.6-.5.5-.7.8,1.1-.2,1.1-.4,3.9,1.1-2.2.4-3.1.1-3-.3-2,.6-2.3,1.1-1.8.1-2.2.3-.9-4.6,1.6-.7.8Z" transform="translate(0 -5.2)"/><path class="cls-5" d="M161.9,83.6l.7,4-1.1,4.3-30.3-7.3-2.8,1-5.4-.9-1.8-.9L119.7,85l-3.3-.4-4.5.5-.9.7-4.2-.4-.8-1.6-1.2-.2-4.4,1.3-1.6-1.1-2.2.8-.2-1.8-2.3-1.2-1.5-.2-1-1.1-3,.3-1.2-.8H86.2l-1.2.9-5.5.7-6.6-4.2L74,71.6l-.4-4.1-3.2-3.7-3.7.1-.4-1.1.4-1.2-.7-.8-1,.1-2.1-1.5-1.2.4-2-.1L59,58.2l-1.6-.3,2.5-7.5-.7,6,.5.5v-2l.8-.2L61.6,57l-.5-2.2,1.2-4.2,1.8.4L63,49l-1,.3-1.5-.4.2-4.2.2,1.5.9.5.6-1.6h3.2l-2.2-1.2L61.7,42l-1.4,1.6,1.2-3.1-.3-4.6L61,32.3l.9-6.1-.5-2L60,22.1l.1-4,.4-2.7,2-2.3-.7-1.4.2-.6.9.1,7.8,7.6,4.7,1.9,5.1,2.5,3.2-.1.2,3,1-1.6h.7l.6,2.7.5-2.6,1.4-.2.5.7-1.1.6.1,1.6.7-1.5h1.1L89,28.4l-1.1-.8.4,1.4-.1,1.5-.8.7-2.5,2.9,1.2-3.4-1.6.4-.4,2.1L80.3,36l-.4,1-2.1,2.2-.1,1h2.2l2.4-.2.5-.9-3.9.5V39l2.6-2.8,1.8-.8,1.9-.2,1-1.6,3-2.3V29.9h1.1l.1,4H88.9l-.6.8-1.1-.9.3,1.1v1.7l-.7.7-.3-1.6-.8.8.7.6-.9,1.1h1.3l.7-.5.1,2-1,1.9-.9,1-.1,1.8-1-.2-.2-1.4.9-1.1-.8-.5-.8.7L83,44.1l-.8.9-.1-2,.8-1.1-.2-1.1L81.5,42l.1,2.2-.6.4-2.1-.4-1.3,1.2,2.2-.6L79.6,47l1-1.8.4,1.4.5-1,.7,1.8h.7l.7-.8.6-.1,2-1.9.2-1.2.8.6.3.9.7-.3.1-1.2h1.3l.2-2.9-.1-2.7.9.3L89.9,36l1.4-.8.2-2.4,2.3-2.2,1,.1.3-1.4-1.2-1.4-.1-3.5-.8.9.7,2.9-.6.1-.6-1.9-.6-.5.3-2.3,1.8-.1.3.7.3-1.6L93,20.9l-.6-1.6-.2,2,.9,1.1-.7.4-1-.8-1.8,1.3,1.5.5.2,2.4L91,28l.9-1.3L93.3,29l-.4,1.9H91.4V29.7l-1.5-1.2.5-3-1.9-2.6,2.7-3,.6-4.1h.9L94.1,19V16.4l1.2.3V13.4l-.9-.8-1.2,2.5-1-3,1.3-.1L92,7.1l1.9-.6L119.3,14,151,22l23.6,5.5ZM83.2,44.2h.5l.1.8-.5.3.1.6-.7.4-.2-.9L83,45Zm5-4.3L87,41.8l-.1.8.4.2.5-.6,1.1.1Zm-.4-21.6.5.6,1.3-.3.2-1L91,15.8l-1-.4L89.3,17l-.1-1.6-1.1.2L87.4,17ZM91,12.8l.7,1.5-.9.2-.8.4-.2-2.4Zm-2.7-1.6L87.2,11l.5,1.4Zm-1,2.5.8.4-.4,1.1,1.7-.5-.2-2.2-.9-.2Zm-2.7-.4.3,2.7,1.6,1.3.6-1.9L86,13.2Zm1.9-1.1-1.1-1-.9.1,1.8,1.5Zm3.2-7H88.5V6l1.2.6Zm-.9,32.5.4-2.7H88.1l-.2,1.9Z" transform="translate(0 -5.2)"/><path class="cls-1" d="M723.4,297.5l-.8,1.2,1.5.7.1,1.5,4.4,2.3,2.3-.1,1.9-1.8.8-1.7,3,1.8,5.5-2.4.5-.9-.8-.5.6-1.4,1.5,1,4.3-3.1.7,1.1,2.3-2-.1-1.4,1.5-1.9-1.5-1.2,1-3.3,3.7-6.3-.4-1.9,2.1-2.2-.4-1.5,1.4-1.7.1-4.7,2.3.7,1.3,1.9,2.8.5,1.3-1.6,2.3-8.5,2.4,1.1,1-2.5.9-.8,1.4-1.8.9-.8.5-2.1,1.2-.8-.1-2.9.8-2.3-.9-1.6.2-.9,10,5.2.5-2.3.4-1.6.4-.7-.9-.4.2-1.6-1-.5-.2-.7h-.7l-.8-1.2.2-1-2.6.4-2.2-1.6-1.4.3-.9,1.4h-1.3l-1.7,2.9-3.3.4-1.9-1-2.6,3.8-2.2-.3-3.1,3.9-.9,1.6-1.8,1.6-1.7-11.4L740,244.8l-3.2-19.7-2.2,1.2,1.4,2.1-.1,2.2.6,2-1.1,3.4-.1,5.4-1,3.6.5,1.1-.4,2.2-1.1.5-2,3.3-1.8,2h-.6l-1.8,1.7-1.3-1.2-1.5,1.8-.3,1.2h-1.3l-1.3,2.2.1,2.1-1,.5,1.4,1.1v1.9l-1,.2-.7.8-1,.5-.6-2.1-1.6-.5-1,2.3-.3,2.2-1.1,1.3,1.3,3.6-1.5.8L714,278h-1.5l-3.2,1.4-.1,1.1.6,1-.6,3.6,1.9,1.6.8,1.1,1,.6-.1.9,4.4,5.6h1.4l1.5,1.8,1.2.3,1.4-.1Z" transform="translate(0 -5.2)"/><path class="cls-3" d="M611,144l-2.9.8.2,2.3-2.4,3.4-.2,3.1.6.7.8-.7.5-1.6,2-1.1,1.6-4.2,3.5-1.1.8-3.3.7-.9.4-2.1,1.8-1.1v-1.5l1-.9,1.4.1v2l-1,.1.5,1.2-.7,2.2-.6.1-1.2,4.5-.7.5-2.8,7.2-.3,4.2.6,2,.1,1.3-2.4,1.9.3,1.9-.9,3.1.3,1.6.4,3.7-1.1,4.1-1.5,5,1,1.5-.3.3.8,1.7-.5,1.1,1.1.9v2.7l1.3,1.5-.4,3,.3,4L567.2,202l-1.3-2.8-3.3-.7-2.7-1.5-2-5.5.1-2.5,1.6-3.3-.6-1.1-2.1-1.6-.2-2.6-1.1-4.5-.2-3-2.2-3-2.8-.7-5.2-3.6-.6-3.3-6.3-3.1-.2-1.3h-3.3l-2.2-2.6-2-1.3.7-5.1-.9-1.6.5-5.4,1-1.8-.3-2.7-1.2-1.3-1.8-.3v-1.7l2.8-5.8,5.9-3.9-.4-13,.9.4.6-.5.1-1.1.9-.6,1.4,1.2.7-.1h2.6l6.8-2.6.3-1h1.2l.7-1.2.4.8,1.8-.9,1.8-1.7.3.5,1-1,2.2,1.6-.8,1.6-1.2,1.4.5,1.5-1.4,1.6.4.9,2.3-1.1v-1.4l3.3,1.9,1.9.7,1.9.7,3,3.8,17,3.8,1.4,1,4,.8.7.5,2.8-.2,4.9.8,1.4,1.5-1,1,.8.8,3.8.7,1.2,1.2.1,4.4-1.3,2.8,2,.1,1-.8.9.8-1.1,3.1,1,1.6,1.2.3Zm-49.5-37.3-.5.1-1.5,1.6.2.5,1.5-.6v-.6l.9-.3Zm1.6-1.1-1,.3-.2.7.9-.1Zm-1.3-1.6-.2.9h1.7l.6-.4.1-1Zm2.8-3-.3,1.9,1.2-.5.1-1.4Zm58.3,31.9-2,.3-.4,1.3,1.3,1.7Z" transform="translate(0 -5.2)"/><path class="cls-1" d="M355.3,143.7l-51-5.3L247,130.5l-2,10.7L236.5,196l-3.3,21.9,32.1,4.8,44.9,5.7,37.5,3.4,3.7-44.2Z" transform="translate(0 -5.2)"/><path class="cls-7" d="M803.5,252l-2.6-1.8-1,1.7.5.4.4.1.6.5.3.7-.1.5.2.5Z" transform="translate(0 -5.2)"/><path class="cls-8" d="M687.6,447.4l-48.8,5.1-.5,2.9,2.5,2.8,1.7.7.9,1.2-.4,7.3-1.1.6" transform="translate(0 -5.2)"/><path class="cls-8" d="M666.6,361.1l12.9,45.8,2.9,6.1,1.8,1.9v3.2l1.7,1,.2,1.1-2.2,3.8-.3,3.7-.5,2.6,2.4,5.7-.6,6.3.5,1.4,1.5,1.5.7,2.2" transform="translate(0 -5.2)"/><path class="cls-8" d="M620.9,365.1l1.3,2-1.3,67,4.4,33.2" transform="translate(0 -5.2)"/><path class="cls-8" d="M620.9,365.1l45.7-4" transform="translate(0 -5.2)"/><path class="cls-8" d="M516.7,414.2l52.3-1.3" transform="translate(0 -5.2)"/><path class="cls-8" d="M591.7,344.9l-11.2.8,2.8-5.1,1.7-1.5v-2.2l-1.6-2.5-39.8,2-39.1.7" transform="translate(0 -5.2)"/><path class="cls-8" d="M569,412.9l1.2-1.5.5-3-1.5-2.3-.5-2.2.9-.7v-.8l-1.7-1.1-.1-.7,1.6-.9-1.2-1.1,1.7-7.1,3.4-1.6v-.8l-1.1-1.4,2.9-5.4H577l1.5-1.2-.3-5.2,3.1-4.5,1.8-.6-.5-3.1" transform="translate(0 -5.2)"/><path class="cls-8" d="M507.9,400.5l.7-39-4.1-24.4" transform="translate(0 -5.2)"/><path class="cls-8" d="M582.6,367.7l1.6-.7.9-2.2,1.2.5.7-1-.8-.7.3-1.5-1.1-.9.6-1-.1-1.5-1.1-.1.8-.8,1.3.8.3-1.4-.4-1.1.1-.7,2,.6-.4-1.5,1.6-1.3-.5-.9-1.1.1-.6-.9.9-.9,1.6-.2.5-.8,1.4-.2-.1-.8-.9-.9v-.5h1.5l.4-.7-1.4-1-.1-.6" transform="translate(0 -5.2)"/><path class="cls-8" d="M507.9,400.5l2.6,2.3,2.8-1.3,3.2.8.2,11.9" transform="translate(0 -5.2)"/><path class="cls-8" d="M149,338.1l-.9,2.1,1.3,3.4,1.4,1.8,1.2,5.8,2.3,2.5.4,1.9-1.3,1.3-4.8,1.7-2.4,3.6-1.6,7-2.4,3.2-1.6.3-1.1,6.9,1.1,1.6,1.8.2,1,1.6-.8,2.4-3,2.2-2.2-.1" transform="translate(0 -5.2)"/><path class="cls-8" d="M253.8,311,236.4,435.1" transform="translate(0 -5.2)"/><path class="cls-8" d="M167.6,296.8l-3.4,17.5-2.4,2.9h-2l-1.2-2.7-3.7-1.4-3.5.6-1,13.6.5,4.9-.5,2.9-1.4,3" transform="translate(0 -5.2)"/><path class="cls-8" d="M167.6,296.8l46.2,8.2,40,6" transform="translate(0 -5.2)"/><path class="cls-8" d="M93.9,166.5,77.5,229.6l1.1,3.5,70.4,105" transform="translate(0 -5.2)"/><path class="cls-8" d="M27.8,147.9l66.1,18.6" transform="translate(0 -5.2)"/><path class="cls-8" d="M379.4,256.3l-4.8,67" transform="translate(0 -5.2)"/><path class="cls-8" d="M347.7,231.8l33.1,2.4-1.4,22.1" transform="translate(0 -5.2)"/><path class="cls-8" d="M253.8,311l52.6,6.5,51.7,4.8" transform="translate(0 -5.2)"/><path class="cls-8" d="M358.1,322.3l16.5,1" transform="translate(0 -5.2)"/><path class="cls-8" d="M265.3,222.7,253.8,311" transform="translate(0 -5.2)"/><path class="cls-8" d="M265.3,222.7l44.9,5.7,37.5,3.4" transform="translate(0 -5.2)"/><path class="cls-8" d="M843.8,171.3l10.5-2.4.5.7.9-.3v-.7l14.9-3.4.1.3" transform="translate(0 -5.2)"/><path class="cls-8" d="M846.6,194.7l-1.7-2.2,3.5-3.4-1.8-1.5-2.8-16.3" transform="translate(0 -5.2)"/><path class="cls-8" d="M870.7,165.5l3.2,12.3-.4,1.1.4,1.8" transform="translate(0 -5.2)"/><path class="cls-8" d="M801.8,254.6l1.7-2.6-2.6-1.8-1,1.7" transform="translate(0 -5.2)"/><path class="cls-8" d="M799.9,251.9l.5.4.4.1.6.5.3.7-.1.5.2.5" transform="translate(0 -5.2)"/><path class="cls-8" d="M817.9,230.1l7.6,27.1,10.9-2.3" transform="translate(0 -5.2)"/><path class="cls-8" d="M823.8,227.2l-1,2.2-.3,2.1" transform="translate(0 -5.2)"/><path class="cls-8" d="M817.9,230.1l1.2-2.1,1.5-1.1,1.6-.3,1.6.6" transform="translate(0 -5.2)"/><path class="cls-8" d="M687.6,447.4l3.3,6,50.1-3.3.6,3.2,1,1.1,2.1-.6.5-4.3-1.4-2.1v-2.5l2.2-1.4,1.7.9,4,.7,3.6-.3" transform="translate(0 -5.2)"/><path class="cls-8" d="M689.5,358.2l21.4-3" transform="translate(0 -5.2)"/><path class="cls-8" d="M710.9,355.2l-.1,1.9-1.9,1-1.4,3.2.2,1.3,6.1,3.8,2.6-.3,3.1,4,.4,1.7,4.2,5.1,2.6,1.7,1.4.2,2.2,1.6,1.1,2.2,2,1.6,1.8.5,2.7,2.7.1,1.4,2.6,2.8,5,2.3,3.6,6.7.3,2.7,3.9,2.1,2.5,4.8.8,3.1,4.2.4" transform="translate(0 -5.2)"/><path class="cls-8" d="M666.6,361.1l22.9-2.9" transform="translate(0 -5.2)"/><path class="cls-8" d="M556.8,249.7l.7-.7.1-2.3-.7-.9,1-1.5,1.8-.6.9-.3,1-1.2v-2.4l1.7-2.4.5-.5.1-3.5L563,232l-1-.3-1.1-1.6,1-4,3-.8h2.4l4.2-1.8,1.7-2.2.1-2.4,1.1-1.3,1.3-3.2-.1-2.6-2.8-3.5h-1.2l-.9-1.1.2-1.6-1.7-1.7-2.5-1.3.5-.6" transform="translate(0 -5.2)"/><path class="cls-8" d="M473.6,182h28.2l36.3-.9,18.6-.7" transform="translate(0 -5.2)"/><path class="cls-8" d="M484.5,246.8l25.9.1,27.2-1.2,14.3-.8,1.7,1.3.6,1.6,1.1,1.1,1.5.8" transform="translate(0 -5.2)"/><path class="cls-8" d="M484.5,246.8l-1.8-4.4.7-2.2-.8-3.3.2-2.9-1.3-.7-.4-6.1-2.8-5-.2-3.7-2.2-4.3-1.3-3.7v-1.4l-.6-1.7v-2.3l-.5-.9" transform="translate(0 -5.2)"/><path class="cls-8" d="M473.5,204.2l-.7-1.7-.3-1.3-1.3-1.2,1-4.3,1.7-5.1-.7-2-1.3-.4-.4-1.6,1-.5.1-1.1-1.3-1.5.1-1.6,2.2.1" transform="translate(0 -5.2)"/><path class="cls-8" d="M567.2,202l-1.3-2.8-3.3-.7-2.7-1.5-2-5.5.1-2.5,1.6-3.3-.6-1.1-2.1-1.6-.2-2.6" transform="translate(0 -5.2)"/><path class="cls-8" d="M188.8,30.5l-4.8,22,3.7,7.4-1.6,4.8,3.6,4.8,1.9.7,3.9,8.3v2.1l2.3,3h.9l1.4,2.1h3.2v1.6l-7.1,17-.5,4.1,1.4.5,1.6,2.6,2.8-1.4,3.6-2.4,1.9,1.9.5,2.5-.5,3.2,2.5,9.7,2.6,3.5,2.3,1.4.4,3V137l2.3,2.3,1.6-2.3,6.9,1.6,2.1-1.2,9,1.7,2.8-3.3,1.8-.6,1.2,1.8,1.6,4.1.9.1" transform="translate(0 -5.2)"/><path class="cls-8" d="M140.9,177.7l24.4,5.4,23.3,4.7" transform="translate(0 -5.2)"/><path class="cls-8" d="M140.9,177.7l8.5-37.3,2.9-5.8.4-2.1.8-.9-.9-2-2.9-1.2.2-4.2,4-5.8,2.5-.8,1.6-2.3-.1-1.6,1.8-1.6,3.2-5.5,4.2-4.8-.5-3.2-3.5-3.1-1.6-3.6" transform="translate(0 -5.2)"/><path class="cls-8" d="M236.5,196l-47.9-8.2" transform="translate(0 -5.2)"/><path class="cls-8" d="M174.6,27.5,161.9,83.6l.7,4-1.1,4.3" transform="translate(0 -5.2)"/><path class="cls-8" d="M245,141.2,236.5,196" transform="translate(0 -5.2)"/><path class="cls-8" d="M619.4,215.7l4.1,50.2-1,5.2v2l2.4,3.5v.7l-.3.9.9,1.9-.3,2.4-1.6,1.8-1.3,4.2-3.8,5.3-.1,7h-1l.9,1.9" transform="translate(0 -5.2)"/><path class="cls-8" d="M599.9,322.5l-.3-1.8,4-3.7,6.9,3,1.5-.3.4-2.4-1.7-1.8.4-3.3,1-.5,1.2.6.6-1.2,3.7-.6.1-.9-1.5-2.2-.1-1.1,2.2-2.7v-.9" transform="translate(0 -5.2)"/><path class="cls-8" d="M599.9,322.5h-2.8l-1.4-1.5-1.8-3.8v-1.9l.8-.6.1-1.3-1.7-1.9-.9-2.5-2.7-4.1-4.8-1.3-7.4-7.1-.4-2.4,2.8-7.6-.4-1.9,1.2-1.1v-1.3l-2.8-1.5-3-.7-3.4,1.2-1.3-2.3.6-1.9-.7-2.4-8.6-8.4-2.2-1.5-2.5-5.9-1.2-5.4,1.4-3.7" transform="translate(0 -5.2)"/><path class="cls-8" d="M567.2,202l45.9-2.8" transform="translate(0 -5.2)"/><path class="cls-8" d="M618.3,302.7l1.1.8.6-1-.7-1.7,4.6-.5.2,1.2,1.1.2.4-.9-.6-1.3.3-.8,1.3.8,1.7-.4,1.7.6,3.4,2.1,1.8-2.8,3.5-2.2,3,3.3,1.6-2.1.3-2.7,3.8-2.3.2,1.3,1.9,1.2,3-.2,1.2-.7.1-3.4,2.5-3.7,4.6-4.4-.1-1.7,1.2-3.8,2.2,1,6.7-4.5-.4-1.7-1.5-2.1,1-1.9" transform="translate(0 -5.2)"/><path class="cls-8" d="M630.9,213.2l32.4-3.4.1,1.4" transform="translate(0 -5.2)"/><path class="cls-8" d="M670,268.4l-6.6-57.2" transform="translate(0 -5.2)"/><path class="cls-8" d="M504.3,326.3l-.5-48.1-3.2-.7-2.6-4.7-2.5-2.5.5-2.3,2.7-2.6.1-1.2-1.5-2.1-.9,1-2-.6-2.9-3" transform="translate(0 -5.2)"/><path class="cls-8" d="M379.4,256.3l36,2,43.7,1.2h32.4" transform="translate(0 -5.2)"/><path class="cls-8" d="M374.6,323.3l67.7,2.9,62,.1" transform="translate(0 -5.2)"/><path class="cls-8" d="M596.7,333.5l1-2.7,1.4.9.7-.4,1.2-4.1-1-1,1-2,.2-.9-1.3-.8m-5.8,11.3-.7-.7.2-1h1.1l.7.7-.3,1" transform="translate(0 -5.2)"/><path class="cls-8" d="M670,268.4l1.3.5,2.2.1,1.9-.8,2.9,1.2,2.2,3.4v1l4.1.7,2.3-.2,1.9,2.1,2.2.2v-1l1.9-.8,3,.8,1.2.8,1.3-.7h.9l.6-1.7,3.4-1.8.5.8.8,2.9,3.5,1.4,1.2,2.1" transform="translate(0 -5.2)"/><path class="cls-8" d="M596.7,333.5,620,332l.6-.9-1.2-3.2h3.7l.7.6,22.6-2,2.6-.8,17.4-1,5.2-.8,20.5-1.4,5.6-1.4M594.1,333.8h1" transform="translate(0 -5.2)"/><path class="cls-8" d="M697.7,321.1l6.9-4.2,1-.4.5-1.9,1.8-.5,1.4-1.4.1-1.7,2.1-1.3.4-2.2,3-3,2.9-1,4.9-6.6" transform="translate(0 -5.2)"/><path class="cls-8" d="M709.3,279.4l-.1,1.1.6,1-.6,3.6,1.9,1.6.8,1.1,1,.6-.1.9,4.4,5.6h1.4l1.5,1.8,1.2.3,1.4-.1" transform="translate(0 -5.2)"/><path class="cls-8" d="M569,412.9l-.6,1.4,1.6,7.1,1.2,1-.5,1.7,2.4,2.5v3.3h-2l1.8,2.5-6,8.4-2.4,4.8-1.7,11.9,36-2-.1,1.4-1,1.4-.9,4.6,4.8,6.8-.3,1.3,1.2,1.8.6.7" transform="translate(0 -5.2)"/><path class="cls-8" d="M516.7,414.2l.5,19.9.7,3.4,2.6,2.8.7,5.4,3.8,4.6.8,4.3h1l-.1,7.3-3.3,6.4,1.3,2.3-1.3,1.5.7,3-.1,4.3-2.2,3.5-.1.8-1.7,1.2,1,1.8,1.2,1.1" transform="translate(0 -5.2)"/><path class="cls-8" d="M856,152.6l18.4-3.8,1-1.5.3-1.7,1.9-.6.5-1.1,1.7-1.1,1.3.3" transform="translate(0 -5.2)"/><path class="cls-8" d="M843.8,171.3l-.7-1,.5-15" transform="translate(0 -5.2)"/><path class="cls-8" d="M870.7,165.5l6.5-2,.7,2.6h.8l.6,2.2,2.6,1.3,1.3,1.1,1.4,3" transform="translate(0 -5.2)"/><path class="cls-8" d="M843.6,155.3l12.4-2.7" transform="translate(0 -5.2)"/><path class="cls-8" d="M757.4,241.9l60.5-11.8" transform="translate(0 -5.2)"/><path class="cls-8" d="M822.9,269.3l-.8.1m13.2-4.3-.6.3m-1.3.2-4.6,1.6-.7.8m-28.2-16.1-.6-.6h-1l-.6-.1-.4-.4.1-.5-1.7-.6-.8.3-1.2-.1-.7-.7-.5-.2-.2-.7.6-.8v-.9l-1.2-.2-1-.9-.9.1-1.6-.3m11.6,13.5.3-.4-.7-1,1-.1,1-.9.4-1.8" transform="translate(0 -5.2)"/><path class="cls-8" d="M757.4,241.9l1.7,11.4,1.8-1.6.9-1.6,3.1-3.9,2.2.3,2.6-3.8,1.9,1,3.3-.4,1.7-2.9h1.3l.9-1.4,1.4-.3,2.2,1.6,2.6-.4-.2,1,.8,1.2h.7l.2.7,1,.5-.2,1.6.9.4" transform="translate(0 -5.2)"/><path class="cls-8" d="M881.9,138.3l-2.3-1.4-.8-2.2-3.2-2-.6-4L863.1,91.9" transform="translate(0 -5.2)"/><path class="cls-8" d="M663.4,211.2l21.4-3.5" transform="translate(0 -5.2)"/><path class="cls-8" d="M565.6,112.3l1.9.7,3,3.8,17,3.8,1.4,1,4,.8.7.5,2.8-.2,4.9.8,1.4,1.5-1,1,.8.8,3.8.7,1.2,1.2.1,4.4-1.3,2.8,2,.1,1-.8.9.8-1.1,3.1,1,1.6,1.2.3" transform="translate(0 -5.2)"/><path class="cls-8" d="M462.3,61.3l2.4,7.3-1.1,2.8.8,1.4-.3,5.1-.5,1.1,2.7,9.1,1.3,2.5.7,14,1,2.7-.4,5.8,2.9,7.4.3,5.8-.1,2.1" transform="translate(0 -5.2)"/><path class="cls-8" d="M473.6,182l.2-39.5-1.5-1.9-2.6-.6-.4-1.8-1.7-2.5.3-1.2,3.1-1.9.9-2,.1-2.2" transform="translate(0 -5.2)"/><path class="cls-8" d="M556.7,180.4l-1.1-4.5-.2-3-2.2-3-2.8-.7-5.2-3.6-.6-3.3-6.3-3.1-.2-1.3h-3.3l-2.2-2.6-2-1.3.7-5.1-.9-1.6.5-5.4,1-1.8-.3-2.7-1.2-1.3-1.8-.3v-1.7l2.8-5.8,5.9-3.9-.4-13,.9.4.6-.5.1-1.1.9-.6,1.4,1.2.7-.1" transform="translate(0 -5.2)"/><path class="cls-8" d="M491.5,259.5l-3.9-6.3-2.1-3.7.3-1.4-1.3-1.3" transform="translate(0 -5.2)"/><path class="cls-8" d="M504.3,326.3l.2,10.8" transform="translate(0 -5.2)"/><path class="cls-8" d="M591.7,344.9l1-2,1.2-.5v-.7l-1.2-1.1-.6-1,1.7.2.8-.7-1.4-1.5,1.4-.5.1-1-.6-1v-1.3m1,0,.8.7.8-1" transform="translate(0 -5.2)"/><path class="cls-8" d="M582.6,367.7l38.3-2.6" transform="translate(0 -5.2)"/><path class="cls-8" d="M362.5,56.3,357.3,123" transform="translate(0 -5.2)"/><path class="cls-8" d="M357.3,123l-2,20.7" transform="translate(0 -5.2)"/><path class="cls-8" d="M355.3,143.7l-51-5.3L247,130.5l-2,10.7" transform="translate(0 -5.2)"/><path class="cls-8" d="M710.9,355.2l4.4-1.9,1.3-.1,7.3-4.3,23.2-2.2.4.5-.2,1.4.7.3,1.2-1.5,3.3,3,.1,2.6,19.7-2.8,24.5,17.1" transform="translate(0 -5.2)"/><path class="cls-8" d="M731.1,317v5.2l-1.5-.1-1.4,1.2-2.4,5.2-2.6-1.1-3.5,2.5L719,332l-1.5,1.2-.8-.8-.1-1.5-.8-.2-4,3.3-.6,3.4-4.7,2.4L706,341l-3.2,2.6-3.6.5-4.6,3-.8,4.1-1.3.9L691,352l-1.4,1.3-.1,4.9" transform="translate(0 -5.2)"/><path class="cls-8" d="M731.1,317l29.4-3.5,39.4-7.3,29.1-6.1" transform="translate(0 -5.2)"/><path class="cls-8" d="M357.3,123l39.2,2.9,46,2.1,29.5.4" transform="translate(0 -5.2)"/><path class="cls-8" d="M351.4,187.6l51.1,3.5,38,1.6,3.4,3.2,1.7.2,2.1,2,1.8-.1,1.8-2,1.5.6,1-.7.7.5.9-.4.7.4.9-.4,1,.5,1.4-.6,2,.6.6,1.1,6.1,2.2,1.2,1.3.9,2.6,1.8.7,1.5-.2" transform="translate(0 -5.2)"/><path class="cls-8" d="M347.7,231.8l3.7-44.2" transform="translate(0 -5.2)"/><path class="cls-8" d="M857.9,100.1l1.2,2.3-1.1,3.5,2.1,2.8-.4,1.7.1,1.3-1.1,2.1-1.4.4-.6,1.3-2.1,1-.7,1.5,1.4,3.4-.5,2.5.5,1.5-1,1.9.4,1.9-1.3,1.9.2,2.2-.7,1.1.7,4.5.7,1.5-.5,2.6.9,1.8-.2,2.5-.5,1.3-.1,1.4,2.1,2.6" transform="translate(0 -5.2)"/><path class="cls-8" d="M827.9,190.5l14.6,4.9-.4,5.9" transform="translate(0 -5.2)"/><path class="cls-8" d="M823.8,227.2l1.4-1.7,1.6-.6,1.8-3,1.6-2.3,3.3-2.6-4.2-3.2-2.1-1.1-1-2.8-2.7-.9-.5-3.6,1-1,.7-2-1.5-1.8,3-5.4-.1-2.2,1.8-2.5" transform="translate(0 -5.2)"/><path class="cls-8" d="M358.1,322.3l-.6,10.6" transform="translate(0 -5.2)"/><path class="cls-8" d="M284.3,431.2l-2-2.2.3-3,34.4,3.6,31.8,2.6,7.9-99.3h.8" transform="translate(0 -5.2)"/><path class="cls-8" d="M93.9,166.5l47,11.2" transform="translate(0 -5.2)"/><path class="cls-8" d="M188.6,187.8l-21,109" transform="translate(0 -5.2)"/><path class="cls-8" d="M827.9,190.5l-1.6-1.1-1.9.3-3-2.2-3-5.8h-2l-.4-1.5-1.7-1.1L743.8,193l-.8-6" transform="translate(0 -5.2)"/><path class="cls-8" d="M843.6,155.3l-1.1-1,.5-2-3-14.2-1.9-1.5-.9,1.6-.9-2.2.8-1.8-3.1-6.7.3-3.8.4-1-.6-2,.4-2.2-2.2-2.3-.5-3.2.4-1.5-1.4-.9.6-1.9-.8-1.7" transform="translate(0 -5.2)"/><path class="cls-8" d="M736.8,225.1l-4.9-29.9" transform="translate(0 -5.2)"/><path class="cls-8" d="M709.3,279.4l3.2-1.4H714l.4-3.5,1.5-.8-1.3-3.6,1.1-1.3.3-2.2,1-2.3,1.6.5.6,2.1,1-.5.7-.8,1-.2v-1.9l-1.4-1.1,1-.5-.1-2.1,1.3-2.2H724l.3-1.2,1.5-1.8,1.3,1.2,1.8-1.7h.6l1.8-2,2-3.3,1.1-.5.4-2.2-.5-1.1,1-3.6.1-5.4,1.1-3.4-.6-2,.1-2.2-1.4-2.1,2.2-1.2" transform="translate(0 -5.2)"/><path class="cls-8" d="M357.5,332.9l52.6,3.2-1.4,42.7,2.7,1.3,2.5,3,1.5.3,1.1-1,1.2.4,1.4,1,1.1-1.5,2.3,1.7.5,2.9,1.2.7,2.3-.1,3.5,1.9,2-.1,1.4-.4,2.3,2.2,2-2.3,3.5,1.1,1.9,3,2.3-.1-.7,2.1L447,396l3-2.6,2.6,1.7,1.3-.5.1,1.5,1.7,1.2,2.3-2.5,1.2.7-.3,2,1,1.8,1.2-.8,2.5-4.2,1.8,2,2,.5,2.1-.7,2,1.8,1.2-.1L474,399l3.6-.9.6-1.7,3.7-.3,1.6.7,5-2.5.6,1.5,5.1-.3.5-1.6,2.2.9,4.6,3.8,6.4,1.9" transform="translate(0 -5.2)"/><path class="cls-8" d="M161.5,91.9l-30.3-7.3-2.8,1-5.4-.9-1.8-.9L119.7,85l-3.3-.4-4.5.5-.9.7-4.2-.4-.8-1.6-1.2-.2-4.4,1.3-1.6-1.1-2.2.8-.2-1.8-2.3-1.2-1.5-.2-1-1.1-3,.3-1.2-.8H86.2l-1.2.9-5.5.7-6.6-4.2L74,71.6l-.4-4.1-3.2-3.7-3.7.1-.4-1.1.4-1.2-.7-.8-1,.1" transform="translate(0 -5.2)"/><path class="cls-8" d="M736.8,225.1l3.2,19.7,17.4-2.9" transform="translate(0 -5.2)"/><path class="cls-8" d="M351.4,187.6l3.9-43.9" transform="translate(0 -5.2)"/><path class="cls-8" d="M697.7,321.1l28.9-3.3.2-1,4.6-.5-.3.7" transform="translate(0 -5.2)"/><path class="cls-8" d="M236.5,196l-3.3,21.9,32.1,4.8" transform="translate(0 -5.2)"/><path class="cls-8" d="M722.7,296.9l.7.6-.8,1.2,1.5.7.1,1.5,4.4,2.3,2.3-.1,1.9-1.8.8-1.7,3,1.8,5.5-2.4.5-.9-.8-.5.6-1.4,1.5,1,4.3-3.1.7,1.1,2.3-2-.1-1.4,1.5-1.9-1.5-1.2,1-3.3,3.7-6.3-.4-1.9,2.1-2.2-.4-1.5,1.4-1.7.1-4.7,2.3.7,1.3,1.9,2.8.5,1.3-1.6,2.3-8.5,2.4,1.1,1-2.5.9-.8,1.4-1.8.9-.8.5-2.1,1.2-.8-.1-2.9.8-2.3-.9-1.6.2-.9,10,5.2.5-2.3.4-1.6.4-.7" transform="translate(0 -5.2)"/><circle class="cls-9" cx="801.6" cy="246.9" r="5"/><path class="cls-10" d="M215,493v55l36,45M0,425H147l68,68h85l54,54v46" transform="translate(0 -5.2)"/></svg>