<?xml version="1.0" encoding="utf-8"?>
<!-- Generator: Adobe Illustrator 22.0.0, SVG Export Plug-In . SVG Version: 6.00 Build 0)  -->
<svg version="1.1" id="svg2" xmlns:svg="http://www.w3.org/2000/svg"
	 xmlns="http://www.w3.org/2000/svg" xmlns:xlink="http://www.w3.org/1999/xlink" x="0px" y="0px" viewBox="0 0 725 740"
	 style="enable-background:new 0 0 725 740;" xml:space="preserve">
<style type="text/css">
	.st0{fill:#FFFFFF;stroke:#000000;stroke-width:0.5;stroke-miterlimit:10;}
	.st1{stroke:#FFFFFF;stroke-width:2;stroke-miterlimit:10;}
	.st2{fill:#000074;stroke:#FFFFFF;stroke-width:2;stroke-miterlimit:10;}
	.st3{fill:#AABDEF;stroke:#FFFFFF;stroke-width:2;stroke-miterlimit:10;}
	.st4{fill:#4769FF;stroke:#FFFFFF;stroke-width:2;stroke-miterlimit:10;}
	.st5{fill:#FFFFFF;}
	.st6{fill:#0010C0;stroke:#FFFFFF;stroke-width:2;stroke-miterlimit:10;}
	.st7{fill:#00023A;stroke:#FFFFFF;stroke-width:2;stroke-miterlimit:10;}
	.st8{fill:#656565;}
</style>
<rect x="1.9" class="st0" width="723.1" height="740"/>
<g id="layer1">
	<path id="path1495" class="st1" d="M314.5,5.2C314.5,5.2,314.5,5.2,314.5,5.2C314.5,5.2,314.5,5.2,314.5,5.2
		c-0.1,0-0.2,0.1-0.3,0.1c-0.1,0-0.1,0.1-0.2,0.1c-0.1,0-0.2,0.1-0.2,0.2c-0.8,0.8-1,2.6-1,3.8c0.1,1.9,6,8.3,6,8.3
		s11.1,1.4,12.9,2.3s4.2,6,4.2,6l-0.4,1.1l-5.2,3.1l-6.5-0.3L312,26.3c0,0-6.5-0.6-9.8,0.3s-9.8,7.2-10.4,8.5c0,0,0,0-0.1,0.1
		c0,0,0,0,0,0c0,0-0.1,0.1-0.1,0.1c-0.1,0.2-0.3,0.3-0.5,0.3c0,0-0.1,0.1-0.2,0.1c-0.8,0.2-1.7-0.3-1.8-0.3c0,0-0.3-2.6-2-5.2
		c-1.6-2.6-2.9-3.3-4.3-5.2c-0.7-1-0.6-1.7-0.8-2.3c0,0,0,0,0-0.1c0,0-0.1-0.1-0.1-0.2c-0.3-0.5-1-0.9-2.7-1.5
		c-3.9-1.3-13.3-0.6-15.7,1.6c-2.3,2.3,0,8.5,0,8.5c0,0,1,3.9-2.3,3.6s-4.9-2.9-4.9-2.9l-5.3,1.3l-2,1.3c0,0-2.6-4.6-4.6-4.3
		s-5.2,4.3-5.2,4.3c0,0-4.6,4.2-7.2,3.3c-2.6-1-8.2-3.9-10.1-5.2c-2-1.3-15.7-10.1-15.7-10.1c0,0-3.3,7.2-6.6,7.2
		c-3.3,0-6.2,0.7-8.5,0c-2.3-0.7-6.6-2.6-6.6-2.6c0,0-2.3-4.6-3.9-5.2s-16.7-2.6-16.7-2.6c0,0,0.7,7.5-0.7,9.8
		c-1.3,2.3-2.3,4.6-2.3,4.6h-7.8c0,0-11.3-3.7-13-3.3c0,0-0.1,0-0.1,0c-1.3,0.7-4.2,4.2-7.8,3.3s-7.2,2.6-8.5,3c0,0-0.1,0-0.1,0
		c-0.3,0.1-1,0.5-2,1l0.1-0.7l-17,1.3L86.8,41l-10.1,5.6l-6.8,7.2l-1,1.6l-13.7-5.9l-6.8-1.7l-11.4,1L29,44.2l-7.5,0.7L8.4,47.8
		l-5.6,4.3l-1,4.9l3.3,13.4L11,82.5l12.8,7.2c0,0,4.6-0.7,7.2,0.3s10.8,6.5,10.8,6.5l9.5,9.2l1.6,5.9l4.9,4.3l-2.6,13.4l1.3,7.2
		l8.5,11.1l2.6,8.8l3.6,7.5l2.9,5.6l9.1-7.8l1.7-1.3L77.3,173l-6.5,6.2l-1.3,3.3l-2.9,3.6l-1.3,6.8l-2.3,1.6h-1.6l-2,5.3L60,205
		l-4.9,4.9l-5.9,5.9l-3.6,2l-3.9,0.3v9.5l-16.3,9.1c0,0-5.9,0.7-7.2,3.3s1,5.2,1,5.2l4.6,5.3L30,254l1.3,2.3l0.4-0.6l0.3,0.9
		c0,0,3.9,5.9,2.6,9.8c-1.3,3.9-5.9,14.4-5.9,14.4c0,0,0,0,0,0c-0.3,0.2-1.9,1.5-1.3,3.9c0.7,2.6,5.2,8.5,6.5,11.1
		c1.3,2.6,7.2,10.5,7.2,10.5l11.3,3.1l0.5,2.8l-3.3,6.5l1.3,7.8l6.5,6.5c0,0,2,2.6-0.7,3.3c-2.6,0.7-4.6,0-7.2,1.3
		c-2.6,1.3-5.9,2.6-8.5,3.9c-1.3,0.7-2.4,1-2.9,1.6c-0.5,0.6-0.7,1.4-0.3,3c0.7,3.3,7.2,4.6,7.2,4.6c0,0,1.3,6.5,4.6,7.2
		s39.9,13.7,39.9,13.7c0,0,2,5.2,5.2,5.2c3.3,0,16.3,4.6,16.3,4.6s18.7-1.1,26.2-2.6c9.8-2,39.2-4.6,39.2-4.6l16.3,4.6v-0.5
		c0.9,0.6,2,1.3,4,2.7c2.8,1.8,12.4,8.7,14.7,11c2.3,2.3,5,4.6,6.9,5.5c1.8,0.9,2.3,2.3,4.6,5.5s3.7,5.5,5.5,6.9
		c1.8,1.4,4.6,3.2,5.5,5c0.9,1.8,2.8,6.4,3.2,8.3c0.5,1.8,4.6,5,6.9,7.8c1.5,1.8,1.8,2.7,1.9,3c0,0,0,0.1,0,0.1c0,0,0,0,0,0
		c0,0,0,0,0,0c0,0,0,0,0,0c0,0,0,0,0,0c0,0,0,0,0,0c0,0-0.5,5.5,1.4,6.9c0.4,0.3,0.7,0.5,1,0.6c0.1,0,0.2,0.1,0.3,0.1
		c0,0,0.1,0,0.1,0c0.1,0,0.3,0,0.4-0.1c0,0,0,0,0.1,0c0,0,0.1,0,0.1,0c0,0,0,0,0,0c0,0,0,0,0,0c0.1,0,0.1-0.1,0.2-0.2c0,0,0,0,0,0
		c0,0,0-0.1,0.1-0.1c0,0,0,0,0-0.1c0,0,0,0,0,0c0,0,3.2,0.9,4.6,2.8c1.4,1.8,5.1,6.4,6,8.3c0.9,1.8-0.9,3.2,0.9,4.6
		c0.3,0.2,0.6,0.4,0.8,0.4c0,0,0,0,0,0c0,0,0.1,0,0.1,0c0,0,0.1,0,0.1,0c0,0,0,0,0,0c0,0,0,0,0,0c0,0,0.1,0,0.1,0c0,0,0.1,0,0.1,0
		c0,0,0,0,0,0c0,0,0.1,0,0.1,0c0,0,0,0,0,0c0,0,0-0.1,0-0.1c0.3-0.4,0.5-1.3,1.5-2.1c1.8-1.4,4.1-4.6,5.9-3.2
		c1.8,1.4,1.4,2.8,1.4,4.6c0,1.8,0.5,6.4,1.4,9.2c0.9,2.8,1.8,6,1.8,6l1.8-1.4c0,0,1.8-3.2,4.6-2.8c0.2,0,0.4,0.1,0.6,0.2
		c2.2,1.2,2.7,6.7,2.7,6.7s6,0.4,8.3,0.9s7.8-0.4,9.6-0.9s11.5-4.6,13.8-4.6s6.4,4.6,6.4,4.6s1.4,0.4,3.7,0.4s4.6-2.7,6.9-4.1
		s9.6-2.8,9.6-2.8s9.2-8.7,12.4-11c1.9-1.4,2.9-1.3,3.3-1c0.1,0.1,0.2,0.2,0.2,0.2c0,0,0.1,0.1,0.1,0.2c0,0,0,0,0,0l0.5-1.5
		c0.2,0.1,0.4,0.2,0.4,0.2c0,0,7.3,2.8,9.2,4.6c1.8,1.8,7.8,15.1,9.2,17s7.8,6.9,7.8,9.6s-2.8,4.6-0.9,6.4c1.8,1.8,2.3,6,2.3,6
		s-2.3,10.5-2.3,12.4c0,1.8,1.8,5.5,4.1,6c2.3,0.5,6.4-1.4,6.4-1.4l4.6-6.9c0,0,2.1-0.1,5.6-0.1c5.2,0.1,8.2,2.8,8.2,2.8l2.8,13.3
		c0,0,5.4,5.8,7.7,6c0,0,0.1,0,0.1,0c2.3,0,9.2,1.4,9.2,1.4s6.9-0.9,10.1,1.4c3.2,2.3,5.5,8.3,5.5,8.3s4.6,2.7,6.4,0.9
		s20.6-19.7,23.4-19.7c2.8,0,6.4,1.4,9.2,0c2.8-1.4,6.9-2.3,8.7-4.1c1.8-1.8,9.6-7.3,9.6-7.3l2.8-0.5l-0.1-0.3
		c0.3,0.1,0.5,0.1,0.6,0.1c0,0,0,0,0,0c0,0,19.5,5.2,22.7,9.1s5.2,5.8,5.2,8.4c0,2.6-2.6,14.3-1.9,17.5c0.6,3.2,5.2,9.1,5.2,9.1
		l-8.4,9.8v5.8c-0.3,0.1-5.1,2-1.9,5.2c3.2,3.2,7.8,7.8,7.8,7.8l9.7,0.7c0,0,15.6,12.3,18.8,13c3.2,0.6,12.4,5.2,13,9.1
		s-2,9.1-2,12.3s-2.6,6.5-1.9,9.1c0.6,2.6,6.5,14.3,6.5,14.3s3.9,1.3,4.5,3.9s0,5.2,0,5.2c0,0,0.7,5.2,3.3,7.1
		c2.6,1.9,8.4,5.8,7.8,8.4c-0.6,2.6,3.3,11,3.3,11c0,0,6.5,8.4,5.2,11c-1.3,2.6-3.3,7.1-3.3,7.1l6.5,20.1l3.3,22.1
		c0,0,10.4,0.6,13.6,0s16.2-9.7,16.2-9.7s10.4-7.2,14.9-7.8s13.6,0,17.5,2.6c3.7,2.4,5,3.1,5.2,3.2c0,0,4.6-1.3,7.2-0.6
		c2.6,0.6,7.8,4.5,10.4,3.9c2.4-0.6,3.1-1.7,3.3-1.9l-0.7-9.8c0,0-7.8-10.4-7.1-13s8.4-24.7,8.4-27.3s-3.9-4.5-3.9-4.5l5.2-5.8
		l-20.1-25.3l-8.4-5.8l3.9-4.5c0,0,7.8,1.9,10.4,1.3s5.8,0,5.8,0l6.5,4.5l10.4-5.8l5.2-7.8l3.9-1.3l-2.6-3.3l-7.2-1.9l-2.6-5.2
		c0,0-5.2-2-5.8-4.6s-3.9-14.9-6.5-16.9c-2.6-1.9-10.4-7.1-10.4-7.1c0,0-5.8,0.7-8.4-1.9s-9.7-10.4-9.1-14.3
		c0.6-3.9,6.5-10.4,6.5-10.4c0,0,9.7-3.9,12.3-4.6s7.1-5.2,9.1-7.8s7.1-2.6,7.1-2.6v-5.2l-1.3-1.9l9.1-8.4l-5.8-10.4l-3.2-2.6
		c0,0-17.5,7.1-20.1,5.2c-2.6-1.9-5.2-6.5-5.2-6.5l1.3-7.2l-5.8,2l-5.8-8.4L617,514.6c0,0-6.5-12.3-9.1-16.2
		c-2.6-3.9-16.2-14.9-18.2-17.5s-7.8-16.9-7.8-16.9s-5.2-9.1-9.8-9.1c-4.5,0-13-1.3-13-1.3l-16.9-8.4l-9.5-15.8
		c-0.6-3.4-2.4-12.6-3.9-14.8c-1.8-2.8-4.2-6-8.3-8.7c-4.1-2.8-16.5-6-19.7-6c-3.2,0-11.9,2.3-14.2,1.4c-2.3-0.9-4.6-1.9-5.1-3.7
		c-0.3-1.2,0-3.5,0.2-4.8c0.8-1,4.2-4.9,6.2-5.7c2.3-0.9,24.8-3.7,28-3.7s15.2,4.1,17,5.1c0,0,0,0,0.1,0c1.7,1,1.8,7.3,3,8.2
		c0,0,0.1,0,0.1,0c0,0,0,0,0,0c0,0,0,0,0,0c1.4,0.5,4.2-1.4,4.2-1.4c0,0,0-6,2.3-6.9s6.9-1.8,6.9-1.8l8.3-14.7c0,0-2.8-3.2-2.3-5.5
		s-0.4-5.1,2.3-6c2.8-0.9,7.8-0.5,9.6-2.8c0,0,0.1-0.1,0.1-0.1c1.7-2.5-0.1-10.9-0.1-10.9l6.4-15.6c0,0,0-4.6-1.4-6.9
		s-4.6-2.3-4.6-4.1s0-4.1,0-4.1s2.3-3.2-0.5-6s-8.2-7.4-11-9.2c-2.8-1.8-22.5-4.1-23.9-7.3s-1.4-6.4-1.4-6.4s-21.6-8.7-25.7-11
		c-4.1-2.3-10.1-7.8-10.1-7.8l-9.7-0.9c0,0-3.7-0.4-7.3-3.2s-29.4-23.9-30.3-29.4c-0.9-5.5,2.3-11,3.7-12.8c1.4-1.8,2.3-3.2,0.4-5.1
		c-1.8-1.8-8.7-1.8-11.5-4.6c-2.8-2.8-2.7-4.1-3.2-7.3c-0.1-1-0.2-1.5-0.2-1.7c0,0,0,0,0,0c0,0,0,0,0,0c0,0,0,0,0,0c0,0,0,0,0-0.1
		c-0.2-0.3-0.7-0.4-2.5-2.7c-0.4-0.5-0.8-1.2-1.3-1.9c0.4-2,1.3-6.3,1.7-7.8c0.5-1.8,8.3-13,8.3-13c0,0,24-15.7,26.3-16.6
		s12-7.8,12-7.8s10.2-11.5,6.5-17.1c-3.7-5.5-10.2-10.2-10.2-10.2s-15.7-6.5-17.6-8.8s-2.3-5.5-5.1-8.8s-6.9-1.8-6.9-1.8l-4.6-9.3
		l1.8-3.7c0,0,2.3-0.5,2.8-2.8c0.5-2.3-0.5-5.1-0.5-5.1c0-0.1-0.1-0.8-0.4-1.3c0-0.1-0.1-0.1-0.2-0.2c-0.6-0.6-1.8-0.8-4,0.6
		c-4.6,2.8-8.3,7.8-8.3,7.8s-5.5,4.6-8.3,4.2c-2.8-0.5-4.6-3.2-6-5.1s-1.8-5.1-5.5-7.4c-3.7-2.3-4.2-1.8-6.5,0
		c-2.3,1.8-3.2,5.1-6,5.1c-2.6,0-3.6-1.2-3.7-1.4c0,0-2.8-4.2-2.3-6.5c0.1-0.7,0.3-1.2,0.3-1.4c0,0,0,0,0-0.1c0,0,0,0,0,0
		c0,0,0,0,0,0c0,0,0,0,0,0c0,0,0,0,0,0c0,0,0,0,0,0c0,0,0,0,0,0c0,0,0,0,0,0c-0.3-0.1-1-0.2-2.5-0.6c-3.2-0.9-4.2,0.4-6.5-1.9
		c-2.3-2.3-0.5-0.9-2.3-5.1c-1.3-3-1.7-5.2-2.5-5.8c0,0,0,0,0,0c0,0-0.1,0-0.1-0.1c0,0,0,0,0,0c0,0-0.1,0-0.1,0c0,0,0,0-0.1,0
		c0,0-0.1,0-0.1,0c-0.1,0-0.2,0-0.3,0.1c-0.1,0.1-0.3,0.1-0.4,0.3c-1.8,1.4-3.7,2.8-3.7,5.6s0.5,7.8,0.5,7.8s-3.7-3.2-5.6-3.2
		s-5.5,0.4-5.5,0.4s-2.3-1.4-1.8-3.2c0.4-1.7-1.1-7.8,0.5-10.2c0.1-0.2,0.3-0.3,0.4-0.5c2.3-1.8,5.6-2.3,7.4-2.3s2.8,1.4,6.9,0
		c4.2-1.4,6.9-3.7,6.9-3.7c0,0,8.7,1.6,10.4-0.8c0.1-0.2,0.2-0.4,0.3-0.6c0.5-3.2,2.3-6,0-7.8c-1.7-1.4-1.9-2.7-2.8-3.3
		c-0.3-0.2-0.7-0.3-1.3-0.3c-2.3,0-8.3-0.9-8.3-0.9c0,0-4.2-7.4-8.3-8.8c-4.2-1.4-5.1,2.3-8.8,1.8s-15.3-1.4-15.3-1.4l1.4-2.8
		c0,0,8.3-3.2,8.8-6.5c0.5-3.2-7.4-15.7-7.4-15.7c0,0,0,0,0,0c0,0,0,0,0,0c0,0,0-0.1,0-0.1c0,0,0,0,0,0c0,0,0,0,0,0c0,0,0,0,0,0
		c0,0,0-0.1-0.1-0.1c0,0-0.1-0.1-0.1-0.1c0,0,0,0,0,0c0,0,0,0,0,0c0,0-0.1,0-0.2-0.1c0,0-0.1,0-0.1,0c0,0-0.1,0-0.1,0
		c-0.1,0-0.2,0-0.3,0c0,0,0,0,0,0c-0.3,0.1-0.8,0.2-1.4,0.6c-2.3,1.4-6,5.1-6,5.1s-1.8,1.9-4.2,2.8c-2.3,0.9-4.2-0.9-8.3-2.3
		s-6-2.8-7.8-2.3c-0.9,0.2-1.3,0.9-1.7,1.3c0,0,0,0,0,0c0,0,0,0,0,0c0,0-0.1,0-0.1,0c0,0,0,0-0.1,0c0,0-0.1,0-0.1,0c0,0,0,0,0,0
		c0,0-0.1,0-0.1,0c0,0,0,0,0,0c-0.3,0-0.8-0.3-1.5-1c-2.3-2.3-5.6-6.9-5.6-6.9s-1.8-1.4-3.7-1.8C314.9,5.2,314.7,5.2,314.5,5.2
		C314.6,5.2,314.6,5.2,314.5,5.2C314.6,5.2,314.5,5.2,314.5,5.2z M349.2,65.6c0.1,0,0.1,0,0.2,0c1.2,0,2.5,0.1,3.3,0.4
		c2,0.7,2.5,1.3,5.9,3.3c3.4,2,2.5,3.2,3.7,5.4c1.2,2.2,0.4,3.9-0.4,5.5c-0.8,1.6-4.1,2.8-7.5,3.3c-3.4,0.5-5.5-3.3-7-5c0,0,0,0,0,0
		c0,0,0,0,0,0c0,0,0,0,0,0c0,0,0-0.1,0-0.1c-0.2-1-2.5-5.9-3.1-6.7c0,0,0-0.1-0.1-0.1c0,0,0,0,0-0.1c0,0,0-0.1,0-0.1
		c-0.3-1.1,0.8-3.7,1.6-4.8c0.5-0.6,1.8-0.9,3.2-1C349.1,65.6,349.2,65.6,349.2,65.6z M398.3,91.2C398.3,91.2,398.3,91.2,398.3,91.2
		c0.6,0,1,0.1,1.3,0.2c0.9,0.4,1.1,1.3,1.9,2c1.2,1.1,1.2,1.5,2.7,3.1c0.4,0.5,0.7,0.9,0.8,1.2c0,0.1,0,0.1,0,0.2c0,0,0,0.1,0,0.1
		c0,0,0,0.1,0,0.1c0,0,0,0,0,0.1c0,0,0,0,0,0.1c0,0.1-0.1,0.2-0.1,0.2c-0.1,0.2-0.3,0.4-0.4,0.6c-0.4,0.7-0.4,1.3-1.4,2.1
		c-1.1,0.8-1.6,0.9-2.5,1.1s-1.2-0.5-4.3-2.4c0,0,0,0,0,0c0,0,0,0,0,0c0,0,0,0,0,0c-0.4-0.2-1.6-1.7-2.4-2.4c-0.9-0.8-0.9-2.5-0.3-4
		c0.7-1.5,2.1-1.7,4.6-2.1c0.1,0,0.2,0,0.3-0.1c0,0,0,0,0,0C398.2,91.2,398.2,91.2,398.3,91.2z M476.9,191.5
		c-2.3,0.3-4.2,2.9-5.8,3.7c-1.8,0.9-3.7,2.8-3.7,2.8c0,0-2.8,0.9-2.8,3.2c0,1.7,1.3,3.2,1.6,3.6c0,0,0,0,0,0c0,0,0,0,0,0
		c0,0,0,0,0,0c0,0,0,0,0,0c0,0,0,0,0,0c0,0-0.1,0-0.1-0.1c0,0,0,0,0,0c-0.2,0.3-3.1,5.1,0.9,7.8c4.1,2.8,6.9,3.7,6.9,3.7l5-6.9
		l5.1-4.6c0.2-0.1,3.2-1.9,1.4-5.5c-1.8-3.7-4.6-7.3-7.3-7.8c-0.3,0-0.5-0.1-0.8-0.1c0,0,0,0,0,0c0,0-0.1,0-0.1,0c0,0,0,0,0,0
		c0,0,0,0,0,0C477,191.5,477,191.5,476.9,191.5z M332.2,447.8c0.1,0,0.1,0,0.2,0c1.3-0.1,2.8,1.3,3.8,2.1c1.2,1,1.8,3.5,2,4.8
		s0.3,3-0.3,4.5s-1.8,1.7-2.7,2.3c0,0-0.1,0-0.1,0c0,0-0.1,0-0.1,0.1c-1.1,0.5-4.5,0-6.3-0.8c-2-0.8-1.3-2.7-1.7-5.8l0.5-1.8
		c0,0,2.7-3.9,4-5c0.1-0.1,0.2-0.2,0.4-0.3C331.9,447.8,332.1,447.8,332.2,447.8z"/>
	<path id="path1757" class="st2" d="M31.3,256.3l6.9-9.8l7.5-2.3l6.2-6.9l11.1-0.7l3.3-2.6l4.2-0.7l2.9,2.9l2,0.3h2.9l2-2.3l3.3-1.6
		l8.8,3.9l7.8,1l1.6,0.7l3.9,1.3l2.6-3.3l9.8-2.6l1.3,7.8l4.2,2l5.9,0.7c0,0,4.2-2.6,5.6-2.6c1.3,0,4.2,0.7,4.2,0.7l2.6,0.7l5.9-0.7
		l6.2-1.3l5.6-2.3l1.3-3.9l-5.6-6.9l-0.3-5.9l2.9-4.2l-1.6-5.6l-6.9,1.6c0,0-1-1.6-1-2.9c0-1.3-0.3-5.9-0.3-7.5s-1-5.6-1-5.6
		s-2.3-3.3-4.2-4.2s-2.9-3.6-2.9-3.6h-3.6l-1.6-3.3l4.6-3.3l5.2-2.9l1.3-5.6c0,0,0.3-1,2.6-1.6c2.3-0.7,4.6-0.3,4.6-0.3l3.6-0.3
		l-0.3-5.2l5.2-2l0,0l-3.6-3.3l-4.9,0.3l-3.6-3.3c0,0-0.7-1.3-2.6,0.3c-2,1.6-3.9,2.9-3.9,2.9l-2.9,1l-2.3-7.5l1-4.2l-3.6-3.6
		l-5.6,1.6l-4.6,1.6l-0.7-6.2l-1.3-4.9l-2.6-7.5l4.2-6.2l3.3-5.2l6.9-2.3l8.2-0.7l3.6-5.2l-0.3-6.5l6.5-3.6l0.3-4.9l-9.1-1l-5.2-0.3
		c0,0-2.6-1.3-2-2.6s2.6-6.5,2.6-6.5l-2-6.5l-1.6-6.9l-2.3-4.9l-9.8-5.9l-3.3-4.2l1.6-3.9l-0.7-11.8l0.7-6.9l-17,1.3L86.8,41
		l-10.1,5.6l-6.9,7.2l-1,1.6l-13.7-5.9l-6.9-1.6l-11.4,1L29,44.2l-7.5,0.7L8.4,47.8l-5.6,4.2l-1,4.9l3.3,13.4L11,82.5l12.7,7.2
		c0,0,4.6-0.7,7.2,0.3c2.6,1,10.8,6.5,10.8,6.5l9.5,9.1l1.6,5.9l4.9,4.2l-2.6,13.4l1.3,7.2l8.5,11.1l2.6,8.8l3.6,7.5l2.9,5.6
		l9.1-7.8l1.6-1.3L77.4,173l-6.5,6.2l-1.3,3.3l-2.9,3.6l-1.3,6.9l-2.3,1.6h-1.6l-2,5.2L60,205l-4.9,4.9l-5.9,5.9l-3.6,2l-3.9,0.3
		v9.5l-16.3,9.1c0,0-5.9,0.7-7.2,3.3c-1.3,2.6,1,5.2,1,5.2l4.6,5.2L30,254L31.3,256.3z"/>
	<path id="path1759" class="st3" d="M164.3,19.1c0,0,0.6,7.5-0.7,9.8c-1.3,2.3-2.3,4.6-2.3,4.6h-7.8c0,0-11.3-3.7-13-3.3
		c0,0-0.1,0-0.1,0c-1.3,0.7-4.2,4.2-7.8,3.3s-7.2,2.6-8.5,3c0,0,0,0-0.1,0c-0.3,0.1-1,0.5-2,1l-0.6,6.2l0.7,11.8l-1.7,3.9l3.3,4.2
		l9.8,5.9l2.3,4.9l1.6,6.8l2,6.5c0,0-2,5.2-2.6,6.5c-0.1,0.3-0.1,0.6,0,0.8c0.4,1,2,1.8,2,1.8l5.2,0.3l9.2,1l-0.3,4.9l-6.5,3.6
		l0.3,6.5l-3.6,5.2l-8.2,0.7l-6.9,2.3l-3.3,5.3l-4.3,6.2l2.6,7.5l1.3,4.9l0.7,6.2l4.6-1.6l5.6-1.6l3.6,3.6l-1,4.3l2.3,7.5l2.9-1
		c0,0,1.9-1.3,3.9-2.9c0.6-0.5,1.1-0.8,1.5-0.8c0.4-0.1,0.7,0.1,0.9,0.2c0,0,0.1,0.1,0.1,0.1c0,0,0,0,0,0c0,0.1,0.1,0.1,0.1,0.1
		l3.6,3.3l4.9-0.3l3.6,3.3l-0.8,0.3l12.9,5.3l9.8-4.3l10.4,1l5.9,3.3l3.9-1c0,0,4.6,1.6,7.2,3.6c2.6,2,4.6,5.6,4.6,5.6l1.3,2.3
		l3.6,0.3c0,0,1.3-3,4.3-4.6c2.9-1.6,11.4-1.6,11.4-1.6c0,0,2-0.7,3.6,0.7c1.6,1.3,3.3,4.3,3.3,4.3l3.3-2.3l4.9-2.6l7.8,3.9l1.3,3.9
		l8.5,0.3h7.8l9.2,4.6l9.5,3.9l11.4-8.8l3.3-3.9l-1.9-3.6l-5.3-4.9l-2.3-0.7l-5.9,3.3l-5.9-1.3l0.7-4.6l-0.7-7.2l-0.7-8.2
		c0,0,5.2-4.6,7.5-6.5c2.3-2,7.5-1,7.5-1l8.5-1.3l4.6-5.2l5.6-3.9c0,0-1-11.1,0-13.8c0.7-1.8,1.3-2,1.7-2c0,0,0.1,0,0.1,0
		c0,0,0,0,0,0c0,0,0,0,0,0c0,0,0.1,0,0.1,0c0,0,0,0,0,0l5.5-0.3l2.9-2l-3.6-2.9l-4.6-3.3l-1.3-2.6l-1-3.3l-5.6-3.3
		c0,0-1.9,0.7-3.3,2c-1.3,1.3-4.3,0.7-4.3,0.7l-3.9-3.3l2.9-4.6l-2.6-3.6l-4.6-2.6l-2-3.3l4.6-2.3l5.6-4.3l6.5-2.6l9.8,0.3l2,0.7
		l9.2-2.3c0,0,4.3-2.3,4.3-3.6s0.3-4.3,0.3-4.3l-3.3-8.5l-2-2l-3.9-0.7c0,0-4.6,2.6-5.3,0.7c-0.7-2-2.3-9.8-2.3-9.8l6.5-4.6l4.9-5.9
		l3.9-5.2l-3.6-5.3l-5.5,3.3l-6.5-0.3L312,26.2c0,0-6.5-0.6-9.8,0.3s-9.8,7.2-10.4,8.5c0,0,0,0.1-0.1,0.1c-0.1,0.2-0.4,0.4-0.6,0.5
		c0,0-0.1,0.1-0.2,0.1c-0.8,0.2-1.8-0.3-1.8-0.3s-0.3-2.6-2-5.2c-1.6-2.6-2.9-3.3-4.3-5.2c-0.7-1-0.6-1.7-0.8-2.3
		c0,0-0.1-0.1-0.1-0.2c-0.3-0.5-1-0.9-2.7-1.5c-3.9-1.3-13.3-0.6-15.7,1.6c-2.3,2.3,0,8.5,0,8.5c0,0,1,3.9-2.3,3.6
		c-3.3-0.3-4.9-2.9-4.9-2.9l-5.3,1.3l-2,1.3c0,0-2.6-4.6-4.6-4.3s-5.2,4.3-5.2,4.3c0,0-4.6,4.2-7.2,3.3c-2.6-1-8.2-3.9-10.1-5.2
		c-2-1.3-15.7-10.1-15.7-10.1c0,0-3.3,7.2-6.6,7.2c-3.3,0-6.2,0.7-8.5,0c-2.3-0.7-6.6-2.6-6.6-2.6s-2.3-4.6-3.9-5.2
		S164.3,19.1,164.3,19.1z"/>
	<path id="path1764" class="st4" d="M314.6,5.2C314.6,5.2,314.5,5.2,314.6,5.2c-0.2,0-0.3,0.1-0.4,0.1c-0.1,0-0.1,0.1-0.2,0.1
		c-0.1,0-0.2,0.1-0.2,0.2c-0.8,0.8-1,2.6-1,3.8c0.1,1.9,6,8.3,6,8.3s11.1,1.4,12.9,2.3s4.2,6,4.2,6l-0.4,1.1l0.4-0.2l3.6,5.3
		l-3.9,5.2l-4.9,5.9l-6.5,4.6c0,0,1.6,7.8,2.3,9.8s5.3-0.7,5.3-0.7l3.9,0.7l2,2l3.3,8.5c0,0-0.3,2.9-0.3,4.3s-4.3,3.6-4.3,3.6
		l-9.2,2.3l-2-0.7l-9.8-0.3l-6.5,2.6l-5.6,4.3l-4.6,2.3l2,3.3l4.6,2.6l2.6,3.6l-2.9,4.6l3.9,3.3c0,0,2.9,0.7,4.3-0.7
		c1.3-1.3,3.3-2,3.3-2l5.6,3.3l1,3.3l1.3,2.6l4.6,3.3l3.6,2.9l-2.9,2l-5.5,0.3c0,0,0,0,0,0c0,0,0,0,0,0c0,0-0.1,0-0.1,0c0,0,0,0,0,0
		c0,0,0,0,0,0c0,0-0.1,0-0.1,0c0,0,0,0,0,0c0,0,0,0-0.1,0c0,0-0.1,0-0.1,0c0,0,0,0,0,0c0,0-0.1,0-0.1,0c0,0-0.1,0-0.1,0
		c-0.1,0-0.2,0.1-0.2,0.1c-0.1,0-0.1,0.1-0.2,0.2c-0.3,0.3-0.6,0.8-1,1.7c-1,2.6,0,13.8,0,13.8l-5.6,3.9l-4.6,5.2l-8.5,1.3
		c0,0-5.2-1-7.5,1c-2.3,2-7.5,6.5-7.5,6.5l0.7,8.2l0.7,7.2l-0.7,4.6l5.9,1.3l5.9-3.3l2.3,0.7l5.3,4.9l1.9,3.6l-3.3,3.9l-11,8.5
		l0.8,2.8l5.6,5.5l11.1,1.4l3.2-1.4l0.9-5.1l6-4.2l11.1,5.1l17.6,0.5l9.7-4.6l2.8-7.4l-0.5-4.2l6.5-2.8l7.9-6h7.8
		c0,0,2.8,1.4,6.5,2.3s15.7,1.8,15.7,1.8l13.9,12l11.1,11.6c0,0,1.4-6.9,1.8-8.8s8.3-13,8.3-13c0,0,24-15.7,26.3-16.6s12-7.8,12-7.8
		s10.2-11.5,6.5-17.1c-3.7-5.5-10.2-10.2-10.2-10.2s-15.7-6.5-17.6-8.8s-2.3-5.5-5.1-8.8s-6.9-1.8-6.9-1.8l-4.6-9.3l1.8-3.7
		c0,0,2.3-0.5,2.8-2.8c0.5-2.3-0.5-5.1-0.5-5.1s0-1-0.6-1.5c-0.6-0.6-1.8-0.8-4,0.6c-4.6,2.8-8.3,7.8-8.3,7.8s-5.5,4.6-8.3,4.2
		c-2.8-0.5-4.6-3.2-6-5.1s-1.8-5.1-5.5-7.4c-3.7-2.3-4.2-1.8-6.5,0c-2.3,1.8-3.2,5.1-6,5.1c-2.6,0-3.6-1.2-3.7-1.4
		c0,0-2.8-4.2-2.3-6.5c0.2-0.8,0.3-1.3,0.3-1.5c0,0,0,0,0,0c0,0,0,0,0,0c0,0,0,0,0,0c0,0,0,0,0,0c0,0,0,0,0,0c0,0,0,0,0,0
		c0,0,0,0,0,0c-0.3-0.1-1-0.2-2.5-0.6c-3.2-0.9-4.2,0.4-6.5-1.9c-2.3-2.3-0.5-0.9-2.3-5.1c-1.3-3-1.7-5.2-2.5-5.8c0,0,0,0,0,0
		c0,0-0.1,0-0.1-0.1c0,0,0,0,0,0c0,0-0.1,0-0.1,0c-0.3,0-0.6,0.1-0.9,0.3c-1.8,1.4-3.7,2.8-3.7,5.6s0.5,7.8,0.5,7.8
		s-3.7-3.2-5.6-3.2s-5.5,0.4-5.5,0.4s-2.3-1.4-1.8-3.2c0.4-1.7-1.1-7.8,0.5-10.2c0.1-0.2,0.3-0.3,0.4-0.5c2.3-1.8,5.6-2.3,7.4-2.3
		s2.8,1.4,6.9,0c4.2-1.4,6.9-3.7,6.9-3.7c0,0,10.2,1.8,10.6-1.4c0.5-3.2,2.3-6,0-7.8c-1.7-1.4-1.9-2.7-2.8-3.3
		c-0.3-0.2-0.7-0.3-1.3-0.3c-2.3,0-8.3-0.9-8.3-0.9c0,0-4.2-7.4-8.3-8.8c-4.2-1.4-5.1,2.3-8.8,1.8s-15.3-1.4-15.3-1.4l1.4-2.8
		c0,0,8.3-3.2,8.8-6.5c0.5-3.2-7.4-15.7-7.4-15.7c0,0,0,0,0,0c0,0,0-0.1,0-0.1c0,0,0,0,0,0c0,0,0,0,0,0c0,0,0,0,0,0
		c0,0,0-0.1-0.1-0.1c0,0-0.1-0.1-0.2-0.2c0,0,0,0,0,0c0,0-0.1,0-0.2-0.1c0,0-0.1,0-0.1,0c0,0-0.1,0-0.1,0c-0.1,0-0.2,0-0.3,0
		c0,0,0,0,0,0c-0.3,0.1-0.8,0.2-1.4,0.6c-2.3,1.4-6,5.1-6,5.1s-1.8,1.9-4.2,2.8c-2.3,0.9-4.2-0.9-8.3-2.3s-6-2.8-7.8-2.3
		c-0.9,0.2-1.3,0.9-1.7,1.3c0,0,0,0,0,0c0,0,0,0,0,0c0,0-0.1,0-0.1,0c0,0,0,0-0.1,0c0,0-0.1,0-0.1,0c0,0,0,0,0,0c0,0-0.1,0-0.1,0
		c0,0,0,0,0,0c-0.3,0-0.8-0.3-1.5-1c-2.3-2.3-5.6-6.9-5.6-6.9s-1.8-1.4-3.7-1.8C314.9,5.2,314.7,5.2,314.6,5.2z M349.4,65.6
		c1.2,0,2.5,0.1,3.3,0.4c2,0.7,2.5,1.3,5.9,3.3c3.4,2,2.5,3.2,3.7,5.4c1.2,2.2,0.4,3.9-0.4,5.5c-0.8,1.6-4.1,2.8-7.5,3.3
		c-3.4,0.5-5.5-3.3-7-5c0,0,0,0,0,0c0,0,0,0,0,0c0,0,0,0,0,0c0,0,0-0.1,0-0.1c-0.2-1-2.5-5.9-3.1-6.7c0,0,0-0.1-0.1-0.1
		c0,0,0,0,0-0.1c-0.4-1.1,0.7-3.8,1.6-4.9c0.5-0.6,1.8-0.9,3.2-1C349.2,65.6,349.3,65.6,349.4,65.6z M398.3,91.2
		c0.5,0,0.9,0.1,1.2,0.2c0.9,0.4,1.1,1.3,1.9,2c1.2,1.1,1.2,1.5,2.7,3.1c1,1,0.9,1.5,0.7,1.9c-0.1,0.2-0.3,0.4-0.4,0.6
		c-0.4,0.7-0.4,1.3-1.4,2.1c-1.1,0.8-1.6,0.9-2.5,1.1s-1.2-0.5-4.3-2.4c0,0,0,0,0,0c0,0,0,0,0,0c0,0,0,0,0,0
		c-0.4-0.2-1.6-1.7-2.4-2.4c-0.9-0.8-0.9-2.5-0.3-4c0.7-1.5,2.1-1.7,4.6-2.1c0.1,0,0.2,0,0.3-0.1c0,0,0,0,0,0
		C398.2,91.2,398.3,91.2,398.3,91.2z"/>
	<path id="path1769" class="st4" d="M160.9,165.8l-4.4,1.7l0.3,5.2l-3.6,0.3c0,0-2.3-0.3-4.6,0.3c-1.5,0.4-2.2,1-2.5,1.4
		c-0.1,0.1-0.1,0.2-0.2,0.3l-1.3,5.6l-5.2,2.9l-4.6,3.3l1.6,3.3h3.6c0,0,1,2.6,2.9,3.6s4.3,4.3,4.3,4.3s1,3.9,1,5.6
		c0,1.6,0.3,6.2,0.3,7.5c0,1.3,1,3,1,3l6.9-1.7l1.6,5.6l-2.9,4.3l0.3,5.9l5.6,6.9l-1.3,3.9l-5.5,2.3l-6.2,1.3l-5.9,0.7l-2.6-0.7
		c0,0-2.9-0.7-4.3-0.7s-5.6,2.6-5.6,2.6l-5.9-0.7l-4.3-2l-1.3-7.8l-9.8,2.6l-2.6,3.3l-3.9-1.3l-1.6-0.7l-7.8-1l-8.8-3.9l-3.3,1.6
		l-1.9,2.3h-3l-1.9-0.3l-2.9-2.9l-4.3,0.7l-3.3,2.6l-11.1,0.6l-6.2,6.9l-7.5,2.3l-6.4,9.2l0.3,0.9c0,0,3.9,5.9,2.6,9.8
		c-1.3,3.9-5.9,14.4-5.9,14.4s0,0,0,0c-0.3,0.2-1.9,1.5-1.3,3.9c0.7,2.6,5.2,8.5,6.5,11.1c1.3,2.6,7.2,10.5,7.2,10.5l11.8,3.3
		l5.9-5.9l1.3-2l4.6,5.3v3.9l3.9,3.3l4.6-3.3l2-7.2l6.5,3.3l7.8-0.7l6.5,9.8l7.2,13.1l7.2,2.6l4.6,3.9c0,0,8.5-5.2,12.4-5.9
		c3.9-0.7,15,1.9,15,1.9l13.7,0.7l-3.9-12.4l-3.3-9.2l2.6-2.6l7.8,5.9l5.2,1.3l5.2-5.3l2-7.8l11.1,0.7l9.2,11.8l11.1,10.4l6.5-1.3
		l1.3-4.6l-2-6.5l2-5.9l7.2-1.3l1.3-5.9l-5.9-3.3l-0.7-4.6c0,0,0-4.9,2-5.8c0.1,0,0.1,0,0.2-0.1c0.1,0,0.2,0,0.3,0c0,0,0,0,0.1,0
		c2.6,0,6.6-0.7,6.6-0.7v-15l10.4-3.3c0,0,0.7-2.6,0.7-5.2c0-2.6,5.9-13.1,5.9-13.1c0,0,1.3-10.4,2-13.1c0.7-2.6,7.8-10.4,7.8-10.4
		l-0.7-4.6c0,0,2.6-9.1-0.7-10.4c-3.3-1.3-3.9,0-6.5,0.6c-2.6,0.7-9.2-1.9-9.2-1.9s-4.4-1.5-4.8-3.6c0-0.1,0-0.3,0-0.4
		c0-0.2,0.1-0.4,0.2-0.6c1.1-2.3,2.3-2.6,2.6-2.6l-2.6-1.3l-7.2-2.6c-0.2,0-3.3-0.1-3.9-4.6c-0.7-4.6-0.7-9.2-0.7-9.2l1.1-3
		l-1.1-1.9c0,0-1.9-3.6-4.6-5.6c-2.6-2-7.2-3.6-7.2-3.6l-3.9,1l-5.9-3.3l-10.4-1l-9.8,4.3L160.9,165.8z"/>
	<path id="path1782" class="st3" d="M60,301.7l-1.3,2l-5.9,5.9l-0.5-0.1l0.5,2.8l-3.3,6.5l1.3,7.8l6.5,6.5c0,0,2,2.6-0.7,3.3
		c-2.6,0.7-4.6,0-7.2,1.3c-2.6,1.3-5.9,2.6-8.5,3.9c-1.3,0.7-2.4,1-2.9,1.6c-0.5,0.6-0.7,1.4-0.3,3c0.7,3.3,7.2,4.6,7.2,4.6
		c0,0,1.3,6.5,4.6,7.2c3.3,0.7,39.9,13.7,39.9,13.7c0,0,2,5.2,5.2,5.2c3.3,0,16.3,4.6,16.3,4.6s18.7-1.1,26.2-2.6
		c9.8-2,39.2-4.6,39.2-4.6l16.3,4.6v-10.4l-1.3-6.6l-3.9-5.9l3.9-8.5h7.8l6.5,3.3l6.5-6.5l4.6-6.5l-3.3-8.5l-4.6-5.1l-5.9,1.2
		l-11.1-10.4l-9.2-11.8l-11.1-0.7l-2,7.8l-5.2,5.3l-5.2-1.3l-7.8-5.9l-2.6,2.6l3.3,9.2l3.9,12.4l-13.7-0.7c0,0-11.1-2.6-15-1.9
		c-3.9,0.7-12.4,5.9-12.4,5.9l-4.6-3.9l-7.2-2.6L96,316.1l-6.5-9.8l-7.8,0.7l-6.5-3.3l-2,7.2l-4.6,3.3l-3.9-3.3V307L60,301.7z"/>
	<path id="path1789" class="st3" d="M378.4,171.6l-7.9,6l-6.5,2.8l0.5,4.2l-2.8,7.4l-9.7,4.6l-17.6-0.5l-11.1-5.1l-6,4.2l-0.9,5.1
		l-3.2,1.4l-9.9-1.2l-3.4,4.9l1.8,10.6l0.5,9.2l8.7,2.8c0,0,11.5,6,9.6,9.6c-1.5,2.9-5,5.9-4.9,7.6c0,0,0,0,0,0c0,0,0,0.1,0,0.1
		c0,0,0,0,0,0c0,0,0,0.1,0,0.2c0,0,0,0.1,0,0.1c0,0,0,0.1,0.1,0.1c0,0,0.1,0.1,0.1,0.1c0.1,0.1,0.1,0.2,0.2,0.2c0,0,0.1,0.1,0.1,0.1
		c0.1,0,0.1,0.1,0.2,0.1c2.8,1.4,9.7,3.2,9.7,3.2l-0.9,13.7c0,0,3.6,11.3,3.2,13.3c0,0,0,0,0,0c0,0,0,0,0,0
		c-0.4,2,4.1,15.1,4.1,15.1l-4.1,17l6.4,13.8v21.6c0,0,12.6,8.1,13.8,10.5c0,0,0,0.1,0,0.1c0.9,2.3-2.3,8.3-2.3,8.3l3.7,6.4l6.9,9.2
		l-2.8,9.2l3.7,6.4l4.1,5.5l-2.3,12.8c0,0-3,3.3-2.2,5.2c0,0.1,0.1,0.2,0.2,0.3c0.1,0.1,0.2,0.2,0.3,0.3c0.1,0.1,0.2,0.2,0.3,0.2
		c2.8,1.4,2.3,9.7,2.3,9.7l12.4-0.9l9.2-1.8l6-5l7.8-13.8l6-3.7l10.6-1.4l14.2,0.5l5.1,2.8l5.5-2.8l7.8,2.3l9.7-3.7l11-10.1l6.9-2.3
		l9.2,5c0,0,4.1-5,6.4-5.9c2.3-0.9,24.8-3.7,28-3.7s15.2,4.1,17,5.1c0,0,0,0,0.1,0c1.7,1,1.8,7.3,3,8.2c0,0,0.1,0,0.1,0c0,0,0,0,0,0
		c0,0,0,0,0,0c1.4,0.5,4.2-1.4,4.2-1.4c0,0,0-6,2.3-6.9s6.9-1.8,6.9-1.8l8.3-14.7c0,0-2.8-3.2-2.3-5.5s-0.4-5.1,2.3-6
		c2.8-0.9,7.8-0.5,9.6-2.8c0,0,0.1-0.1,0.1-0.1c1.7-2.5-0.1-10.9-0.1-10.9l6.4-15.6c0,0,0-4.6-1.4-6.9s-4.6-2.3-4.6-4.1s0-4.1,0-4.1
		s2.3-3.2-0.5-6s-8.2-7.4-11-9.2c-2.8-1.8-22.5-4.1-23.9-7.3c-1.4-3.2-1.4-6.4-1.4-6.4s-21.6-8.7-25.7-11
		c-4.1-2.3-10.1-7.8-10.1-7.8l-9.7-0.9c0,0-3.7-0.4-7.3-3.2s-29.4-23.9-30.3-29.4c-0.9-5.5,2.3-11,3.7-12.8c1.4-1.8,2.3-3.2,0.4-5.1
		c-1.8-1.8-8.7-1.8-11.5-4.6c-2.8-2.8-2.7-4.1-3.2-7.3c-0.1-1-0.2-1.5-0.2-1.7c0,0,0,0,0,0c0,0,0-0.1,0-0.1c0,0,0,0,0-0.1
		c-0.2-0.3-0.7-0.4-2.5-2.7c-0.4-0.5-0.8-1.2-1.3-1.9c-0.1,0.6-0.2,1-0.2,1l-11.1-11.6l-13.9-12c0,0-12-0.9-15.7-1.8
		c-3.7-0.9-6.5-2.3-6.5-2.3H378.4z M477.1,191.5c-2.3,0.3-4.3,2.9-6,3.7c-1.8,0.9-3.7,2.8-3.7,2.8c0,0-2.8,0.9-2.8,3.2
		c0,1.7,1.3,3.2,1.6,3.6c0,0,0,0,0,0.1c0,0,0,0,0,0c0,0,0,0,0,0c0,0,0,0,0,0c0,0-0.1,0-0.2-0.1c-0.2,0.3-3.1,5.1,0.9,7.8
		c4.1,2.8,6.9,3.7,6.9,3.7l5-6.9l5.1-4.6c0.2-0.1,3.2-1.9,1.4-5.5c-1.8-3.7-4.6-7.3-7.3-7.8c-0.3,0-0.5-0.1-0.8-0.1
		C477.2,191.5,477.1,191.5,477.1,191.5z"/>
	<path id="path1787" class="st5" d="M404.6,337.9c8,6.2,5.7,6.4,9.2,6.9c3.4,0.5,29.6-0.7,32.1-1.8c2.5-1.1,5.7-6.7,8-7.1
		s6,5.7,8.3,7.8c2.3,2.1,7.1,2.5,8.3,1.8c1.1-0.7,6.9-5.5,9.9-6.4c3-0.9,12.4-0.7,14.9-2.8s6.7-9.2,7.8-12.6
		c1.1-3.4,0.5-11.5-1.6-14.2c-2.1-2.8-19-25.2-21.8-26.8c-2.8-1.6-12.8-3.7-18.4-11.2c-5.5-7.6-18.6-25.9-19.5-26.8
		c-0.9-0.9-4.6-3.4-6.9-2.8c-2.3,0.7-5.5,1.4-6.2,2.5c-0.7,1.1-0.9,1.6-0.7,2.5s6.7,3.4,6.4,4.8c-0.2,1.4-1.1,2.8-1.1,2.8
		s-0.2,2.1-3.2,2.3c-3,0.2-2.8,0.7-4.4-0.2c-1.6-0.9-1.8-2.3-4.4-3.4s-4.1-0.2-6.2-1.8c-2.1-1.6-0.9-3.9-0.9-3.9s0-4.1-1.1-5.3
		c-1.1-1.1-4.6-2.8-7.1-6.2s-5.3-8.3-7.6-10.1c-2.3-1.8-15.4-6.7-17.4-8.3c-2.1-1.6-13.3-14-16.5-13.5c-3.2,0.5-5.5-0.7-7.3-1.1
		c-1.8-0.5-3.4-3.9-6-3.7s-3.4-2.1-5.5-1.1s-3.7,0.2-4.8,2.5c-1.1,2.3-4.1,1.4-1.1,4.8c3,3.4,7.6,9.2,7.6,10.1c0,0.9,3,6.2,1.6,7.6
		c-1.4,1.4-5.5,3.4-7.1,4.1c-1.6,0.7-6.9,3.7-6.9,5c0,1.4-1.1,5.3,1.8,4.4c3-0.9,4.6-4.6,8.3-3.2c3.7,1.4,6.4,3.9,8.3,4.6
		c1.8,0.7,2.1,1.8,3.9,1.6c1.8-0.2,5,2.8,4.8,3.9s0.7,6.9,1.8,8c1.1,1.1,6.2,7.1,7.1,6.9s1.4-2.1,3.4-0.2s1.8,7.3,3.7,8
		c1.8,0.7,9.4,2.5,10.8,2.8c1.4,0.2,4.8,1.6,5.7,0.7c0.9-0.9,3.9-3,3.9-3s2.5-0.7,2.8,0.5c0.2,1.1-0.2,12.4-1.4,14.5
		c-1.1,2.1-1.6,6.9-1.1,9.2s-0.2,25.7,0.2,27.3c0.5,1.6,2.1,11.7,2.3,12.8C401.4,332,404.8,337.9,404.6,337.9z"/>
	<path id="path1797" class="st2" d="M236.9,175.4c-0.5,0-0.8,0.2-0.8,0.2s-8.5,0-11.4,1.6c-2.9,1.6-4.3,4.6-4.3,4.6l-3.6-0.3
		l-0.2-0.3l-1.1,3c0,0,0,4.6,0.7,9.2c0.6,4.4,3.7,4.6,3.9,4.6l7.2,2.6l2.5,1.3c0,0-0.1,0-0.2,0.1c-0.5,0.2-1.4,0.7-2.3,2.5
		c-0.1,0.2-0.2,0.4-0.2,0.6c0,0.1,0,0.2,0,0.3c0,0,0,0,0,0c0.3,2.1,4.8,3.6,4.8,3.6s6.5,2.6,9.2,1.9c2.6-0.7,3.3-1.9,6.5-0.6
		c3.3,1.3,0.7,10.4,0.7,10.4l0.7,4.6c0,0-7.2,7.8-7.8,10.4c-0.7,2.6-2,13.1-2,13.1c0,0-5.9,10.5-5.9,13.1c0,2.6-0.7,5.2-0.7,5.2
		l-10.4,3.3v15c0,0-3.9,0.7-6.6,0.7c0,0,0,0-0.1,0c-0.1,0-0.2,0-0.3,0c0,0,0,0,0,0c-0.1,0-0.1,0-0.2,0.1c-2,0.8-2,5.8-2,5.8l0.7,4.6
		l5.9,3.3l-1.3,5.9L211,307l-2,5.9l1.5,5.1l0.4,0.3l9.6,3.7l5.1-3.7l5,2.3l6-4.6l7.8-3.7l7.8,7.8l4.6,1.4l2.8,10.6l-12.4,7.3
		l2.3,3.7l2.8,0.9l11.5-3.2l2.8,5.5l-6.4,3.2l0.9,1.4l1.8,6.9l3.7,4.6l6-0.9l4.1-3.7h8.3l8.3-4.1l9.2-4.1l4.6-2.8l5.5-2.3l12.8-0.4
		l10.2,0.4c-0.4-0.2-0.6-0.4-0.6-0.4v-21.6l-6.4-13.8l4.1-17c0,0-4.4-12.8-4.1-15.1c0,0,0-0.1,0-0.1c0,0,0,0,0,0s0,0,0,0
		c0.4-2-3.2-13.3-3.2-13.3l0.9-13.7c0,0-6.9-1.8-9.7-3.2c-0.1,0-0.2-0.1-0.2-0.1c0,0-0.1-0.1-0.1-0.1c-0.1-0.1-0.2-0.1-0.2-0.2
		c0,0-0.1-0.1-0.1-0.1c0,0,0-0.1-0.1-0.1c0,0,0-0.1,0-0.1c0,0,0,0,0,0c0,0,0-0.1,0-0.1c0,0,0,0,0,0c0,0,0-0.1,0-0.1c0,0,0,0,0,0
		c0-1.8,3.5-4.7,4.9-7.6c1.8-3.7-9.6-9.6-9.6-9.6l-8.7-2.8l-0.5-9.2l-1.8-10.6l3.4-4.9l-1.2-0.2l-5.6-5.5l-0.8-2.8l-0.4,0.3
		l-9.5-3.9l-9.2-4.6h-7.8l-8.5-0.3l-1.3-3.9l-7.8-3.9l-4.9,2.6l-3.3,2.3c0,0-1.6-2.9-3.3-4.3C238.8,175.4,237.6,175.4,236.9,175.4z"
		/>
	<path id="path1809" class="st3" d="M216.3,338.6l-3.9,5.7l-6.5,6.5l-6.5-3.3h-7.8l-3.9,8.5l3.9,5.9l1.3,6.6v10c0.9,0.6,2,1.3,4,2.7
		c2.8,1.8,12.4,8.7,14.7,11c2.3,2.3,5,4.6,6.9,5.5c1.8,0.9,2.3,2.3,4.6,5.5s3.7,5.5,5.5,6.9c1.8,1.4,4.6,3.2,5.5,5
		c0.9,1.8,2.8,6.4,3.2,8.3c0.5,1.8,4.6,5,6.9,7.8c1.5,1.8,1.8,2.7,1.9,3c0,0,0,0.1,0,0.1c0,0,0,0,0,0c0,0,0,0,0,0c0,0,0,0,0,0
		c0,0,0,0,0,0c0,0,0,0,0,0c0,0-0.5,5.5,1.4,6.9c0.4,0.3,0.7,0.5,1,0.6c0.1,0,0.2,0.1,0.3,0.1c0,0,0.1,0,0.1,0c0.2,0,0.3-0.1,0.5-0.1
		c0,0,0,0,0.1,0c0,0,0,0,0,0c0,0,0,0,0,0c0.1-0.1,0.1-0.1,0.2-0.2c0,0,0-0.1,0.1-0.1c0,0,0,0,0-0.1c0,0,0,0,0,0c0,0,3.2,0.9,4.6,2.8
		c1.4,1.8,5.1,6.4,6,8.3c0.9,1.8-0.9,3.2,0.9,4.6c0.3,0.2,0.6,0.4,0.8,0.4c0,0,0.1,0,0.1,0c0,0,0.1,0,0.1,0c0,0,0,0,0,0c0,0,0,0,0,0
		c0,0,0.1,0,0.1,0c0,0,0.1,0,0.1,0c0,0,0,0,0,0c0,0,0.1,0,0.1,0c0,0,0-0.1,0.1-0.1c0.3-0.4,0.5-1.3,1.5-2.1c1.8-1.4,4.1-4.6,5.9-3.2
		c1.8,1.4,1.4,2.8,1.4,4.6c0,1.8,0.5,6.4,1.4,9.2c0.9,2.8,1.8,6,1.8,6l1.8-1.4c0,0,1.8-3.2,4.6-2.8c0.2,0,0.4,0.1,0.6,0.2
		c2.2,1.2,2.7,6.7,2.7,6.7s6,0.4,8.3,0.9s7.8-0.4,9.6-0.9s11.5-4.6,13.8-4.6s6.4,4.6,6.4,4.6s1.4,0.4,3.7,0.4s4.6-2.7,6.9-4.1
		s9.6-2.8,9.6-2.8s9.2-8.7,12.4-11c1.9-1.4,2.9-1.3,3.3-1c0.1,0.1,0.2,0.2,0.2,0.2c0,0,0.1,0.1,0.1,0.2c0,0,0,0,0,0l0.9-2.7
		l-0.5-6.4l1.8-4.1l0.4-8.3l1.4-6.4l0.7-0.6l-2.5,0.2c0,0,0.4-8.3-2.3-9.7c-0.1-0.1-0.2-0.1-0.3-0.2c-0.1-0.1-0.2-0.2-0.3-0.3
		c-0.1-0.1-0.1-0.2-0.2-0.3c-0.8-1.8,2.2-5.2,2.2-5.2l2.3-12.8l-4.1-5.5l-3.7-6.4l2.8-9.2l-6.9-9.2l-3.7-6.4c0,0,3.2-6,2.3-8.3
		c0,0,0-0.1,0-0.1c-1-2.1-10.7-8.5-13.2-10.1l-10.2-0.4l-12.8,0.4l-5.5,2.3l-4.6,2.8l-9.2,4.1l-8.3,4.1h-8.3l-4.1,3.7l-6,0.9
		l-3.7-4.6l-1.8-6.9l-0.9-1.3l-0.5-0.1l-3.7,1.8l-4.1,7.8l-8.3,1.8l-8.7,1.4l-6.4-6.4l-7.8-3.2l-4.6-6l4.2-5.5L216.3,338.6z
		 M332.3,447.8c1.3-0.1,2.8,1.3,3.8,2.1c1.2,1,1.8,3.5,2,4.8s0.3,3-0.3,4.5s-1.8,1.7-2.7,2.3c0,0,0,0-0.1,0c0,0-0.1,0-0.1,0.1
		c-1.1,0.5-4.5,0-6.3-0.8c-2-0.8-1.3-2.7-1.7-5.8l0.5-1.8c0,0,2.7-3.9,4-5C331.7,447.9,332,447.8,332.3,447.8z"/>
	<path id="path1819" class="st6" d="M472.5,387.9l-6.9,2.3l-11,10.1l-9.7,3.7l-7.8-2.3l-5.5,2.8l-5.1-2.8l-14.2-0.5l-10.6,1.4
		l-6,3.7l-7.8,13.8l-6,5l-9.2,1.8l-9.9,0.8l-0.7,0.6l-1.4,6.4l-0.4,8.3l-1.8,4.1l0.5,6.4l-0.4,1.2c0.2,0.1,0.4,0.2,0.4,0.2
		c0,0,7.3,2.8,9.2,4.6c1.8,1.8,7.8,15.1,9.2,17s7.8,6.9,7.8,9.6s-2.8,4.6-0.9,6.4c1.8,1.8,2.3,6,2.3,6s-2.3,10.5-2.3,12.4
		c0,1.8,1.8,5.5,4.1,6c2.3,0.5,6.4-1.4,6.4-1.4l4.6-6.9c0,0,2.1-0.1,5.6-0.1c5.2,0.1,8.2,2.8,8.2,2.8l2.8,13.3c0,0,5.4,5.8,7.7,6
		c0,0,0.1,0,0.1,0c2.3,0,9.2,1.4,9.2,1.4s6.9-0.9,10.1,1.4c3.2,2.3,5.5,8.3,5.5,8.3s4.6,2.7,6.4,0.9c1.8-1.8,20.6-19.7,23.4-19.7
		c2.8,0,6.4,1.4,9.2,0c2.8-1.4,6.9-2.3,8.7-4.1c1.8-1.8,9.6-7.3,9.6-7.3l2.8-0.5l-2.8-9.2l3.2-6l-1.4-11.5l1.8-6.4l-3.2-8.7l-0.9-6
		l9.2-9.6l6-8.3l6.9-12.4l5.5-2.3c0,0-2.3-13.3-4.1-16.1c-1.8-2.8-4.2-6-8.3-8.7c-4.1-2.8-16.5-6-19.7-6c-3.2,0-11.9,2.3-14.2,1.4
		c-2.3-0.9-4.6-1.9-5.1-3.7c-0.3-1.2,0-3.5,0.2-4.8c-0.1,0.1-0.2,0.2-0.2,0.2L472.5,387.9z"/>
	<path id="path1836" class="st7" d="M244.4,312.2l-7.8,3.7l-6,4.6l-5-2.3l-5.1,3.7l-9.6-3.7l-0.4-0.3l0.4,1.4l-1.3,4.6l-0.7,0.1
		l4.6,5.1l3.3,8.5l-0.6,0.9l3.9,2.6l-4.2,5.5l4.6,6l7.8,3.2l6.4,6.4l8.7-1.4l8.3-1.8l4.1-7.8l3.7-1.8l0.5,0.1l0-0.1l6.4-3.2
		l-2.8-5.5l-11.5,3.2l-2.8-0.9l-2.3-3.7l12.4-7.3l-2.8-10.6l-4.6-1.4L244.4,312.2z"/>
	<path id="path1827" class="st2" d="M532.8,429.4c0.1,0.8,0.2,1.3,0.2,1.3l-2.9,1.2l-5.7,6.5l-3.8,6.9l-6,8.3l-9.2,9.6l0.9,6
		l3.2,8.7l-1.8,6.4l1.4,11.5l-3.2,6l2.7,8.9h0c0.3,0.1,0.5,0.1,0.6,0.1c0,0,0,0,0,0c0,0,19.5,5.2,22.7,9.1c3.2,3.9,5.2,5.8,5.2,8.4
		c0,2.6-2.6,14.3-1.9,17.5c0.6,3.2,5.2,9.1,5.2,9.1l-8.4,9.8v5.8c0,0-5.2,1.9-1.9,5.2c3.2,3.2,7.8,7.8,7.8,7.8l9.7,0.7
		c0,0,15.6,12.3,18.8,13c3.2,0.6,12.4,5.2,13,9.1c0.6,3.9-2,9.1-2,12.3s-2.6,6.5-1.9,9.1c0.6,2.6,6.5,14.3,6.5,14.3s3.9,1.3,4.5,3.9
		s0,5.2,0,5.2c0,0,0.7,5.2,3.3,7.1c2.6,1.9,8.4,5.8,7.8,8.4c-0.6,2.6,3.3,11,3.3,11c0,0,6.5,8.4,5.2,11c-1.3,2.6-3.3,7.1-3.3,7.1
		l6.5,20.1l3.3,22.1c0,0,10.4,0.6,13.6,0s16.2-9.7,16.2-9.7s10.4-7.2,14.9-7.8s13.6,0,17.5,2.6c3.7,2.4,5,3.1,5.2,3.2
		c0,0,4.6-1.3,7.2-0.6c2.6,0.6,7.8,4.5,10.4,3.9c2.4-0.6,3.2-1.8,3.3-1.9l-0.7-9.8c0,0-7.8-10.4-7.1-13c0.6-2.6,8.4-24.7,8.4-27.3
		c0-2.6-3.9-4.5-3.9-4.5l5.2-5.8l-20.1-25.3l-8.4-5.8l3.9-4.5c0,0,7.8,1.9,10.4,1.3s5.8,0,5.8,0l6.5,4.5l10.4-5.8l5.2-7.8l3.9-1.3
		l-2.6-3.3l-7.2-1.9l-2.6-5.2c0,0-5.2-2-5.8-4.6c-0.6-2.6-3.9-14.9-6.5-16.9c-2.6-1.9-10.4-7.1-10.4-7.1c0,0-5.8,0.7-8.4-1.9
		c-2.6-2.6-9.7-10.4-9.1-14.3c0.6-3.9,6.5-10.4,6.5-10.4c0,0,9.7-3.9,12.3-4.6s7.1-5.2,9.1-7.8c1.9-2.6,7.1-2.6,7.1-2.6v-5.2
		l-1.3-1.9l9.1-8.4l-5.8-10.4l-3.2-2.6c0,0-17.5,7.1-20.1,5.2c-2.6-1.9-5.2-6.5-5.2-6.5l1.3-7.2l-5.8,2l-5.8-8.4L617,514.6
		c0,0-6.5-12.3-9.1-16.2c-2.6-3.9-16.2-14.9-18.2-17.5c-1.9-2.6-7.8-16.9-7.8-16.9s-5.2-9.1-9.8-9.1c-4.5,0-13-1.3-13-1.3l-16.9-8.4
		L532.8,429.4z"/>
	<path id="path1898_1_" class="st1" d="M477,203.8"/>
</g>
<g id="layer2">
</g>
<g>
	<path class="st8" d="M14.8,653.6c0,1.4-0.5,2.6-1.4,3.6c-0.9,1-2.1,1.5-3.6,1.5c-0.5,0-1.2,0-2.2-0.1c0.1-0.6,0.3-2.2,0.6-4.7
		c0.2-1.6,0.3-3,0.3-4.2h0.8c0.2,0,0.4,0,0.8,0s0.6,0,0.8,0c1.3,0,2.3,0.4,3,1.1C14.5,651.6,14.8,652.5,14.8,653.6z M13.6,653.7
		c0-0.9-0.3-1.6-0.8-2.2s-1.4-0.9-2.5-0.9c-0.3,0-0.6,0-0.9,0.1c0,0.5-0.1,1.6-0.3,3.3c-0.1,1.2-0.2,2.5-0.3,3.7
		c0.3,0.1,0.7,0.1,1,0.1c1.2,0,2.1-0.4,2.8-1.2C13.3,655.9,13.6,654.9,13.6,653.7z"/>
	<path class="st8" d="M21.4,651.9c-0.4,2.3-0.6,4-0.6,5.1c0,0.5,0,1,0.1,1.7l-1.2,0.2c0-0.4,0-0.9,0-1.5h-0.1
		c-0.6,1.1-1.3,1.6-2.3,1.6c-0.6,0-1-0.2-1.3-0.7c-0.3-0.4-0.4-1-0.4-1.7c0-1.1,0.4-2.1,1.2-3s1.9-1.3,3.4-1.3l0.3-0.2L21.4,651.9z
		 M20.1,652.9c-1.2,0-2,0.3-2.5,0.9c-0.5,0.6-0.8,1.4-0.8,2.4c0,1,0.3,1.6,1,1.6c0.5,0,0.9-0.3,1.3-1c0.4-0.7,0.7-1.3,0.8-1.9
		C20,654.4,20.1,653.7,20.1,652.9z"/>
	<path class="st8" d="M26.6,657.4l-0.2,0.9c-0.5,0.3-1,0.5-1.5,0.5c-0.6,0-1.1-0.2-1.3-0.5c-0.2-0.3-0.4-0.8-0.4-1.5
		c0-0.6,0.1-1.8,0.4-3.7c-0.2,0-0.6,0-1.1,0l0.1-1c0.4,0,0.8,0,1.1,0c0-0.2,0.1-0.8,0.3-1.9l1-0.1c-0.1,0.5-0.2,1.2-0.3,2.1
		c0.4,0,1,0,1.8-0.1l-0.1,1c-0.8,0-1.4,0-1.8,0c-0.2,1.5-0.4,2.6-0.4,3.3c0,0.5,0.1,0.9,0.2,1.1s0.4,0.3,0.7,0.3
		C25.6,657.9,26.1,657.7,26.6,657.4z"/>
	<path class="st8" d="M33.3,651.9c-0.4,2.3-0.6,4-0.6,5.1c0,0.5,0,1,0.1,1.7l-1.2,0.2c0-0.4,0-0.9,0-1.5h-0.1
		c-0.6,1.1-1.3,1.6-2.3,1.6c-0.6,0-1-0.2-1.3-0.7c-0.3-0.4-0.4-1-0.4-1.7c0-1.1,0.4-2.1,1.2-3s1.9-1.3,3.4-1.3l0.3-0.2L33.3,651.9z
		 M32,652.9c-1.2,0-2,0.3-2.5,0.9c-0.5,0.6-0.8,1.4-0.8,2.4c0,1,0.3,1.6,1,1.6c0.5,0,0.9-0.3,1.3-1c0.4-0.7,0.7-1.3,0.8-1.9
		C31.9,654.4,32,653.7,32,652.9z"/>
	<path class="st8" d="M43,652.1c0,0.6-0.5,1.7-1.4,3.4s-1.5,2.8-1.6,3.2c-0.4,1.1-0.8,1.9-1.1,2.3c-0.4,0.4-1.1,0.7-2,0.7l0-1
		c0.6,0,1.1-0.2,1.6-0.7c0.5-0.4,0.7-0.9,0.7-1.5c0-0.7-0.3-1.8-0.9-3.4s-0.9-2.6-0.9-3l1.3-0.1c0,0.6,0.2,1.5,0.5,2.8
		c0.4,1.3,0.5,2.2,0.5,2.6h0.1c0-0.2,0.4-1,1-2.4s1-2.3,1-2.9L43,652.1z"/>
	<path class="st8" d="M49.4,653.5c0,0.6-0.3,1.1-0.9,1.4c-0.7,0.4-2,0.6-3.7,0.7c0,0.8,0.1,1.4,0.4,1.8c0.3,0.4,0.8,0.6,1.4,0.6
		c0.7,0,1.4-0.2,2.2-0.7l-0.2,1c-0.6,0.4-1.4,0.7-2.3,0.7c-0.9,0-1.6-0.3-2.1-0.8c-0.4-0.6-0.7-1.3-0.7-2.1c0-1.3,0.4-2.2,1.1-3
		c0.7-0.7,1.6-1.1,2.5-1.1c0.6,0,1.1,0.1,1.5,0.4S49.4,653,49.4,653.5z M48.3,653.5c0-0.2-0.1-0.4-0.3-0.6c-0.2-0.1-0.5-0.2-0.9-0.2
		c-0.5,0-1,0.2-1.4,0.5s-0.7,0.8-0.8,1.5c1.4,0,2.4-0.2,2.9-0.4C48.1,654.1,48.3,653.8,48.3,653.5z"/>
	<path class="st8" d="M55.9,651.9c-0.4,2.3-0.6,4-0.6,5.1c0,0.5,0,1,0.1,1.7l-1.2,0.2c0-0.4,0-0.9,0-1.5h-0.1
		c-0.6,1.1-1.3,1.6-2.3,1.6c-0.6,0-1-0.2-1.3-0.7c-0.3-0.4-0.4-1-0.4-1.7c0-1.1,0.4-2.1,1.2-3s1.9-1.3,3.4-1.3l0.3-0.2L55.9,651.9z
		 M54.6,652.9c-1.2,0-2,0.3-2.5,0.9c-0.5,0.6-0.8,1.4-0.8,2.4c0,1,0.3,1.6,1,1.6c0.5,0,0.9-0.3,1.3-1c0.4-0.7,0.7-1.3,0.8-1.9
		C54.5,654.4,54.6,653.7,54.6,652.9z"/>
	<path class="st8" d="M61.7,652.1l-0.4,1.1c-0.3-0.1-0.6-0.1-0.9-0.1c-1,0-1.6,0.5-1.7,1.6c-0.2,1.6-0.3,2.9-0.4,4l-1.1,0.1
		c0.3-2.4,0.5-4,0.5-4.8c0-0.5,0-1.1-0.1-1.8l1.2-0.2c0,0.4,0.1,0.7,0.1,1h0.1c0.5-0.7,1.1-1.1,1.8-1.1
		C60.8,651.9,61.2,652,61.7,652.1z"/>
	<path class="st8" d="M63.7,657.5c0,0.3-0.1,0.6-0.3,0.8c-0.2,0.2-0.5,0.3-0.8,0.3c-0.5,0-0.7-0.3-0.7-0.8c0-0.3,0.1-0.6,0.3-0.8
		c0.2-0.2,0.5-0.3,0.8-0.3C63.5,656.8,63.7,657,63.7,657.5z M64.2,652.9c0,0.3-0.1,0.6-0.3,0.8c-0.2,0.2-0.5,0.3-0.8,0.3
		c-0.5,0-0.7-0.3-0.7-0.8c0-0.3,0.1-0.6,0.3-0.8c0.2-0.2,0.5-0.3,0.8-0.3C64,652.1,64.2,652.4,64.2,652.9z"/>
	<path class="st8" d="M73.2,657.7l-0.2,1h-4.7l0.2-1.1c0.6-0.3,1.4-0.8,2.2-1.5c0.9-0.7,1.3-1.5,1.3-2.4c0-0.8-0.6-1.3-1.7-1.3
		c-0.3,0-0.7,0-1.3,0.1l0.2-1c0.3-0.1,0.8-0.1,1.3-0.1c1,0,1.6,0.2,2,0.6c0.4,0.4,0.6,0.8,0.6,1.3c0,0.5-0.1,0.9-0.3,1.4
		c-0.2,0.5-0.6,0.9-1.1,1.4c-0.5,0.5-1.3,1-2.2,1.6l0,0.1C70.8,657.8,72,657.8,73.2,657.7z"/>
	<path class="st8" d="M80.7,654.3c0,1.2-0.3,2.3-0.9,3.2c-0.6,0.9-1.4,1.3-2.5,1.3c-0.9,0-1.5-0.3-1.9-0.9s-0.6-1.3-0.6-2.1
		c0-1.2,0.3-2.3,0.9-3.2s1.4-1.3,2.5-1.3c0.9,0,1.5,0.3,1.9,0.9C80.5,652.9,80.7,653.6,80.7,654.3z M79.5,654.6
		c0-0.6-0.1-1.2-0.4-1.6c-0.2-0.4-0.6-0.7-1.2-0.7c-0.6,0-1.1,0.3-1.5,1c-0.4,0.6-0.6,1.4-0.6,2.4c0,0.7,0.1,1.3,0.4,1.7
		s0.7,0.6,1.1,0.6c0.6,0,1.1-0.3,1.4-0.9C79.4,656.3,79.5,655.6,79.5,654.6z"/>
	<path class="st8" d="M84.6,658.7h-1.2c0.1-1,0.3-2,0.4-3c0.1-1.1,0.2-1.9,0.2-2.5l-1.6,0.8l-0.2-0.6l2.5-1.8h0.7
		c-0.2,1.5-0.4,2.9-0.5,4.1C84.7,656.6,84.6,657.6,84.6,658.7z"/>
	<path class="st8" d="M92.4,651.4c-0.1,1.1-0.9,2.8-2.3,5.3c-1.5,2.4-2.2,3.8-2.3,4.2l-1.2-0.1c0-0.5,0.8-1.8,2.2-4.1
		s2.2-3.7,2.2-4.3c-0.9,0-2.3,0.1-4.1,0.2l0.2-1.1H92.4z"/>
	<path class="st8" d="M14.3,666.6l-0.1,1c-0.9,0-1.7-0.1-2.6-0.1c-0.1,0.7-0.2,1.8-0.4,3.3s-0.3,3-0.4,4.7H9.5
		c0.1-0.7,0.3-2.3,0.6-4.7c0.1-1.3,0.2-2.4,0.3-3.3c-0.6,0-1.5,0-2.7,0.1l0.1-1H14.3z"/>
	<path class="st8" d="M20.6,670.8c0,0.4-0.1,1.1-0.2,2.2s-0.2,1.9-0.2,2.5l-1.2,0.1c0-0.2,0.1-0.8,0.2-1.9s0.2-1.9,0.2-2.5
		c0-0.5-0.1-0.9-0.3-1.1c-0.2-0.2-0.5-0.3-0.9-0.3c-0.5,0-1,0.3-1.4,1c-0.5,0.7-0.7,1.4-0.8,2.2c-0.1,1-0.2,1.9-0.2,2.6l-1.1,0.1
		c0.1-0.4,0.2-2.1,0.6-5.2c0.2-1.8,0.3-3.3,0.3-4.5l1.3-0.1c0,0.2,0,0.5-0.1,1c-0.1,0.8-0.2,1.7-0.3,2.7c0,0.2-0.1,0.5-0.1,0.9h0.1
		c0.6-1.1,1.4-1.7,2.4-1.7C20,668.8,20.6,669.4,20.6,670.8z"/>
	<path class="st8" d="M23.9,668.8c0,0.3,0,0.8-0.1,1.4c-0.1,0.6-0.2,1.3-0.3,2.1c-0.1,0.6-0.1,1.7-0.2,3.1l-1.2,0.1
		c0.1-0.7,0.2-1.8,0.4-3.2c0.1-0.9,0.1-1.8,0.1-2.5c0-0.3,0-0.6,0-0.8L23.9,668.8z M24.4,666.8c0,0.3-0.1,0.5-0.3,0.7
		s-0.4,0.3-0.7,0.3c-0.4,0-0.6-0.2-0.6-0.7c0-0.3,0.1-0.5,0.3-0.7s0.4-0.3,0.7-0.3C24.1,666.2,24.4,666.4,24.4,666.8z"/>
	<path class="st8" d="M29.6,668.9l-0.3,1c-0.5-0.2-1-0.3-1.6-0.3c-0.9,0-1.3,0.3-1.3,0.9c0,0.2,0.1,0.4,0.3,0.5s0.5,0.3,1,0.5
		c1.2,0.5,1.7,1.1,1.7,1.9c0,1.4-0.9,2.1-2.7,2.1c-0.7,0-1.4-0.1-2-0.2l0.3-1c0.5,0.2,1.1,0.3,1.8,0.3c1,0,1.5-0.3,1.5-0.9
		c0-0.4-0.4-0.8-1.2-1.2c-1.2-0.5-1.8-1.1-1.8-1.9c0-0.7,0.2-1.2,0.7-1.5s1.1-0.5,1.8-0.5C28.6,668.8,29.2,668.8,29.6,668.9z"/>
	<path class="st8" d="M43.4,670.8c0,0.5-0.1,1.3-0.2,2.3s-0.2,1.8-0.2,2.3l-1.2,0.1c0-0.4,0.1-1.1,0.2-2.1s0.2-1.8,0.2-2.2
		c0-0.5-0.1-0.9-0.2-1.2c-0.2-0.2-0.4-0.3-0.7-0.3c-0.6,0-1.1,0.3-1.5,0.9s-0.7,1.3-0.7,2.2c-0.1,1.1-0.2,2-0.2,2.6l-1.2,0.1
		c0-0.3,0.1-1,0.2-2.1s0.2-1.8,0.2-2.2c0-0.5-0.1-0.9-0.2-1.2c-0.2-0.2-0.4-0.3-0.7-0.3c-0.6,0-1,0.3-1.5,0.9
		c-0.4,0.6-0.7,1.4-0.8,2.2c-0.1,1.1-0.2,2-0.2,2.6l-1.1,0.1c0.3-2.4,0.5-4,0.5-4.8c0-0.5,0-1.1-0.1-1.8l1.2-0.2c0,0.4,0,1,0,1.6
		h0.1c0.5-1.1,1.3-1.7,2.3-1.7c0.5,0,1,0.2,1.2,0.5c0.3,0.3,0.4,0.7,0.4,1.2h0.1c0.6-1.1,1.4-1.7,2.4-1.7
		C42.8,668.8,43.4,669.4,43.4,670.8z"/>
	<path class="st8" d="M50.3,668.7c-0.4,2.3-0.6,4-0.6,5.1c0,0.5,0,1,0.1,1.7l-1.2,0.2c0-0.4,0-0.9,0-1.5h-0.1
		c-0.6,1.1-1.3,1.6-2.3,1.6c-0.6,0-1-0.2-1.3-0.7c-0.3-0.4-0.4-1-0.4-1.7c0-1.1,0.4-2.1,1.2-3s1.9-1.3,3.4-1.3l0.3-0.2L50.3,668.7z
		 M49.1,669.7c-1.2,0-2,0.3-2.5,0.9c-0.5,0.6-0.8,1.4-0.8,2.4c0,1,0.3,1.6,1,1.6c0.5,0,0.9-0.3,1.3-1c0.4-0.7,0.7-1.3,0.8-1.9
		C49,671.2,49,670.5,49.1,669.7z"/>
	<path class="st8" d="M57.8,671.4c0,1.2-0.3,2.3-0.9,3.1c-0.6,0.8-1.5,1.2-2.5,1.2c-0.7,0-1.3-0.2-1.6-0.5h-0.1
		c-0.1,1.3-0.2,2.4-0.3,3.3l-1.2,0.1c0.6-4.2,0.9-6.9,0.9-8c0-0.4,0-0.9-0.1-1.5l1.2-0.2c0,0.4,0,0.9,0,1.6h0.1
		c0.6-1.1,1.4-1.7,2.5-1.7c0.6,0,1.2,0.2,1.6,0.7C57.6,669.9,57.8,670.6,57.8,671.4z M56.7,671.8c0-1.4-0.5-2.1-1.5-2.1
		c-0.5,0-1,0.3-1.4,0.9s-0.7,1.4-0.8,2.2l-0.1,1.6c0.4,0.3,0.9,0.4,1.3,0.4c0.9,0,1.5-0.3,2-0.8C56.4,673.4,56.7,672.7,56.7,671.8z"
		/>
	<path class="st8" d="M63.8,668.8c0,0.3,0,0.8-0.1,1.4c-0.1,0.6-0.2,1.3-0.3,2.1c-0.1,0.6-0.1,1.7-0.2,3.1l-1.2,0.1
		c0.1-0.7,0.2-1.8,0.4-3.2c0.1-0.9,0.1-1.8,0.1-2.5c0-0.3,0-0.6,0-0.8L63.8,668.8z M64.2,666.8c0,0.3-0.1,0.5-0.3,0.7
		s-0.4,0.3-0.7,0.3c-0.4,0-0.6-0.2-0.6-0.7c0-0.3,0.1-0.5,0.3-0.7s0.4-0.3,0.7-0.3C64,666.2,64.2,666.4,64.2,666.8z"/>
	<path class="st8" d="M69.5,668.9l-0.3,1c-0.5-0.2-1-0.3-1.6-0.3c-0.9,0-1.3,0.3-1.3,0.9c0,0.2,0.1,0.4,0.3,0.5s0.5,0.3,1,0.5
		c1.2,0.5,1.7,1.1,1.7,1.9c0,1.4-0.9,2.1-2.7,2.1c-0.7,0-1.4-0.1-2-0.2l0.3-1c0.5,0.2,1.1,0.3,1.8,0.3c1,0,1.5-0.3,1.5-0.9
		c0-0.4-0.4-0.8-1.2-1.2c-1.2-0.5-1.8-1.1-1.8-1.9c0-0.7,0.2-1.2,0.7-1.5s1.1-0.5,1.8-0.5C68.5,668.8,69.1,668.8,69.5,668.9z"/>
	<path class="st8" d="M79.8,671.4c0,1.2-0.3,2.2-0.9,3s-1.5,1.2-2.5,1.2c-0.7,0-1.3-0.2-1.6-0.5h-0.1l-0.2,0.3l-1,0.1
		c0.1-0.4,0.3-2.1,0.6-5.2c0.2-1.8,0.3-3.3,0.3-4.5l1.3-0.1c0,0.2,0,0.5-0.1,1c-0.1,0.8-0.2,1.7-0.3,2.7c0,0.2-0.1,0.5-0.1,0.9h0.1
		c0.6-1.1,1.4-1.7,2.5-1.7c0.6,0,1.2,0.2,1.6,0.7C79.6,669.9,79.8,670.6,79.8,671.4z M78.7,671.8c0-1.4-0.5-2.1-1.5-2.1
		c-0.5,0-1,0.3-1.5,0.9s-0.7,1.4-0.8,2.2l-0.1,1.6c0.4,0.3,0.9,0.4,1.3,0.4c0.9,0,1.5-0.3,2-0.8S78.7,672.7,78.7,671.8z"/>
	<path class="st8" d="M86.5,668.7c-0.4,2.3-0.6,4-0.6,5.1c0,0.5,0,1,0.1,1.7l-1.2,0.2c0-0.4,0-0.9,0-1.5h-0.1
		c-0.6,1.1-1.3,1.6-2.3,1.6c-0.6,0-1-0.2-1.3-0.7c-0.3-0.4-0.4-1-0.4-1.7c0-1.1,0.4-2.1,1.2-3s1.9-1.3,3.4-1.3l0.3-0.2L86.5,668.7z
		 M85.3,669.7c-1.2,0-2,0.3-2.5,0.9c-0.5,0.6-0.8,1.4-0.8,2.4c0,1,0.3,1.6,1,1.6c0.5,0,0.9-0.3,1.3-1c0.4-0.7,0.7-1.3,0.8-1.9
		C85.2,671.2,85.2,670.5,85.3,669.7z"/>
	<path class="st8" d="M92.1,668.9l-0.3,1c-0.5-0.2-1-0.3-1.6-0.3c-0.9,0-1.3,0.3-1.3,0.9c0,0.2,0.1,0.4,0.3,0.5s0.5,0.3,1,0.5
		c1.2,0.5,1.7,1.1,1.7,1.9c0,1.4-0.9,2.1-2.7,2.1c-0.7,0-1.4-0.1-2-0.2l0.3-1c0.5,0.2,1.1,0.3,1.8,0.3c1,0,1.5-0.3,1.5-0.9
		c0-0.4-0.4-0.8-1.2-1.2c-1.2-0.5-1.8-1.1-1.8-1.9c0-0.7,0.2-1.2,0.7-1.5s1.1-0.5,1.8-0.5C91.1,668.8,91.7,668.8,92.1,668.9z"/>
	<path class="st8" d="M98.9,670.3c0,0.6-0.3,1.1-0.9,1.4c-0.7,0.4-2,0.6-3.7,0.7c0,0.8,0.1,1.4,0.4,1.8c0.3,0.4,0.8,0.6,1.4,0.6
		c0.7,0,1.4-0.2,2.2-0.7l-0.2,1c-0.6,0.4-1.4,0.7-2.3,0.7c-0.9,0-1.6-0.3-2.1-0.8c-0.4-0.6-0.7-1.3-0.7-2.1c0-1.3,0.4-2.2,1.1-3
		c0.7-0.7,1.6-1.1,2.5-1.1c0.6,0,1.1,0.1,1.5,0.4S98.9,669.8,98.9,670.3z M97.8,670.3c0-0.2-0.1-0.4-0.3-0.6
		c-0.2-0.1-0.5-0.2-0.9-0.2c-0.5,0-1,0.2-1.4,0.5s-0.7,0.8-0.8,1.5c1.4,0,2.4-0.2,2.9-0.4C97.6,670.9,97.8,670.6,97.8,670.3z"/>
	<path class="st8" d="M106.5,665.8c0,0.1-0.1,0.6-0.2,1.5s-0.3,1.9-0.4,3.1c-0.1,1.2-0.2,2.3-0.2,3.3c0,0.6,0,1.2,0.1,1.8l-1.1,0.1
		c-0.1-0.4-0.1-0.9-0.1-1.6h-0.1c-0.6,1.1-1.4,1.7-2.5,1.7c-0.6,0-1.2-0.2-1.6-0.7c-0.4-0.5-0.6-1.1-0.6-1.9c0-1.2,0.3-2.3,0.9-3.1
		s1.5-1.2,2.5-1.2c0.7,0,1.2,0.2,1.6,0.5h0.1c0.1-0.9,0.2-2.1,0.2-3.3L106.5,665.8z M104.9,670c-0.4-0.3-0.8-0.4-1.3-0.4
		c-0.9,0-1.5,0.3-1.9,0.8c-0.4,0.5-0.7,1.3-0.7,2.2c0,1.4,0.5,2.1,1.5,2.1c0.5,0,1-0.3,1.5-0.9s0.7-1.4,0.8-2.2L104.9,670z"/>
	<path class="st8" d="M116.5,671.6c0,1.1-0.3,2.1-1,2.9s-1.5,1.2-2.6,1.2c-0.7,0-1.3-0.3-1.8-0.9c-0.5-0.6-0.8-1.3-0.8-2.2
		c0-1.1,0.3-2,1-2.8s1.5-1.2,2.6-1.2c0.7,0,1.3,0.3,1.8,0.8S116.5,670.7,116.5,671.6z M115.3,671.8c0-0.6-0.1-1.2-0.4-1.6
		c-0.3-0.5-0.7-0.7-1.3-0.7c-0.7,0-1.2,0.3-1.6,1c-0.4,0.6-0.6,1.3-0.6,2.1c0,0.6,0.1,1.2,0.4,1.6c0.3,0.5,0.7,0.7,1.3,0.7
		c0.7,0,1.2-0.3,1.6-1C115.1,673.3,115.3,672.6,115.3,671.8z"/>
	<path class="st8" d="M123.6,670.8c0,0.4-0.1,1.1-0.2,2.2s-0.2,1.9-0.2,2.5l-1.2,0.1c0-0.2,0.1-0.8,0.2-1.9s0.2-1.9,0.2-2.5
		c0-0.5-0.1-0.9-0.3-1.1c-0.2-0.2-0.5-0.3-0.9-0.3c-0.5,0-1,0.3-1.4,1c-0.5,0.7-0.7,1.4-0.8,2.2c-0.1,1-0.2,1.9-0.2,2.6l-1.1,0.1
		c0.3-2.4,0.5-4,0.5-4.8c0-0.5,0-1.1-0.1-1.8l1.2-0.2c0,0.4,0,0.9,0,1.6h0.1c0.6-1.1,1.4-1.7,2.4-1.7
		C123,668.8,123.6,669.4,123.6,670.8z"/>
	<path class="st8" d="M134.5,665.8c0,0.1-0.1,0.6-0.2,1.5s-0.3,1.9-0.4,3.1c-0.1,1.2-0.2,2.3-0.2,3.3c0,0.6,0,1.2,0.1,1.8l-1.1,0.1
		c-0.1-0.4-0.1-0.9-0.1-1.6h-0.1c-0.6,1.1-1.4,1.7-2.5,1.7c-0.6,0-1.2-0.2-1.6-0.7c-0.4-0.5-0.6-1.1-0.6-1.9c0-1.2,0.3-2.3,0.9-3.1
		s1.5-1.2,2.5-1.2c0.7,0,1.2,0.2,1.6,0.5h0.1c0.1-0.9,0.2-2.1,0.2-3.3L134.5,665.8z M132.9,670c-0.4-0.3-0.8-0.4-1.3-0.4
		c-0.9,0-1.5,0.3-1.9,0.8c-0.4,0.5-0.7,1.3-0.7,2.2c0,1.4,0.5,2.1,1.5,2.1c0.5,0,1-0.3,1.5-0.9s0.7-1.4,0.8-2.2L132.9,670z"/>
	<path class="st8" d="M140.9,668.7c-0.4,2.3-0.6,4-0.6,5.1c0,0.5,0,1,0.1,1.7l-1.2,0.2c0-0.4,0-0.9,0-1.5h-0.1
		c-0.6,1.1-1.3,1.6-2.3,1.6c-0.6,0-1-0.2-1.3-0.7c-0.3-0.4-0.4-1-0.4-1.7c0-1.1,0.4-2.1,1.2-3s1.9-1.3,3.4-1.3l0.3-0.2L140.9,668.7z
		 M139.7,669.7c-1.2,0-2,0.3-2.5,0.9c-0.5,0.6-0.8,1.4-0.8,2.4c0,1,0.3,1.6,1,1.6c0.5,0,0.9-0.3,1.3-1c0.4-0.7,0.7-1.3,0.8-1.9
		C139.6,671.2,139.7,670.5,139.7,669.7z"/>
	<path class="st8" d="M146.2,674.2l-0.2,0.9c-0.5,0.3-1,0.5-1.5,0.5c-0.6,0-1.1-0.2-1.3-0.5c-0.2-0.3-0.4-0.8-0.4-1.5
		c0-0.6,0.1-1.8,0.4-3.7c-0.2,0-0.6,0-1.1,0l0.1-1c0.4,0,0.8,0,1.1,0c0-0.2,0.1-0.8,0.3-1.9l1-0.1c-0.1,0.5-0.2,1.2-0.3,2.1
		c0.4,0,1,0,1.8-0.1l-0.1,1c-0.8,0-1.4,0-1.8,0c-0.2,1.5-0.4,2.6-0.4,3.3c0,0.5,0.1,0.9,0.2,1.1s0.4,0.3,0.7,0.3
		C145.2,674.7,145.7,674.5,146.2,674.2z"/>
	<path class="st8" d="M152.8,668.7c-0.4,2.3-0.6,4-0.6,5.1c0,0.5,0,1,0.1,1.7l-1.2,0.2c0-0.4,0-0.9,0-1.5h-0.1
		c-0.6,1.1-1.3,1.6-2.3,1.6c-0.6,0-1-0.2-1.3-0.7c-0.3-0.4-0.4-1-0.4-1.7c0-1.1,0.4-2.1,1.2-3s1.9-1.3,3.4-1.3l0.3-0.2L152.8,668.7z
		 M151.6,669.7c-1.2,0-2,0.3-2.5,0.9c-0.5,0.6-0.8,1.4-0.8,2.4c0,1,0.3,1.6,1,1.6c0.5,0,0.9-0.3,1.3-1c0.4-0.7,0.7-1.3,0.8-1.9
		C151.5,671.2,151.6,670.5,151.6,669.7z"/>
	<path class="st8" d="M161.5,665.7l-0.2,0.9c-0.2,0-0.5,0-0.8,0c-0.4,0-0.7,0.2-0.9,0.5s-0.3,1-0.4,2c0.4,0,1,0,1.8-0.1l-0.1,1
		c-0.8,0-1.4,0-1.8,0c-0.1,1.7-0.2,3.2-0.4,4.7c-0.1,1.5-0.3,2.4-0.7,2.9s-0.8,0.8-1.4,1l-0.3-0.5c0.4-0.3,0.7-0.7,0.9-1.2
		c0.2-0.4,0.3-1.3,0.4-2.5s0.2-2.7,0.4-4.3c-0.3,0-0.7,0-1.4,0l0.2-1c0.6,0,1,0.1,1.3,0.1c0.1-1.2,0.4-2.1,0.8-2.6s0.9-0.8,1.7-0.8
		C160.9,665.6,161.2,665.7,161.5,665.7z"/>
	<path class="st8" d="M166.2,668.9l-0.4,1.1c-0.3-0.1-0.6-0.1-0.9-0.1c-1,0-1.6,0.5-1.7,1.6c-0.2,1.6-0.3,2.9-0.4,4l-1.1,0.1
		c0.3-2.4,0.5-4,0.5-4.8c0-0.5,0-1.1-0.1-1.8l1.2-0.2c0,0.4,0.1,0.7,0.1,1h0.1c0.5-0.7,1.1-1.1,1.8-1.1
		C165.3,668.7,165.7,668.8,166.2,668.9z"/>
	<path class="st8" d="M172.9,671.6c0,1.1-0.3,2.1-1,2.9s-1.5,1.2-2.6,1.2c-0.7,0-1.3-0.3-1.8-0.9c-0.5-0.6-0.8-1.3-0.8-2.2
		c0-1.1,0.3-2,1-2.8s1.5-1.2,2.6-1.2c0.7,0,1.3,0.3,1.8,0.8S172.9,670.7,172.9,671.6z M171.7,671.8c0-0.6-0.1-1.2-0.4-1.6
		c-0.3-0.5-0.7-0.7-1.3-0.7c-0.7,0-1.2,0.3-1.6,1c-0.4,0.6-0.6,1.3-0.6,2.1c0,0.6,0.1,1.2,0.4,1.6c0.3,0.5,0.7,0.7,1.3,0.7
		c0.7,0,1.2-0.3,1.6-1C171.5,673.3,171.7,672.6,171.7,671.8z"/>
	<path class="st8" d="M183.9,670.8c0,0.5-0.1,1.3-0.2,2.3s-0.2,1.8-0.2,2.3l-1.2,0.1c0-0.4,0.1-1.1,0.2-2.1s0.2-1.8,0.2-2.2
		c0-0.5-0.1-0.9-0.2-1.2c-0.2-0.2-0.4-0.3-0.7-0.3c-0.6,0-1.1,0.3-1.5,0.9s-0.7,1.3-0.7,2.2c-0.1,1.1-0.2,2-0.2,2.6l-1.2,0.1
		c0-0.3,0.1-1,0.2-2.1s0.2-1.8,0.2-2.2c0-0.5-0.1-0.9-0.2-1.2c-0.2-0.2-0.4-0.3-0.7-0.3c-0.6,0-1,0.3-1.5,0.9
		c-0.4,0.6-0.7,1.4-0.8,2.2c-0.1,1.1-0.2,2-0.2,2.6l-1.1,0.1c0.3-2.4,0.5-4,0.5-4.8c0-0.5,0-1.1-0.1-1.8l1.2-0.2c0,0.4,0,1,0,1.6
		h0.1c0.5-1.1,1.3-1.7,2.3-1.7c0.5,0,1,0.2,1.2,0.5c0.3,0.3,0.4,0.7,0.4,1.2h0.1c0.6-1.1,1.4-1.7,2.4-1.7
		C183.3,668.8,183.9,669.4,183.9,670.8z"/>
	<path class="st8" d="M194.1,670.8c0,0.4-0.1,1.1-0.2,2.2s-0.2,1.9-0.2,2.5l-1.2,0.1c0-0.2,0.1-0.8,0.2-1.9s0.2-1.9,0.2-2.5
		c0-0.5-0.1-0.9-0.3-1.1c-0.2-0.2-0.5-0.3-0.9-0.3c-0.5,0-1,0.3-1.4,1c-0.5,0.7-0.7,1.4-0.8,2.2c-0.1,1-0.2,1.9-0.2,2.6l-1.1,0.1
		c0.1-0.4,0.2-2.1,0.6-5.2c0.2-1.8,0.3-3.3,0.3-4.5l1.3-0.1c0,0.2,0,0.5-0.1,1c-0.1,0.8-0.2,1.7-0.3,2.7c0,0.2-0.1,0.5-0.1,0.9h0.1
		c0.6-1.1,1.4-1.7,2.4-1.7C193.5,668.8,194.1,669.4,194.1,670.8z"/>
	<path class="st8" d="M202.2,665.8c0,0.1-0.1,0.6-0.2,1.5s-0.3,1.9-0.4,3.1c-0.1,1.2-0.2,2.3-0.2,3.3c0,0.6,0,1.2,0.1,1.8l-1.1,0.1
		c-0.1-0.4-0.1-0.9-0.1-1.6h-0.1c-0.6,1.1-1.4,1.7-2.5,1.7c-0.6,0-1.2-0.2-1.6-0.7c-0.4-0.5-0.6-1.1-0.6-1.9c0-1.2,0.3-2.3,0.9-3.1
		s1.5-1.2,2.5-1.2c0.7,0,1.2,0.2,1.6,0.5h0.1c0.1-0.9,0.2-2.1,0.2-3.3L202.2,665.8z M200.6,670c-0.4-0.3-0.8-0.4-1.3-0.4
		c-0.9,0-1.5,0.3-1.9,0.8c-0.4,0.5-0.7,1.3-0.7,2.2c0,1.4,0.5,2.1,1.5,2.1c0.5,0,1-0.3,1.5-0.9s0.7-1.4,0.8-2.2L200.6,670z"/>
	<path class="st8" d="M204.9,668.8c0,0.3,0,0.8-0.1,1.4c-0.1,0.6-0.2,1.3-0.3,2.1c-0.1,0.6-0.1,1.7-0.2,3.1l-1.2,0.1
		c0.1-0.7,0.2-1.8,0.4-3.2c0.1-0.9,0.1-1.8,0.1-2.5c0-0.3,0-0.6,0-0.8L204.9,668.8z M205.4,666.8c0,0.3-0.1,0.5-0.3,0.7
		s-0.4,0.3-0.7,0.3c-0.4,0-0.6-0.2-0.6-0.7c0-0.3,0.1-0.5,0.3-0.7s0.4-0.3,0.7-0.3C205.2,666.2,205.4,666.4,205.4,666.8z"/>
	<path class="st8" d="M207.8,674.3c0,0.3-0.1,0.6-0.3,0.8c-0.2,0.2-0.5,0.3-0.8,0.3c-0.5,0-0.7-0.3-0.7-0.8c0-0.3,0.1-0.6,0.3-0.8
		c0.2-0.2,0.5-0.3,0.8-0.3C207.6,673.6,207.8,673.8,207.8,674.3z"/>
	<path class="st8" d="M216.5,668.1l-0.2,0.9c-0.7,0-1.2,0.1-1.4,0.4l0,0.1c0.2,0.3,0.3,0.7,0.3,1.1c0,0.8-0.3,1.4-0.8,1.9
		s-1.3,0.7-2.1,0.7c-0.5,0-0.8,0-1-0.1c-0.3,0.2-0.4,0.4-0.4,0.8c0,0.2,0.1,0.4,0.3,0.5c0.2,0.1,1,0.1,2.5,0.1
		c1.2,0,1.9,0.5,1.9,1.4c0,0.9-0.4,1.7-1.2,2.3c-0.8,0.6-1.7,0.9-2.7,0.9c-1,0-1.6-0.2-2-0.5c-0.4-0.4-0.6-0.8-0.6-1.5
		c0-0.9,0.4-1.5,1.3-1.8l0-0.1c-0.3-0.2-0.4-0.4-0.4-0.8c0-0.5,0.3-0.9,0.8-1.3l0-0.1c-0.2-0.1-0.4-0.3-0.5-0.6s-0.3-0.6-0.3-1
		c0-0.8,0.3-1.4,0.8-1.9s1.2-0.7,2.1-0.7c0.7,0,1.3,0.2,1.7,0.5h0.1c0.1-0.4,0.3-0.8,0.5-0.9s0.4-0.3,0.7-0.3
		C216.1,668,216.3,668,216.5,668.1z M214.4,676.3c0-0.4-0.1-0.6-0.4-0.7s-0.9-0.2-1.8-0.2c-0.4,0-0.9,0-1.3-0.1
		c-0.6,0.3-0.9,0.8-0.9,1.4c0,1,0.6,1.4,1.8,1.4c0.7,0,1.4-0.2,1.9-0.5C214.2,677.3,214.4,676.9,214.4,676.3z M214.1,670.8
		c0-0.4-0.1-0.8-0.4-1c-0.3-0.2-0.6-0.3-1-0.3c-0.5,0-0.9,0.2-1.2,0.5c-0.3,0.3-0.5,0.7-0.5,1.2c0,0.4,0.1,0.7,0.4,1
		c0.3,0.2,0.6,0.3,1.1,0.3c0.5,0,0.9-0.2,1.2-0.5S214.1,671.3,214.1,670.8z"/>
	<path class="st8" d="M219.1,665.8c0,0.3-0.1,0.9-0.2,1.8c-0.1,0.9-0.2,1.9-0.3,2.8c-0.2,2.1-0.4,3.8-0.4,5.1l-1.2,0.1
		c0-0.2,0.1-0.8,0.2-1.8c0.2-1,0.3-2.2,0.4-3.4c0.2-1.9,0.3-3.4,0.3-4.5L219.1,665.8z"/>
	<path class="st8" d="M226.3,671.6c0,1.1-0.3,2.1-1,2.9s-1.5,1.2-2.6,1.2c-0.7,0-1.3-0.3-1.8-0.9c-0.5-0.6-0.8-1.3-0.8-2.2
		c0-1.1,0.3-2,1-2.8s1.5-1.2,2.6-1.2c0.7,0,1.3,0.3,1.8,0.8S226.3,670.7,226.3,671.6z M225.2,671.8c0-0.6-0.1-1.2-0.4-1.6
		c-0.3-0.5-0.7-0.7-1.3-0.7c-0.7,0-1.2,0.3-1.6,1c-0.4,0.6-0.6,1.3-0.6,2.1c0,0.6,0.1,1.2,0.4,1.6c0.3,0.5,0.7,0.7,1.3,0.7
		c0.7,0,1.2-0.3,1.6-1C225,673.3,225.2,672.6,225.2,671.8z"/>
	<path class="st8" d="M233.9,671.4c0,1.2-0.3,2.2-0.9,3s-1.5,1.2-2.5,1.2c-0.7,0-1.3-0.2-1.6-0.5h-0.1l-0.2,0.3l-1,0.1
		c0.1-0.4,0.3-2.1,0.6-5.2c0.2-1.8,0.3-3.3,0.3-4.5l1.3-0.1c0,0.2,0,0.5-0.1,1c-0.1,0.8-0.2,1.7-0.3,2.7c0,0.2-0.1,0.5-0.1,0.9h0.1
		c0.6-1.1,1.4-1.7,2.5-1.7c0.6,0,1.2,0.2,1.6,0.7C233.7,669.9,233.9,670.6,233.9,671.4z M232.7,671.8c0-1.4-0.5-2.1-1.5-2.1
		c-0.5,0-1,0.3-1.5,0.9s-0.7,1.4-0.8,2.2l-0.1,1.6c0.4,0.3,0.9,0.4,1.3,0.4c0.9,0,1.5-0.3,2-0.8S232.7,672.7,232.7,671.8z"/>
	<path class="st8" d="M240.6,668.7c-0.4,2.3-0.6,4-0.6,5.1c0,0.5,0,1,0.1,1.7l-1.2,0.2c0-0.4,0-0.9,0-1.5h-0.1
		c-0.6,1.1-1.3,1.6-2.3,1.6c-0.6,0-1-0.2-1.3-0.7c-0.3-0.4-0.4-1-0.4-1.7c0-1.1,0.4-2.1,1.2-3s1.9-1.3,3.4-1.3l0.3-0.2L240.6,668.7z
		 M239.4,669.7c-1.2,0-2,0.3-2.5,0.9c-0.5,0.6-0.8,1.4-0.8,2.4c0,1,0.3,1.6,1,1.6c0.5,0,0.9-0.3,1.3-1c0.4-0.7,0.7-1.3,0.8-1.9
		C239.3,671.2,239.3,670.5,239.4,669.7z"/>
	<path class="st8" d="M244,665.8c0,0.3-0.1,0.9-0.2,1.8c-0.1,0.9-0.2,1.9-0.3,2.8c-0.2,2.1-0.4,3.8-0.4,5.1l-1.2,0.1
		c0-0.2,0.1-0.8,0.2-1.8c0.2-1,0.3-2.2,0.4-3.4c0.2-1.9,0.3-3.4,0.3-4.5L244,665.8z"/>
	<path class="st8" d="M251.6,665.8c0,0.1-0.1,0.6-0.2,1.5s-0.3,1.9-0.4,3.1c-0.1,1.2-0.2,2.3-0.2,3.3c0,0.6,0,1.2,0.1,1.8l-1.1,0.1
		c-0.1-0.4-0.1-0.9-0.1-1.6h-0.1c-0.6,1.1-1.4,1.7-2.5,1.7c-0.6,0-1.2-0.2-1.6-0.7c-0.4-0.5-0.6-1.1-0.6-1.9c0-1.2,0.3-2.3,0.9-3.1
		s1.5-1.2,2.5-1.2c0.7,0,1.2,0.2,1.6,0.5h0.1c0.1-0.9,0.2-2.1,0.2-3.3L251.6,665.8z M250.1,670c-0.4-0.3-0.8-0.4-1.3-0.4
		c-0.9,0-1.5,0.3-1.9,0.8c-0.4,0.5-0.7,1.3-0.7,2.2c0,1.4,0.5,2.1,1.5,2.1c0.5,0,1-0.3,1.5-0.9s0.7-1.4,0.8-2.2L250.1,670z"/>
	<path class="st8" d="M258,668.7c-0.4,2.3-0.6,4-0.6,5.1c0,0.5,0,1,0.1,1.7l-1.2,0.2c0-0.4,0-0.9,0-1.5h-0.1
		c-0.6,1.1-1.3,1.6-2.3,1.6c-0.6,0-1-0.2-1.3-0.7c-0.3-0.4-0.4-1-0.4-1.7c0-1.1,0.4-2.1,1.2-3s1.9-1.3,3.4-1.3l0.3-0.2L258,668.7z
		 M256.8,669.7c-1.2,0-2,0.3-2.5,0.9c-0.5,0.6-0.8,1.4-0.8,2.4c0,1,0.3,1.6,1,1.6c0.5,0,0.9-0.3,1.3-1c0.4-0.7,0.7-1.3,0.8-1.9
		C256.7,671.2,256.8,670.5,256.8,669.7z"/>
	<path class="st8" d="M263.3,674.2l-0.2,0.9c-0.5,0.3-1,0.5-1.5,0.5c-0.6,0-1.1-0.2-1.3-0.5c-0.2-0.3-0.4-0.8-0.4-1.5
		c0-0.6,0.1-1.8,0.4-3.7c-0.2,0-0.6,0-1.1,0l0.1-1c0.4,0,0.8,0,1.1,0c0-0.2,0.1-0.8,0.3-1.9l1-0.1c-0.1,0.5-0.2,1.2-0.3,2.1
		c0.4,0,1,0,1.8-0.1l-0.1,1c-0.8,0-1.4,0-1.8,0c-0.2,1.5-0.4,2.6-0.4,3.3c0,0.5,0.1,0.9,0.2,1.1s0.4,0.3,0.7,0.3
		C262.3,674.7,262.8,674.5,263.3,674.2z"/>
	<path class="st8" d="M270,668.7c-0.4,2.3-0.6,4-0.6,5.1c0,0.5,0,1,0.1,1.7l-1.2,0.2c0-0.4,0-0.9,0-1.5h-0.1
		c-0.6,1.1-1.3,1.6-2.3,1.6c-0.6,0-1-0.2-1.3-0.7c-0.3-0.4-0.4-1-0.4-1.7c0-1.1,0.4-2.1,1.2-3s1.9-1.3,3.4-1.3l0.3-0.2L270,668.7z
		 M268.7,669.7c-1.2,0-2,0.3-2.5,0.9c-0.5,0.6-0.8,1.4-0.8,2.4c0,1,0.3,1.6,1,1.6c0.5,0,0.9-0.3,1.3-1c0.4-0.7,0.7-1.3,0.8-1.9
		C268.6,671.2,268.7,670.5,268.7,669.7z"/>
	<path class="st8" d="M273.4,665.8c0,0.3-0.1,0.9-0.2,1.8c-0.1,0.9-0.2,1.9-0.3,2.8c-0.2,2.1-0.4,3.8-0.4,5.1l-1.2,0.1
		c0-0.2,0.1-0.8,0.2-1.8c0.2-1,0.3-2.2,0.4-3.4c0.2-1.9,0.3-3.4,0.3-4.5L273.4,665.8z"/>
	<path class="st8" d="M279.9,668.7c-0.4,2.3-0.6,4-0.6,5.1c0,0.5,0,1,0.1,1.7l-1.2,0.2c0-0.4,0-0.9,0-1.5h-0.1
		c-0.6,1.1-1.3,1.6-2.3,1.6c-0.6,0-1-0.2-1.3-0.7c-0.3-0.4-0.4-1-0.4-1.7c0-1.1,0.4-2.1,1.2-3s1.9-1.3,3.4-1.3l0.3-0.2L279.9,668.7z
		 M278.6,669.7c-1.2,0-2,0.3-2.5,0.9c-0.5,0.6-0.8,1.4-0.8,2.4c0,1,0.3,1.6,1,1.6c0.5,0,0.9-0.3,1.3-1c0.4-0.7,0.7-1.3,0.8-1.9
		C278.5,671.2,278.6,670.5,278.6,669.7z"/>
	<path class="st8" d="M287.4,671.4c0,1.2-0.3,2.2-0.9,3s-1.5,1.2-2.5,1.2c-0.7,0-1.3-0.2-1.6-0.5h-0.1l-0.2,0.3l-1,0.1
		c0.1-0.4,0.3-2.1,0.6-5.2c0.2-1.8,0.3-3.3,0.3-4.5l1.3-0.1c0,0.2,0,0.5-0.1,1c-0.1,0.8-0.2,1.7-0.3,2.7c0,0.2-0.1,0.5-0.1,0.9h0.1
		c0.6-1.1,1.4-1.7,2.5-1.7c0.6,0,1.2,0.2,1.6,0.7C287.2,669.9,287.4,670.6,287.4,671.4z M286.3,671.8c0-1.4-0.5-2.1-1.5-2.1
		c-0.5,0-1,0.3-1.5,0.9s-0.7,1.4-0.8,2.2l-0.1,1.6c0.4,0.3,0.9,0.4,1.3,0.4c0.9,0,1.5-0.3,2-0.8S286.3,672.7,286.3,671.8z"/>
	<path class="st8" d="M290.2,674.3c0,0.3-0.1,0.6-0.3,0.8c-0.2,0.2-0.5,0.3-0.8,0.3c-0.5,0-0.7-0.3-0.7-0.8c0-0.3,0.1-0.6,0.3-0.8
		c0.2-0.2,0.5-0.3,0.8-0.3C289.9,673.6,290.2,673.8,290.2,674.3z"/>
	<path class="st8" d="M298.4,671.6c0,1.1-0.3,2.1-1,2.9s-1.5,1.2-2.6,1.2c-0.7,0-1.3-0.3-1.8-0.9c-0.5-0.6-0.8-1.3-0.8-2.2
		c0-1.1,0.3-2,1-2.8s1.5-1.2,2.6-1.2c0.7,0,1.3,0.3,1.8,0.8S298.4,670.7,298.4,671.6z M297.2,671.8c0-0.6-0.1-1.2-0.4-1.6
		c-0.3-0.5-0.7-0.7-1.3-0.7c-0.7,0-1.2,0.3-1.6,1c-0.4,0.6-0.6,1.3-0.6,2.1c0,0.6,0.1,1.2,0.4,1.6c0.3,0.5,0.7,0.7,1.3,0.7
		c0.7,0,1.2-0.3,1.6-1C297,673.3,297.2,672.6,297.2,671.8z"/>
	<path class="st8" d="M304.2,668.9l-0.4,1.1c-0.3-0.1-0.6-0.1-0.9-0.1c-1,0-1.6,0.5-1.7,1.6c-0.2,1.6-0.3,2.9-0.4,4l-1.1,0.1
		c0.3-2.4,0.5-4,0.5-4.8c0-0.5,0-1.1-0.1-1.8l1.2-0.2c0,0.4,0.1,0.7,0.1,1h0.1c0.5-0.7,1.1-1.1,1.8-1.1
		C303.3,668.7,303.7,668.8,304.2,668.9z"/>
	<path class="st8" d="M311.3,668.1l-0.2,0.9c-0.7,0-1.2,0.1-1.4,0.4l0,0.1c0.2,0.3,0.3,0.7,0.3,1.1c0,0.8-0.3,1.4-0.8,1.9
		s-1.3,0.7-2.1,0.7c-0.5,0-0.8,0-1-0.1c-0.3,0.2-0.4,0.4-0.4,0.8c0,0.2,0.1,0.4,0.3,0.5c0.2,0.1,1,0.1,2.5,0.1
		c1.2,0,1.9,0.5,1.9,1.4c0,0.9-0.4,1.7-1.2,2.3c-0.8,0.6-1.7,0.9-2.7,0.9c-1,0-1.6-0.2-2-0.5c-0.4-0.4-0.6-0.8-0.6-1.5
		c0-0.9,0.4-1.5,1.3-1.8l0-0.1c-0.3-0.2-0.4-0.4-0.4-0.8c0-0.5,0.3-0.9,0.8-1.3l0-0.1c-0.2-0.1-0.4-0.3-0.5-0.6s-0.3-0.6-0.3-1
		c0-0.8,0.3-1.4,0.8-1.9s1.2-0.7,2.1-0.7c0.7,0,1.3,0.2,1.7,0.5h0.1c0.1-0.4,0.3-0.8,0.5-0.9s0.4-0.3,0.7-0.3
		C310.9,668,311.2,668,311.3,668.1z M309.3,676.3c0-0.4-0.1-0.6-0.4-0.7s-0.9-0.2-1.8-0.2c-0.4,0-0.9,0-1.3-0.1
		c-0.6,0.3-0.9,0.8-0.9,1.4c0,1,0.6,1.4,1.8,1.4c0.7,0,1.4-0.2,1.9-0.5C309,677.3,309.3,676.9,309.3,676.3z M309,670.8
		c0-0.4-0.1-0.8-0.4-1c-0.3-0.2-0.6-0.3-1-0.3c-0.5,0-0.9,0.2-1.2,0.5c-0.3,0.3-0.5,0.7-0.5,1.2c0,0.4,0.1,0.7,0.4,1
		c0.3,0.2,0.6,0.3,1.1,0.3c0.5,0,0.9-0.2,1.2-0.5S309,671.3,309,670.8z"/>
	<path class="st8" d="M13.9,688.2l-0.3,1.1c-0.5-0.2-0.9-0.2-1.3-0.2c-1.1,0-2,0.4-2.6,1.2c-0.7,0.8-1,1.7-1,2.8
		c0,0.9,0.3,1.7,0.8,2.3c0.5,0.6,1.3,0.9,2.3,0.9c0.4,0,1-0.1,1.7-0.3l-0.2,1c-0.8,0.2-1.4,0.3-1.8,0.3c-1.4,0-2.4-0.4-3-1.2
		c-0.7-0.8-1-1.7-1-2.9c0-1.5,0.5-2.7,1.5-3.7s2.2-1.5,3.7-1.5C13,688,13.4,688.1,13.9,688.2z"/>
	<path class="st8" d="M20.7,693.2c0,1.1-0.3,2.1-1,2.9s-1.5,1.2-2.6,1.2c-0.7,0-1.3-0.3-1.8-0.9c-0.5-0.6-0.8-1.3-0.8-2.2
		c0-1.1,0.3-2,1-2.8s1.5-1.2,2.6-1.2c0.7,0,1.3,0.3,1.8,0.8S20.7,692.3,20.7,693.2z M19.6,693.4c0-0.6-0.1-1.2-0.4-1.6
		c-0.3-0.5-0.7-0.7-1.3-0.7c-0.7,0-1.2,0.3-1.6,1c-0.4,0.6-0.6,1.3-0.6,2.1c0,0.6,0.1,1.2,0.4,1.6c0.3,0.5,0.7,0.7,1.3,0.7
		c0.7,0,1.2-0.3,1.6-1C19.4,694.9,19.6,694.2,19.6,693.4z"/>
	<path class="st8" d="M28,690.4c-0.3,2.5-0.5,4.2-0.5,5c0,0.5,0,1,0.1,1.5l-1.2,0.2c0-0.4,0-0.9,0-1.6h-0.1
		c-0.6,1.1-1.4,1.7-2.4,1.7c-1.2,0-1.8-0.7-1.8-2c0-0.4,0.1-1.1,0.2-2.2s0.2-1.9,0.2-2.5l1.2-0.1c0,0.2-0.1,0.8-0.2,2
		c-0.1,1.1-0.2,1.9-0.2,2.5c0,0.5,0.1,0.9,0.3,1.1c0.2,0.2,0.5,0.3,0.9,0.3c0.5,0,1-0.3,1.4-1s0.7-1.4,0.8-2.1
		c0.1-1.1,0.2-2,0.2-2.6L28,690.4z"/>
	<path class="st8" d="M35.2,692.4c0,0.4-0.1,1.1-0.2,2.2s-0.2,1.9-0.2,2.5l-1.2,0.1c0-0.2,0.1-0.8,0.2-1.9s0.2-1.9,0.2-2.5
		c0-0.5-0.1-0.9-0.3-1.1c-0.2-0.2-0.5-0.3-0.9-0.3c-0.5,0-1,0.3-1.4,1c-0.5,0.7-0.7,1.4-0.8,2.2c-0.1,1-0.2,1.9-0.2,2.6l-1.1,0.1
		c0.3-2.4,0.5-4,0.5-4.8c0-0.5,0-1.1-0.1-1.8l1.2-0.2c0,0.4,0,0.9,0,1.6h0.1c0.6-1.1,1.4-1.7,2.4-1.7
		C34.6,690.4,35.2,691,35.2,692.4z"/>
	<path class="st8" d="M40.6,695.8l-0.2,0.9c-0.5,0.3-1,0.5-1.5,0.5c-0.6,0-1.1-0.2-1.3-0.5c-0.2-0.3-0.4-0.8-0.4-1.5
		c0-0.6,0.1-1.8,0.4-3.7c-0.2,0-0.6,0-1.1,0l0.1-1c0.4,0,0.8,0,1.1,0c0-0.2,0.1-0.8,0.3-1.9l1-0.1c-0.1,0.5-0.2,1.2-0.3,2.1
		c0.4,0,1,0,1.8-0.1l-0.1,1c-0.8,0-1.4,0-1.8,0c-0.2,1.5-0.4,2.6-0.4,3.3c0,0.5,0.1,0.9,0.2,1.1s0.4,0.3,0.7,0.3
		C39.6,696.3,40.1,696.1,40.6,695.8z"/>
	<path class="st8" d="M46.4,690.5l-0.4,1.1c-0.3-0.1-0.6-0.1-0.9-0.1c-1,0-1.6,0.5-1.7,1.6c-0.2,1.6-0.3,2.9-0.4,4l-1.1,0.1
		c0.3-2.4,0.5-4,0.5-4.8c0-0.5,0-1.1-0.1-1.8l1.2-0.2c0,0.4,0.1,0.7,0.1,1h0.1c0.5-0.7,1.1-1.1,1.8-1.1
		C45.5,690.3,45.9,690.4,46.4,690.5z"/>
	<path class="st8" d="M52.5,690.5c0,0.6-0.5,1.7-1.4,3.4s-1.5,2.8-1.6,3.2c-0.4,1.1-0.8,1.9-1.1,2.3c-0.4,0.4-1.1,0.7-2,0.7l0-1
		c0.6,0,1.1-0.2,1.6-0.7c0.5-0.4,0.7-0.9,0.7-1.5c0-0.7-0.3-1.8-0.9-3.4s-0.9-2.6-0.9-3l1.3-0.1c0,0.6,0.2,1.5,0.5,2.8
		c0.4,1.3,0.5,2.2,0.5,2.6h0.1c0-0.2,0.4-1,1-2.4s1-2.3,1-2.9L52.5,690.5z"/>
	<path class="st8" d="M54.8,695.9c0,0.3-0.1,0.6-0.3,0.8c-0.2,0.2-0.5,0.3-0.8,0.3c-0.5,0-0.7-0.3-0.7-0.8c0-0.3,0.1-0.6,0.3-0.8
		c0.2-0.2,0.5-0.3,0.8-0.3C54.5,695.2,54.8,695.4,54.8,695.9z M55.3,691.3c0,0.3-0.1,0.6-0.3,0.8c-0.2,0.2-0.5,0.3-0.8,0.3
		c-0.5,0-0.7-0.3-0.7-0.8c0-0.3,0.1-0.6,0.3-0.8c0.2-0.2,0.5-0.3,0.8-0.3C55,690.5,55.3,690.8,55.3,691.3z"/>
	<path class="st8" d="M66.8,697.1h-1.4c0-0.4-0.2-1.4-0.5-2.9h-3.7c-0.2,0.4-0.4,0.8-0.5,1.2c-0.4,0.8-0.5,1.4-0.6,1.7h-1.3
		c0-0.1,0.7-1.6,2.2-4.4c1.4-2.8,2.1-4.3,2.1-4.5h1.5c0,0.4,0.4,1.9,1.1,4.5S66.8,696.7,66.8,697.1z M64.7,693.3
		c-0.7-2.6-1.1-4.1-1.1-4.3h-0.1c0,0.1-0.7,1.6-2,4.3H64.7z"/>
	<path class="st8" d="M72.6,690.5l-0.4,1.1c-0.3-0.1-0.6-0.1-0.9-0.1c-1,0-1.6,0.5-1.7,1.6c-0.2,1.6-0.3,2.9-0.4,4l-1.1,0.1
		c0.3-2.4,0.5-4,0.5-4.8c0-0.5,0-1.1-0.1-1.8l1.2-0.2c0,0.4,0.1,0.7,0.1,1h0.1c0.5-0.7,1.1-1.1,1.8-1.1
		C71.8,690.3,72.2,690.4,72.6,690.5z"/>
	<path class="st8" d="M83,692.4c0,0.5-0.1,1.3-0.2,2.3s-0.2,1.8-0.2,2.3l-1.2,0.1c0-0.4,0.1-1.1,0.2-2.1s0.2-1.8,0.2-2.2
		c0-0.5-0.1-0.9-0.2-1.2c-0.2-0.2-0.4-0.3-0.7-0.3c-0.6,0-1.1,0.3-1.5,0.9s-0.7,1.3-0.7,2.2c-0.1,1.1-0.2,2-0.2,2.6l-1.2,0.1
		c0-0.3,0.1-1,0.2-2.1s0.2-1.8,0.2-2.2c0-0.5-0.1-0.9-0.2-1.2c-0.2-0.2-0.4-0.3-0.7-0.3c-0.6,0-1,0.3-1.5,0.9
		c-0.4,0.6-0.7,1.4-0.8,2.2c-0.1,1.1-0.2,2-0.2,2.6l-1.1,0.1c0.3-2.4,0.5-4,0.5-4.8c0-0.5,0-1.1-0.1-1.8l1.2-0.2c0,0.4,0,1,0,1.6
		h0.1c0.5-1.1,1.3-1.7,2.3-1.7c0.5,0,1,0.2,1.2,0.5c0.3,0.3,0.4,0.7,0.4,1.2h0.1c0.6-1.1,1.4-1.7,2.4-1.7
		C82.4,690.4,83,691,83,692.4z"/>
	<path class="st8" d="M90.1,691.9c0,0.6-0.3,1.1-0.9,1.4c-0.7,0.4-2,0.6-3.7,0.7c0,0.8,0.1,1.4,0.4,1.8c0.3,0.4,0.8,0.6,1.4,0.6
		c0.7,0,1.4-0.2,2.2-0.7l-0.2,1c-0.6,0.4-1.4,0.7-2.3,0.7c-0.9,0-1.6-0.3-2.1-0.8c-0.4-0.6-0.7-1.3-0.7-2.1c0-1.3,0.4-2.2,1.1-3
		c0.7-0.7,1.6-1.1,2.5-1.1c0.6,0,1.1,0.1,1.5,0.4S90.1,691.4,90.1,691.9z M89,691.9c0-0.2-0.1-0.4-0.3-0.6c-0.2-0.1-0.5-0.2-0.9-0.2
		c-0.5,0-1,0.2-1.4,0.5s-0.7,0.8-0.8,1.5c1.4,0,2.4-0.2,2.9-0.4C88.8,692.5,89,692.2,89,691.9z"/>
	<path class="st8" d="M96.9,692.4c0,0.4-0.1,1.1-0.2,2.2s-0.2,1.9-0.2,2.5l-1.2,0.1c0-0.2,0.1-0.8,0.2-1.9s0.2-1.9,0.2-2.5
		c0-0.5-0.1-0.9-0.3-1.1c-0.2-0.2-0.5-0.3-0.9-0.3c-0.5,0-1,0.3-1.4,1c-0.5,0.7-0.7,1.4-0.8,2.2c-0.1,1-0.2,1.9-0.2,2.6l-1.1,0.1
		c0.3-2.4,0.5-4,0.5-4.8c0-0.5,0-1.1-0.1-1.8l1.2-0.2c0,0.4,0,0.9,0,1.6h0.1c0.6-1.1,1.4-1.7,2.4-1.7
		C96.3,690.4,96.9,691,96.9,692.4z"/>
	<path class="st8" d="M100.2,690.4c0,0.3,0,0.8-0.1,1.4c-0.1,0.6-0.2,1.3-0.3,2.1c-0.1,0.6-0.1,1.7-0.2,3.1l-1.2,0.1
		c0.1-0.7,0.2-1.8,0.4-3.2c0.1-0.9,0.1-1.8,0.1-2.5c0-0.3,0-0.6,0-0.8L100.2,690.4z M100.7,688.4c0,0.3-0.1,0.5-0.3,0.7
		s-0.4,0.3-0.7,0.3c-0.4,0-0.6-0.2-0.6-0.7c0-0.3,0.1-0.5,0.3-0.7s0.4-0.3,0.7-0.3C100.5,687.8,100.7,688,100.7,688.4z"/>
	<path class="st8" d="M107,690.3c-0.4,2.3-0.6,4-0.6,5.1c0,0.5,0,1,0.1,1.7l-1.2,0.2c0-0.4,0-0.9,0-1.5h-0.1
		c-0.6,1.1-1.3,1.6-2.3,1.6c-0.6,0-1-0.2-1.3-0.7c-0.3-0.4-0.4-1-0.4-1.7c0-1.1,0.4-2.1,1.2-3s1.9-1.3,3.4-1.3l0.3-0.2L107,690.3z
		 M105.8,691.3c-1.2,0-2,0.3-2.5,0.9c-0.5,0.6-0.8,1.4-0.8,2.4c0,1,0.3,1.6,1,1.6c0.5,0,0.9-0.3,1.3-1c0.4-0.7,0.7-1.3,0.8-1.9
		C105.7,692.8,105.8,692.1,105.8,691.3z"/>
	<path class="st8" d="M16.8,713.9h-1.3c0-2.4,0.1-5,0.3-7.9h-0.1c0,0.1-0.2,0.6-0.5,1.2s-0.8,1.9-1.7,3.6c-0.8,1.7-1.3,2.8-1.3,3.1
		h-0.9c0-0.5-0.2-1.7-0.7-3.7c-0.5-2-0.7-3.1-0.8-3.4s-0.1-0.6-0.1-0.9H9.8c-0.1,0.7-0.3,2.2-0.7,4.4c-0.4,2.2-0.6,3.4-0.6,3.6H7.3
		c0-0.2,0.3-1.5,0.8-4c0.6-2.5,0.9-4.1,1-4.9h1.6c0,0.7,0.2,2,0.7,3.8s0.7,3,0.7,3.6h0.1c0.1-0.5,0.6-1.7,1.5-3.7s1.5-3.2,1.5-3.7
		h1.7c-0.1,1.3-0.2,3-0.2,5C16.7,711.6,16.7,712.9,16.8,713.9z"/>
	<path class="st8" d="M24,707.1c-0.4,2.3-0.6,4-0.6,5.1c0,0.5,0,1,0.1,1.7l-1.2,0.2c0-0.4,0-0.9,0-1.5h-0.1
		c-0.6,1.1-1.3,1.6-2.3,1.6c-0.6,0-1-0.2-1.3-0.7c-0.3-0.4-0.4-1-0.4-1.7c0-1.1,0.4-2.1,1.2-3s1.9-1.3,3.4-1.3l0.3-0.2L24,707.1z
		 M22.8,708.1c-1.2,0-2,0.3-2.5,0.9c-0.5,0.6-0.8,1.4-0.8,2.4c0,1,0.3,1.6,1,1.6c0.5,0,0.9-0.3,1.3-1c0.4-0.7,0.7-1.3,0.8-1.9
		C22.7,709.6,22.7,708.9,22.8,708.1z"/>
	<path class="st8" d="M31.5,709.8c0,1.2-0.3,2.3-0.9,3.1c-0.6,0.8-1.5,1.2-2.5,1.2c-0.7,0-1.3-0.2-1.6-0.5h-0.1
		c-0.1,1.3-0.2,2.4-0.3,3.3l-1.2,0.1c0.6-4.2,0.9-6.9,0.9-8c0-0.4,0-0.9-0.1-1.5l1.2-0.2c0,0.4,0,0.9,0,1.6h0.1
		c0.6-1.1,1.4-1.7,2.5-1.7c0.6,0,1.2,0.2,1.6,0.7C31.3,708.3,31.5,709,31.5,709.8z M30.4,710.2c0-1.4-0.5-2.1-1.5-2.1
		c-0.5,0-1,0.3-1.4,0.9s-0.7,1.4-0.8,2.2l-0.1,1.6c0.4,0.3,0.9,0.4,1.3,0.4c0.9,0,1.5-0.3,2-0.8C30.1,711.8,30.4,711.1,30.4,710.2z"
		/>
	<path class="st8" d="M40.6,707.3l-0.3,1.1c-0.4-0.1-0.9-0.2-1.4-0.2c-0.7,0-1.2,0.3-1.6,0.8c-0.4,0.5-0.6,1.2-0.6,1.9
		c0,0.7,0.1,1.2,0.4,1.6c0.3,0.4,0.7,0.6,1.3,0.6c0.6,0,1.2-0.2,1.9-0.6l-0.2,1c-0.5,0.4-1.1,0.6-1.9,0.6c-0.9,0-1.5-0.3-2-0.9
		c-0.4-0.5-0.6-1.2-0.6-2.1c0-1,0.3-1.9,1-2.7s1.6-1.1,2.8-1.1C39.9,707.2,40.3,707.2,40.6,707.3z"/>
	<path class="st8" d="M46.1,707.3l-0.4,1.1c-0.3-0.1-0.6-0.1-0.9-0.1c-1,0-1.6,0.5-1.7,1.6c-0.2,1.6-0.3,2.9-0.4,4l-1.1,0.1
		c0.3-2.4,0.5-4,0.5-4.8c0-0.5,0-1.1-0.1-1.8l1.2-0.2c0,0.4,0.1,0.7,0.1,1h0.1c0.5-0.7,1.1-1.1,1.8-1.1
		C45.3,707.1,45.7,707.2,46.1,707.3z"/>
	<path class="st8" d="M52.3,708.7c0,0.6-0.3,1.1-0.9,1.4c-0.7,0.4-2,0.6-3.7,0.7c0,0.8,0.1,1.4,0.4,1.8c0.3,0.4,0.8,0.6,1.4,0.6
		c0.7,0,1.4-0.2,2.2-0.7l-0.2,1c-0.6,0.4-1.4,0.7-2.3,0.7c-0.9,0-1.6-0.3-2.1-0.8c-0.4-0.6-0.7-1.3-0.7-2.1c0-1.3,0.4-2.2,1.1-3
		c0.7-0.7,1.6-1.1,2.5-1.1c0.6,0,1.1,0.1,1.5,0.4S52.3,708.2,52.3,708.7z M51.2,708.7c0-0.2-0.1-0.4-0.3-0.6
		c-0.2-0.1-0.5-0.2-0.9-0.2c-0.5,0-1,0.2-1.4,0.5s-0.7,0.8-0.8,1.5c1.4,0,2.4-0.2,2.9-0.4C51,709.3,51.2,709,51.2,708.7z"/>
	<path class="st8" d="M58.8,707.1c-0.4,2.3-0.6,4-0.6,5.1c0,0.5,0,1,0.1,1.7l-1.2,0.2c0-0.4,0-0.9,0-1.5H57
		c-0.6,1.1-1.3,1.6-2.3,1.6c-0.6,0-1-0.2-1.3-0.7c-0.3-0.4-0.4-1-0.4-1.7c0-1.1,0.4-2.1,1.2-3s1.9-1.3,3.4-1.3l0.3-0.2L58.8,707.1z
		 M57.5,708.1c-1.2,0-2,0.3-2.5,0.9c-0.5,0.6-0.8,1.4-0.8,2.4c0,1,0.3,1.6,1,1.6c0.5,0,0.9-0.3,1.3-1c0.4-0.7,0.7-1.3,0.8-1.9
		C57.4,709.6,57.5,708.9,57.5,708.1z"/>
	<path class="st8" d="M64,712.6l-0.2,0.9c-0.5,0.3-1,0.5-1.5,0.5c-0.6,0-1.1-0.2-1.3-0.5c-0.2-0.3-0.4-0.8-0.4-1.5
		c0-0.6,0.1-1.8,0.4-3.7c-0.2,0-0.6,0-1.1,0l0.1-1c0.4,0,0.8,0,1.1,0c0-0.2,0.1-0.8,0.3-1.9l1-0.1c-0.1,0.5-0.2,1.2-0.3,2.1
		c0.4,0,1,0,1.8-0.1l-0.1,1c-0.8,0-1.4,0-1.8,0c-0.2,1.5-0.4,2.6-0.4,3.3c0,0.5,0.1,0.9,0.2,1.1s0.4,0.3,0.7,0.3
		C63,713.1,63.5,712.9,64,712.6z"/>
	<path class="st8" d="M70.8,708.7c0,0.6-0.3,1.1-0.9,1.4c-0.7,0.4-2,0.6-3.7,0.7c0,0.8,0.1,1.4,0.4,1.8c0.3,0.4,0.8,0.6,1.4,0.6
		c0.7,0,1.4-0.2,2.2-0.7l-0.2,1c-0.6,0.4-1.4,0.7-2.3,0.7c-0.9,0-1.6-0.3-2.1-0.8c-0.4-0.6-0.7-1.3-0.7-2.1c0-1.3,0.4-2.2,1.1-3
		c0.7-0.7,1.6-1.1,2.5-1.1c0.6,0,1.1,0.1,1.5,0.4S70.8,708.2,70.8,708.7z M69.8,708.7c0-0.2-0.1-0.4-0.3-0.6
		c-0.2-0.1-0.5-0.2-0.9-0.2c-0.5,0-1,0.2-1.4,0.5s-0.7,0.8-0.8,1.5c1.4,0,2.4-0.2,2.9-0.4C69.6,709.3,69.8,709,69.8,708.7z"/>
	<path class="st8" d="M78.4,704.2c0,0.1-0.1,0.6-0.2,1.5s-0.3,1.9-0.4,3.1c-0.1,1.2-0.2,2.3-0.2,3.3c0,0.6,0,1.2,0.1,1.8l-1.1,0.1
		c-0.1-0.4-0.1-0.9-0.1-1.6h-0.1c-0.6,1.1-1.4,1.7-2.5,1.7c-0.6,0-1.2-0.2-1.6-0.7c-0.4-0.5-0.6-1.1-0.6-1.9c0-1.2,0.3-2.3,0.9-3.1
		s1.5-1.2,2.5-1.2c0.7,0,1.2,0.2,1.6,0.5h0.1c0.1-0.9,0.2-2.1,0.2-3.3L78.4,704.2z M76.9,708.4c-0.4-0.3-0.8-0.4-1.3-0.4
		c-0.9,0-1.5,0.3-1.9,0.8c-0.4,0.5-0.7,1.3-0.7,2.2c0,1.4,0.5,2.1,1.5,2.1c0.5,0,1-0.3,1.5-0.9s0.7-1.4,0.8-2.2L76.9,708.4z"/>
	<path class="st8" d="M88.6,709.8c0,1.2-0.3,2.2-0.9,3s-1.5,1.2-2.5,1.2c-0.7,0-1.3-0.2-1.6-0.5h-0.1l-0.2,0.3l-1,0.1
		c0.1-0.4,0.3-2.1,0.6-5.2c0.2-1.8,0.3-3.3,0.3-4.5l1.3-0.1c0,0.2,0,0.5-0.1,1c-0.1,0.8-0.2,1.7-0.3,2.7c0,0.2-0.1,0.5-0.1,0.9H84
		c0.6-1.1,1.4-1.7,2.5-1.7c0.6,0,1.2,0.2,1.6,0.7C88.4,708.3,88.6,709,88.6,709.8z M87.4,710.2c0-1.4-0.5-2.1-1.5-2.1
		c-0.5,0-1,0.3-1.5,0.9s-0.7,1.4-0.8,2.2l-0.1,1.6c0.4,0.3,0.9,0.4,1.3,0.4c0.9,0,1.5-0.3,2-0.8S87.4,711.1,87.4,710.2z"/>
	<path class="st8" d="M95.4,707.3c0,0.6-0.5,1.7-1.4,3.4s-1.5,2.8-1.6,3.2c-0.4,1.1-0.8,1.9-1.1,2.3c-0.4,0.4-1.1,0.7-2,0.7l0-1
		c0.6,0,1.1-0.2,1.6-0.7c0.5-0.4,0.7-0.9,0.7-1.5c0-0.7-0.3-1.8-0.9-3.4s-0.9-2.6-0.9-3l1.3-0.1c0,0.6,0.2,1.5,0.5,2.8
		c0.4,1.3,0.5,2.2,0.5,2.6h0.1c0-0.2,0.4-1,1-2.4s1-2.3,1-2.9L95.4,707.3z"/>
	<path class="st8" d="M106.2,713.9h-1.4c0-0.4-0.2-1.4-0.5-2.9h-3.7c-0.2,0.4-0.4,0.8-0.5,1.2c-0.4,0.8-0.5,1.4-0.6,1.7h-1.3
		c0-0.1,0.7-1.6,2.2-4.4c1.4-2.8,2.1-4.3,2.1-4.5h1.5c0,0.4,0.4,1.9,1.1,4.5S106.2,713.5,106.2,713.9z M104.1,710.1
		c-0.7-2.6-1.1-4.1-1.1-4.3H103c0,0.1-0.7,1.6-2,4.3H104.1z"/>
	<path class="st8" d="M109.7,704.2c0,0.3-0.1,0.9-0.2,1.8c-0.1,0.9-0.2,1.9-0.3,2.8c-0.2,2.1-0.4,3.8-0.4,5.1l-1.2,0.1
		c0-0.2,0.1-0.8,0.2-1.8c0.2-1,0.3-2.2,0.4-3.4c0.2-1.9,0.3-3.4,0.3-4.5L109.7,704.2z"/>
	<path class="st8" d="M112.9,704.2c0,0.3-0.1,0.9-0.2,1.8c-0.1,0.9-0.2,1.9-0.3,2.8c-0.2,2.1-0.4,3.8-0.4,5.1l-1.2,0.1
		c0-0.2,0.1-0.8,0.2-1.8c0.2-1,0.3-2.2,0.4-3.4c0.2-1.9,0.3-3.4,0.3-4.5L112.9,704.2z"/>
	<path class="st8" d="M115.7,707.2c0,0.3,0,0.8-0.1,1.4c-0.1,0.6-0.2,1.3-0.3,2.1c-0.1,0.6-0.1,1.7-0.2,3.1l-1.2,0.1
		c0.1-0.7,0.2-1.8,0.4-3.2c0.1-0.9,0.1-1.8,0.1-2.5c0-0.3,0-0.6,0-0.8L115.7,707.2z M116.2,705.2c0,0.3-0.1,0.5-0.3,0.7
		s-0.4,0.3-0.7,0.3c-0.4,0-0.6-0.2-0.6-0.7c0-0.3,0.1-0.5,0.3-0.7s0.4-0.3,0.7-0.3C116,704.6,116.2,704.8,116.2,705.2z"/>
	<path class="st8" d="M122.1,707.3l-0.3,1.1c-0.4-0.1-0.9-0.2-1.4-0.2c-0.7,0-1.2,0.3-1.6,0.8c-0.4,0.5-0.6,1.2-0.6,1.9
		c0,0.7,0.1,1.2,0.4,1.6c0.3,0.4,0.7,0.6,1.3,0.6c0.6,0,1.2-0.2,1.9-0.6l-0.2,1c-0.5,0.4-1.1,0.6-1.9,0.6c-0.9,0-1.5-0.3-2-0.9
		c-0.4-0.5-0.6-1.2-0.6-2.1c0-1,0.3-1.9,1-2.7s1.6-1.1,2.8-1.1C121.3,707.2,121.8,707.2,122.1,707.3z"/>
	<path class="st8" d="M128.6,708.7c0,0.6-0.3,1.1-0.9,1.4c-0.7,0.4-2,0.6-3.7,0.7c0,0.8,0.1,1.4,0.4,1.8c0.3,0.4,0.8,0.6,1.4,0.6
		c0.7,0,1.4-0.2,2.2-0.7l-0.2,1c-0.6,0.4-1.4,0.7-2.3,0.7c-0.9,0-1.6-0.3-2.1-0.8c-0.4-0.6-0.7-1.3-0.7-2.1c0-1.3,0.4-2.2,1.1-3
		c0.7-0.7,1.6-1.1,2.5-1.1c0.6,0,1.1,0.1,1.5,0.4S128.6,708.2,128.6,708.7z M127.6,708.7c0-0.2-0.1-0.4-0.3-0.6
		c-0.2-0.1-0.5-0.2-0.9-0.2c-0.5,0-1,0.2-1.4,0.5s-0.7,0.8-0.8,1.5c1.4,0,2.4-0.2,2.9-0.4C127.4,709.3,127.6,709,127.6,708.7z"/>
	<path class="st8" d="M139.7,705c-0.1,0.6-0.3,2-0.5,4.2c-0.2,1.6-0.3,3.1-0.3,4.7h-1.3c0.1-0.7,0.3-2.2,0.5-4.2h-3.9
		c-0.1,1-0.2,2.4-0.3,4.2h-1.3c0.1-0.8,0.3-2.3,0.6-4.7c0.2-1.5,0.3-2.9,0.3-4.2h1.3c-0.1,0.6-0.3,1.9-0.5,3.8h3.9
		c0.1-1,0.2-2.3,0.2-3.8H139.7z"/>
	<path class="st8" d="M146.9,707.2c-0.3,2.5-0.5,4.2-0.5,5c0,0.5,0,1,0.1,1.5l-1.2,0.2c0-0.4,0-0.9,0-1.6h-0.1
		c-0.6,1.1-1.4,1.7-2.4,1.7c-1.2,0-1.8-0.7-1.8-2c0-0.4,0.1-1.1,0.2-2.2s0.2-1.9,0.2-2.5l1.2-0.1c0,0.2-0.1,0.8-0.2,2
		c-0.1,1.1-0.2,1.9-0.2,2.5c0,0.5,0.1,0.9,0.3,1.1c0.2,0.2,0.5,0.3,0.9,0.3c0.5,0,1-0.3,1.4-1s0.7-1.4,0.8-2.1
		c0.1-1.1,0.2-2,0.2-2.6L146.9,707.2z"/>
	<path class="st8" d="M154.1,709.2c0,0.4-0.1,1.1-0.2,2.2s-0.2,1.9-0.2,2.5l-1.2,0.1c0-0.2,0.1-0.8,0.2-1.9s0.2-1.9,0.2-2.5
		c0-0.5-0.1-0.9-0.3-1.1c-0.2-0.2-0.5-0.3-0.9-0.3c-0.5,0-1,0.3-1.4,1c-0.5,0.7-0.7,1.4-0.8,2.2c-0.1,1-0.2,1.9-0.2,2.6l-1.1,0.1
		c0.3-2.4,0.5-4,0.5-4.8c0-0.5,0-1.1-0.1-1.8l1.2-0.2c0,0.4,0,0.9,0,1.6h0.1c0.6-1.1,1.4-1.7,2.4-1.7
		C153.5,707.2,154.1,707.8,154.1,709.2z"/>
	<path class="st8" d="M159.5,712.6l-0.2,0.9c-0.5,0.3-1,0.5-1.5,0.5c-0.6,0-1.1-0.2-1.3-0.5c-0.2-0.3-0.4-0.8-0.4-1.5
		c0-0.6,0.1-1.8,0.4-3.7c-0.2,0-0.6,0-1.1,0l0.1-1c0.4,0,0.8,0,1.1,0c0-0.2,0.1-0.8,0.3-1.9l1-0.1c-0.1,0.5-0.2,1.2-0.3,2.1
		c0.4,0,1,0,1.8-0.1l-0.1,1c-0.8,0-1.4,0-1.8,0c-0.2,1.5-0.4,2.6-0.4,3.3c0,0.5,0.1,0.9,0.2,1.1s0.4,0.3,0.7,0.3
		C158.6,713.1,159,712.9,159.5,712.6z"/>
	<path class="st8" d="M166.4,708.7c0,0.6-0.3,1.1-0.9,1.4c-0.7,0.4-2,0.6-3.7,0.7c0,0.8,0.1,1.4,0.4,1.8c0.3,0.4,0.8,0.6,1.4,0.6
		c0.7,0,1.4-0.2,2.2-0.7l-0.2,1c-0.6,0.4-1.4,0.7-2.3,0.7c-0.9,0-1.6-0.3-2.1-0.8c-0.4-0.6-0.7-1.3-0.7-2.1c0-1.3,0.4-2.2,1.1-3
		c0.7-0.7,1.6-1.1,2.5-1.1c0.6,0,1.1,0.1,1.5,0.4S166.4,708.2,166.4,708.7z M165.3,708.7c0-0.2-0.1-0.4-0.3-0.6
		c-0.2-0.1-0.5-0.2-0.9-0.2c-0.5,0-1,0.2-1.4,0.5s-0.7,0.8-0.8,1.5c1.4,0,2.4-0.2,2.9-0.4C165.1,709.3,165.3,709,165.3,708.7z"/>
	<path class="st8" d="M172,707.3l-0.4,1.1c-0.3-0.1-0.6-0.1-0.9-0.1c-1,0-1.6,0.5-1.7,1.6c-0.2,1.6-0.3,2.9-0.4,4l-1.1,0.1
		c0.3-2.4,0.5-4,0.5-4.8c0-0.5,0-1.1-0.1-1.8l1.2-0.2c0,0.4,0.1,0.7,0.1,1h0.1c0.5-0.7,1.1-1.1,1.8-1.1
		C171.1,707.1,171.5,707.2,172,707.3z"/>
	<path class="st8" d="M181.6,710c0,1.1-0.3,2.1-1,2.9s-1.5,1.2-2.6,1.2c-0.7,0-1.3-0.3-1.8-0.9c-0.5-0.6-0.8-1.3-0.8-2.2
		c0-1.1,0.3-2,1-2.8s1.5-1.2,2.6-1.2c0.7,0,1.3,0.3,1.8,0.8S181.6,709.1,181.6,710z M180.4,710.2c0-0.6-0.1-1.2-0.4-1.6
		c-0.3-0.5-0.7-0.7-1.3-0.7c-0.7,0-1.2,0.3-1.6,1c-0.4,0.6-0.6,1.3-0.6,2.1c0,0.6,0.1,1.2,0.4,1.6c0.3,0.5,0.7,0.7,1.3,0.7
		c0.7,0,1.2-0.3,1.6-1C180.2,711.7,180.4,711,180.4,710.2z"/>
	<path class="st8" d="M188.7,709.2c0,0.4-0.1,1.1-0.2,2.2s-0.2,1.9-0.2,2.5l-1.2,0.1c0-0.2,0.1-0.8,0.2-1.9s0.2-1.9,0.2-2.5
		c0-0.5-0.1-0.9-0.3-1.1c-0.2-0.2-0.5-0.3-0.9-0.3c-0.5,0-1,0.3-1.4,1c-0.5,0.7-0.7,1.4-0.8,2.2c-0.1,1-0.2,1.9-0.2,2.6l-1.1,0.1
		c0.3-2.4,0.5-4,0.5-4.8c0-0.5,0-1.1-0.1-1.8l1.2-0.2c0,0.4,0,0.9,0,1.6h0.1c0.6-1.1,1.4-1.7,2.4-1.7
		C188.1,707.2,188.7,707.8,188.7,709.2z"/>
	<path class="st8" d="M199,709.5c0,1.2-0.3,2.3-0.9,3.2c-0.6,0.9-1.4,1.3-2.5,1.3c-0.9,0-1.5-0.3-1.9-0.9s-0.6-1.3-0.6-2.1
		c0-1.2,0.3-2.3,0.9-3.2s1.4-1.3,2.5-1.3c0.9,0,1.5,0.3,1.9,0.9C198.9,708.1,199,708.8,199,709.5z M197.9,709.8
		c0-0.6-0.1-1.2-0.4-1.6c-0.2-0.4-0.6-0.7-1.2-0.7c-0.6,0-1.1,0.3-1.5,1c-0.4,0.6-0.6,1.4-0.6,2.4c0,0.7,0.1,1.3,0.4,1.7
		s0.7,0.6,1.1,0.6c0.6,0,1.1-0.3,1.4-0.9C197.7,711.5,197.9,710.8,197.9,709.8z"/>
	<path class="st8" d="M202.9,713.9h-1.2c0.1-1,0.3-2,0.4-3c0.1-1.1,0.2-1.9,0.2-2.5l-1.6,0.8l-0.2-0.6l2.5-1.8h0.7
		c-0.2,1.5-0.4,2.9-0.5,4.1C203.1,711.8,203,712.8,202.9,713.9z"/>
	<path class="st8" d="M217.3,713.9H216c0-2.4,0.1-5,0.3-7.9h-0.1c0,0.1-0.2,0.6-0.5,1.2s-0.8,1.9-1.7,3.6c-0.8,1.7-1.3,2.8-1.3,3.1
		h-0.9c0-0.5-0.2-1.7-0.7-3.7c-0.5-2-0.7-3.1-0.8-3.4s-0.1-0.6-0.1-0.9h-0.1c-0.1,0.7-0.3,2.2-0.7,4.4c-0.4,2.2-0.6,3.4-0.6,3.6
		h-1.1c0-0.2,0.3-1.5,0.8-4c0.6-2.5,0.9-4.1,1-4.9h1.6c0,0.7,0.2,2,0.7,3.8s0.7,3,0.7,3.6h0.1c0.1-0.5,0.6-1.7,1.5-3.7
		s1.5-3.2,1.5-3.7h1.7c-0.1,1.3-0.2,3-0.2,5C217.2,711.6,217.2,712.9,217.3,713.9z"/>
	<path class="st8" d="M224.5,707.1c-0.4,2.3-0.6,4-0.6,5.1c0,0.5,0,1,0.1,1.7l-1.2,0.2c0-0.4,0-0.9,0-1.5h-0.1
		c-0.6,1.1-1.3,1.6-2.3,1.6c-0.6,0-1-0.2-1.3-0.7c-0.3-0.4-0.4-1-0.4-1.7c0-1.1,0.4-2.1,1.2-3s1.9-1.3,3.4-1.3l0.3-0.2L224.5,707.1z
		 M223.3,708.1c-1.2,0-2,0.3-2.5,0.9c-0.5,0.6-0.8,1.4-0.8,2.4c0,1,0.3,1.6,1,1.6c0.5,0,0.9-0.3,1.3-1c0.4-0.7,0.7-1.3,0.8-1.9
		C223.2,709.6,223.2,708.9,223.3,708.1z"/>
	<path class="st8" d="M231.3,707.3c0,0.6-0.5,1.7-1.4,3.4s-1.5,2.8-1.6,3.2c-0.4,1.1-0.8,1.9-1.1,2.3c-0.4,0.4-1.1,0.7-2,0.7l0-1
		c0.6,0,1.1-0.2,1.6-0.7c0.5-0.4,0.7-0.9,0.7-1.5c0-0.7-0.3-1.8-0.9-3.4s-0.9-2.6-0.9-3l1.3-0.1c0,0.6,0.2,1.5,0.5,2.8
		c0.4,1.3,0.5,2.2,0.5,2.6h0.1c0-0.2,0.4-1,1-2.4s1-2.3,1-2.9L231.3,707.3z"/>
	<path class="st8" d="M232.8,712.9c0,1.1-0.7,2.3-2.2,3.5l-0.3-0.4c0.4-0.5,0.7-0.9,0.9-1.2c0.1-0.2,0.2-0.6,0.2-1
		c-0.2-0.1-0.3-0.4-0.3-0.7c0-0.3,0.1-0.6,0.3-0.8c0.2-0.2,0.5-0.3,0.8-0.3c0.2,0,0.4,0.1,0.5,0.3
		C232.8,712.4,232.8,712.6,232.8,712.9z"/>
	<path class="st8" d="M242.3,712.9l-0.2,1h-4.7l0.2-1.1c0.6-0.3,1.4-0.8,2.2-1.5c0.9-0.7,1.3-1.5,1.3-2.4c0-0.8-0.6-1.3-1.7-1.3
		c-0.3,0-0.7,0-1.3,0.1l0.2-1c0.3-0.1,0.8-0.1,1.3-0.1c1,0,1.6,0.2,2,0.6c0.4,0.4,0.6,0.8,0.6,1.3c0,0.5-0.1,0.9-0.3,1.4
		c-0.2,0.5-0.6,0.9-1.1,1.4c-0.5,0.5-1.3,1-2.2,1.6l0,0.1C239.8,713,241.1,713,242.3,712.9z"/>
	<path class="st8" d="M249.8,709.5c0,1.2-0.3,2.3-0.9,3.2c-0.6,0.9-1.4,1.3-2.5,1.3c-0.9,0-1.5-0.3-1.9-0.9s-0.6-1.3-0.6-2.1
		c0-1.2,0.3-2.3,0.9-3.2s1.4-1.3,2.5-1.3c0.9,0,1.5,0.3,1.9,0.9C249.6,708.1,249.8,708.8,249.8,709.5z M248.6,709.8
		c0-0.6-0.1-1.2-0.4-1.6c-0.2-0.4-0.6-0.7-1.2-0.7c-0.6,0-1.1,0.3-1.5,1c-0.4,0.6-0.6,1.4-0.6,2.4c0,0.7,0.1,1.3,0.4,1.7
		s0.7,0.6,1.1,0.6c0.6,0,1.1-0.3,1.4-0.9C248.4,711.5,248.6,710.8,248.6,709.8z"/>
	<path class="st8" d="M253.6,713.9h-1.2c0.1-1,0.3-2,0.4-3c0.1-1.1,0.2-1.9,0.2-2.5l-1.6,0.8l-0.2-0.6l2.5-1.8h0.7
		c-0.2,1.5-0.4,2.9-0.5,4.1C253.8,711.8,253.7,712.8,253.6,713.9z"/>
	<path class="st8" d="M261.7,709.8c0,1.9-0.5,3.4-1.4,4.7c-0.9,1.3-2.3,2-4,2.1l-0.1-0.8c2.3-0.2,3.7-1.6,4.2-4.3h-0.1
		c-0.5,0.6-1.2,1-2.1,1c-0.7,0-1.2-0.2-1.6-0.7c-0.4-0.5-0.6-1.1-0.6-1.8c0-0.9,0.3-1.7,0.9-2.4s1.4-1,2.3-1c0.7,0,1.3,0.3,1.8,0.8
		S261.7,708.8,261.7,709.8z M260.5,710c0-0.8-0.1-1.4-0.4-1.9c-0.3-0.4-0.7-0.6-1.1-0.6c-0.5,0-1,0.2-1.3,0.7s-0.5,0.9-0.5,1.5
		c0,0.5,0.1,1,0.4,1.3s0.7,0.5,1.3,0.5c0.6,0,1.2-0.3,1.6-0.8C260.5,710.5,260.5,710.3,260.5,710z"/>
	<path class="st8" d="M14.3,721.8l-0.1,1c-0.9,0-1.7-0.1-2.6-0.1c-0.1,0.7-0.2,1.8-0.4,3.3s-0.3,3-0.4,4.7H9.5
		c0.1-0.7,0.3-2.3,0.6-4.7c0.1-1.3,0.2-2.4,0.3-3.3c-0.6,0-1.5,0-2.7,0.1l0.1-1H14.3z"/>
	<path class="st8" d="M20.6,726c0,0.4-0.1,1.1-0.2,2.2s-0.2,1.9-0.2,2.5l-1.2,0.1c0-0.2,0.1-0.8,0.2-1.9s0.2-1.9,0.2-2.5
		c0-0.5-0.1-0.9-0.3-1.1c-0.2-0.2-0.5-0.3-0.9-0.3c-0.5,0-1,0.3-1.4,1c-0.5,0.7-0.7,1.4-0.8,2.2c-0.1,1-0.2,1.9-0.2,2.6l-1.1,0.1
		c0.1-0.4,0.2-2.1,0.6-5.2c0.2-1.8,0.3-3.3,0.3-4.5l1.3-0.1c0,0.2,0,0.5-0.1,1c-0.1,0.8-0.2,1.7-0.3,2.7c0,0.2-0.1,0.5-0.1,0.9h0.1
		c0.6-1.1,1.4-1.7,2.4-1.7C20,724,20.6,724.6,20.6,726z"/>
	<path class="st8" d="M23.9,724c0,0.3,0,0.8-0.1,1.4c-0.1,0.6-0.2,1.3-0.3,2.1c-0.1,0.6-0.1,1.7-0.2,3.1l-1.2,0.1
		c0.1-0.7,0.2-1.8,0.4-3.2c0.1-0.9,0.1-1.8,0.1-2.5c0-0.3,0-0.6,0-0.8L23.9,724z M24.4,722c0,0.3-0.1,0.5-0.3,0.7s-0.4,0.3-0.7,0.3
		c-0.4,0-0.6-0.2-0.6-0.7c0-0.3,0.1-0.5,0.3-0.7s0.4-0.3,0.7-0.3C24.1,721.4,24.4,721.6,24.4,722z"/>
	<path class="st8" d="M29.6,724.1l-0.3,1c-0.5-0.2-1-0.3-1.6-0.3c-0.9,0-1.3,0.3-1.3,0.9c0,0.2,0.1,0.4,0.3,0.5s0.5,0.3,1,0.5
		c1.2,0.5,1.7,1.1,1.7,1.9c0,1.4-0.9,2.1-2.7,2.1c-0.7,0-1.4-0.1-2-0.2l0.3-1c0.5,0.2,1.1,0.3,1.8,0.3c1,0,1.5-0.3,1.5-0.9
		c0-0.4-0.4-0.8-1.2-1.2c-1.2-0.5-1.8-1.1-1.8-1.9c0-0.7,0.2-1.2,0.7-1.5s1.1-0.5,1.8-0.5C28.6,724,29.2,724,29.6,724.1z"/>
	<path class="st8" d="M43.2,724.1c0,0.4-0.5,1.5-1.4,3.4c-1,1.9-1.4,2.9-1.5,3.2h-0.9c0-0.2-0.1-0.9-0.4-2.2
		c-0.3-1.3-0.5-2.3-0.7-3.1h-0.1c-0.3,0.8-0.8,1.9-1.4,3.2s-0.9,2-1,2.2H35c0-0.2-0.2-1.3-0.7-3.2s-0.7-3-0.7-3.3l1.2-0.1
		c0,0.4,0.2,1.3,0.5,2.8s0.5,2.3,0.5,2.5h0.1c0-0.4,0.4-1.2,1.1-2.7s1-2.3,1-2.5H39c0,0.2,0.2,1.1,0.5,2.6s0.5,2.4,0.5,2.6h0.1
		c0-0.2,0.3-1.1,1-2.5c0.6-1.4,0.9-2.3,0.9-2.7L43.2,724.1z"/>
	<path class="st8" d="M50.1,726.8c0,1.1-0.3,2.1-1,2.9s-1.5,1.2-2.6,1.2c-0.7,0-1.3-0.3-1.8-0.9c-0.5-0.6-0.8-1.3-0.8-2.2
		c0-1.1,0.3-2,1-2.8s1.5-1.2,2.6-1.2c0.7,0,1.3,0.3,1.8,0.8S50.1,725.9,50.1,726.8z M49,727c0-0.6-0.1-1.2-0.4-1.6
		c-0.3-0.5-0.7-0.7-1.3-0.7c-0.7,0-1.2,0.3-1.6,1c-0.4,0.6-0.6,1.3-0.6,2.1c0,0.6,0.1,1.2,0.4,1.6c0.3,0.5,0.7,0.7,1.3,0.7
		c0.7,0,1.2-0.3,1.6-1C48.8,728.5,49,727.8,49,727z"/>
	<path class="st8" d="M55.9,724.1l-0.4,1.1c-0.3-0.1-0.6-0.1-0.9-0.1c-1,0-1.6,0.5-1.7,1.6c-0.2,1.6-0.3,2.9-0.4,4l-1.1,0.1
		c0.3-2.4,0.5-4,0.5-4.8c0-0.5,0-1.1-0.1-1.8l1.2-0.2c0,0.4,0.1,0.7,0.1,1H53c0.5-0.7,1.1-1.1,1.8-1.1
		C55.1,723.9,55.5,724,55.9,724.1z"/>
	<path class="st8" d="M62.5,724.1c0,0.2-0.3,0.5-0.9,1.1s-1.1,1.1-1.6,1.5l0,0.1c0.5,0.6,0.9,1.3,1.3,2.1s0.5,1.4,0.5,1.7l-1.2,0.1
		c0-0.2-0.1-0.7-0.4-1.4c-0.3-0.7-0.6-1.3-0.9-1.8c-0.3,0.3-0.6,0.6-0.8,1c-0.6,0.8-0.9,1.5-0.9,2.2l-1.1,0.1
		c0.1-0.4,0.3-2.2,0.6-5.2c0.2-1.8,0.3-3.3,0.3-4.5l1.3-0.1c0,0.2-0.1,1.2-0.3,3c-0.2,1.8-0.4,3.3-0.5,4.4h0.1
		c0.2-0.6,0.8-1.4,1.8-2.4c1-1.1,1.5-1.7,1.5-1.9L62.5,724.1z"/>
	<path class="st8" d="M68,724c0,0.3,0,0.8-0.1,1.4c-0.1,0.6-0.2,1.3-0.3,2.1c-0.1,0.6-0.1,1.7-0.2,3.1l-1.2,0.1
		c0.1-0.7,0.2-1.8,0.4-3.2c0.1-0.9,0.1-1.8,0.1-2.5c0-0.3,0-0.6,0-0.8L68,724z M68.5,722c0,0.3-0.1,0.5-0.3,0.7s-0.4,0.3-0.7,0.3
		c-0.4,0-0.6-0.2-0.6-0.7c0-0.3,0.1-0.5,0.3-0.7s0.4-0.3,0.7-0.3C68.3,721.4,68.5,721.6,68.5,722z"/>
	<path class="st8" d="M73.7,724.1l-0.3,1c-0.5-0.2-1-0.3-1.6-0.3c-0.9,0-1.3,0.3-1.3,0.9c0,0.2,0.1,0.4,0.3,0.5s0.5,0.3,1,0.5
		c1.2,0.5,1.7,1.1,1.7,1.9c0,1.4-0.9,2.1-2.7,2.1c-0.7,0-1.4-0.1-2-0.2l0.3-1c0.5,0.2,1.1,0.3,1.8,0.3c1,0,1.5-0.3,1.5-0.9
		c0-0.4-0.4-0.8-1.2-1.2c-1.2-0.5-1.8-1.1-1.8-1.9c0-0.7,0.2-1.2,0.7-1.5s1.1-0.5,1.8-0.5C72.7,724,73.3,724,73.7,724.1z"/>
	<path class="st8" d="M79.9,721c0,0.3-0.1,0.9-0.2,1.8c-0.1,0.9-0.2,1.9-0.3,2.8c-0.2,2.1-0.4,3.8-0.4,5.1l-1.2,0.1
		c0-0.2,0.1-0.8,0.2-1.8c0.2-1,0.3-2.2,0.4-3.4c0.2-1.9,0.3-3.4,0.3-4.5L79.9,721z"/>
	<path class="st8" d="M82.7,724c0,0.3,0,0.8-0.1,1.4c-0.1,0.6-0.2,1.3-0.3,2.1c-0.1,0.6-0.1,1.7-0.2,3.1l-1.2,0.1
		c0.1-0.7,0.2-1.8,0.4-3.2c0.1-0.9,0.1-1.8,0.1-2.5c0-0.3,0-0.6,0-0.8L82.7,724z M83.2,722c0,0.3-0.1,0.5-0.3,0.7s-0.4,0.3-0.7,0.3
		c-0.4,0-0.6-0.2-0.6-0.7c0-0.3,0.1-0.5,0.3-0.7s0.4-0.3,0.7-0.3C83,721.4,83.2,721.6,83.2,722z"/>
	<path class="st8" d="M89.1,724.1l-0.3,1.1c-0.4-0.1-0.9-0.2-1.4-0.2c-0.7,0-1.2,0.3-1.6,0.8c-0.4,0.5-0.6,1.2-0.6,1.9
		c0,0.7,0.1,1.2,0.4,1.6c0.3,0.4,0.7,0.6,1.3,0.6c0.6,0,1.2-0.2,1.9-0.6l-0.2,1c-0.5,0.4-1.1,0.6-1.9,0.6c-0.9,0-1.5-0.3-2-0.9
		c-0.4-0.5-0.6-1.2-0.6-2.1c0-1,0.3-1.9,1-2.7s1.6-1.1,2.8-1.1C88.4,724,88.8,724,89.1,724.1z"/>
	<path class="st8" d="M95.7,725.5c0,0.6-0.3,1.1-0.9,1.4c-0.7,0.4-2,0.6-3.7,0.7c0,0.8,0.1,1.4,0.4,1.8c0.3,0.4,0.8,0.6,1.4,0.6
		c0.7,0,1.4-0.2,2.2-0.7l-0.2,1c-0.6,0.4-1.4,0.7-2.3,0.7c-0.9,0-1.6-0.3-2.1-0.8c-0.4-0.6-0.7-1.3-0.7-2.1c0-1.3,0.4-2.2,1.1-3
		c0.7-0.7,1.6-1.1,2.5-1.1c0.6,0,1.1,0.1,1.5,0.4S95.7,725,95.7,725.5z M94.6,725.5c0-0.2-0.1-0.4-0.3-0.6c-0.2-0.1-0.5-0.2-0.9-0.2
		c-0.5,0-1,0.2-1.4,0.5s-0.7,0.8-0.8,1.5c1.4,0,2.4-0.2,2.9-0.4C94.4,726.1,94.6,725.8,94.6,725.5z"/>
	<path class="st8" d="M102.5,726c0,0.4-0.1,1.1-0.2,2.2s-0.2,1.9-0.2,2.5l-1.2,0.1c0-0.2,0.1-0.8,0.2-1.9s0.2-1.9,0.2-2.5
		c0-0.5-0.1-0.9-0.3-1.1c-0.2-0.2-0.5-0.3-0.9-0.3c-0.5,0-1,0.3-1.4,1c-0.5,0.7-0.7,1.4-0.8,2.2c-0.1,1-0.2,1.9-0.2,2.6l-1.1,0.1
		c0.3-2.4,0.5-4,0.5-4.8c0-0.5,0-1.1-0.1-1.8l1.2-0.2c0,0.4,0,0.9,0,1.6h0.1c0.6-1.1,1.4-1.7,2.4-1.7C102,724,102.5,724.6,102.5,726
		z"/>
	<path class="st8" d="M108.4,724.1l-0.3,1c-0.5-0.2-1-0.3-1.6-0.3c-0.9,0-1.3,0.3-1.3,0.9c0,0.2,0.1,0.4,0.3,0.5s0.5,0.3,1,0.5
		c1.2,0.5,1.7,1.1,1.7,1.9c0,1.4-0.9,2.1-2.7,2.1c-0.7,0-1.4-0.1-2-0.2l0.3-1c0.5,0.2,1.1,0.3,1.8,0.3c1,0,1.5-0.3,1.5-0.9
		c0-0.4-0.4-0.8-1.2-1.2c-1.2-0.5-1.8-1.1-1.8-1.9c0-0.7,0.2-1.2,0.7-1.5s1.1-0.5,1.8-0.5C107.4,724,108,724,108.4,724.1z"/>
	<path class="st8" d="M115.1,725.5c0,0.6-0.3,1.1-0.9,1.4c-0.7,0.4-2,0.6-3.7,0.7c0,0.8,0.1,1.4,0.4,1.8c0.3,0.4,0.8,0.6,1.4,0.6
		c0.7,0,1.4-0.2,2.2-0.7l-0.2,1c-0.6,0.4-1.4,0.7-2.3,0.7c-0.9,0-1.6-0.3-2.1-0.8c-0.4-0.6-0.7-1.3-0.7-2.1c0-1.3,0.4-2.2,1.1-3
		c0.7-0.7,1.6-1.1,2.5-1.1c0.6,0,1.1,0.1,1.5,0.4S115.1,725,115.1,725.5z M114.1,725.5c0-0.2-0.1-0.4-0.3-0.6
		c-0.2-0.1-0.5-0.2-0.9-0.2c-0.5,0-1,0.2-1.4,0.5s-0.7,0.8-0.8,1.5c1.4,0,2.4-0.2,2.9-0.4C113.9,726.1,114.1,725.8,114.1,725.5z"/>
	<path class="st8" d="M122.7,721c0,0.1-0.1,0.6-0.2,1.5s-0.3,1.9-0.4,3.1c-0.1,1.2-0.2,2.3-0.2,3.3c0,0.6,0,1.2,0.1,1.8l-1.1,0.1
		c-0.1-0.4-0.1-0.9-0.1-1.6h-0.1c-0.6,1.1-1.4,1.7-2.5,1.7c-0.6,0-1.2-0.2-1.6-0.7c-0.4-0.5-0.6-1.1-0.6-1.9c0-1.2,0.3-2.3,0.9-3.1
		s1.5-1.2,2.5-1.2c0.7,0,1.2,0.2,1.6,0.5h0.1c0.1-0.9,0.2-2.1,0.2-3.3L122.7,721z M121.2,725.2c-0.4-0.3-0.8-0.4-1.3-0.4
		c-0.9,0-1.5,0.3-1.9,0.8c-0.4,0.5-0.7,1.3-0.7,2.2c0,1.4,0.5,2.1,1.5,2.1c0.5,0,1-0.3,1.5-0.9s0.7-1.4,0.8-2.2L121.2,725.2z"/>
	<path class="st8" d="M132.6,724c-0.3,2.5-0.5,4.2-0.5,5c0,0.5,0,1,0.1,1.5l-1.2,0.2c0-0.4,0-0.9,0-1.6H131
		c-0.6,1.1-1.4,1.7-2.4,1.7c-1.2,0-1.8-0.7-1.8-2c0-0.4,0.1-1.1,0.2-2.2s0.2-1.9,0.2-2.5l1.2-0.1c0,0.2-0.1,0.8-0.2,2
		c-0.1,1.1-0.2,1.9-0.2,2.5c0,0.5,0.1,0.9,0.3,1.1c0.2,0.2,0.5,0.3,0.9,0.3c0.5,0,1-0.3,1.4-1s0.7-1.4,0.8-2.1
		c0.1-1.1,0.2-2,0.2-2.6L132.6,724z"/>
	<path class="st8" d="M139.8,726c0,0.4-0.1,1.1-0.2,2.2s-0.2,1.9-0.2,2.5l-1.2,0.1c0-0.2,0.1-0.8,0.2-1.9s0.2-1.9,0.2-2.5
		c0-0.5-0.1-0.9-0.3-1.1c-0.2-0.2-0.5-0.3-0.9-0.3c-0.5,0-1,0.3-1.4,1c-0.5,0.7-0.7,1.4-0.8,2.2c-0.1,1-0.2,1.9-0.2,2.6l-1.1,0.1
		c0.3-2.4,0.5-4,0.5-4.8c0-0.5,0-1.1-0.1-1.8l1.2-0.2c0,0.4,0,0.9,0,1.6h0.1c0.6-1.1,1.4-1.7,2.4-1.7
		C139.2,724,139.8,724.6,139.8,726z"/>
	<path class="st8" d="M147.8,721c0,0.1-0.1,0.6-0.2,1.5s-0.3,1.9-0.4,3.1c-0.1,1.2-0.2,2.3-0.2,3.3c0,0.6,0,1.2,0.1,1.8l-1.1,0.1
		c-0.1-0.4-0.1-0.9-0.1-1.6h-0.1c-0.6,1.1-1.4,1.7-2.5,1.7c-0.6,0-1.2-0.2-1.6-0.7c-0.4-0.5-0.6-1.1-0.6-1.9c0-1.2,0.3-2.3,0.9-3.1
		s1.5-1.2,2.5-1.2c0.7,0,1.2,0.2,1.6,0.5h0.1c0.1-0.9,0.2-2.1,0.2-3.3L147.8,721z M146.2,725.2c-0.4-0.3-0.8-0.4-1.3-0.4
		c-0.9,0-1.5,0.3-1.9,0.8c-0.4,0.5-0.7,1.3-0.7,2.2c0,1.4,0.5,2.1,1.5,2.1c0.5,0,1-0.3,1.5-0.9s0.7-1.4,0.8-2.2L146.2,725.2z"/>
	<path class="st8" d="M154.4,725.5c0,0.6-0.3,1.1-0.9,1.4c-0.7,0.4-2,0.6-3.7,0.7c0,0.8,0.1,1.4,0.4,1.8c0.3,0.4,0.8,0.6,1.4,0.6
		c0.7,0,1.4-0.2,2.2-0.7l-0.2,1c-0.6,0.4-1.4,0.7-2.3,0.7c-0.9,0-1.6-0.3-2.1-0.8c-0.4-0.6-0.7-1.3-0.7-2.1c0-1.3,0.4-2.2,1.1-3
		c0.7-0.7,1.6-1.1,2.5-1.1c0.6,0,1.1,0.1,1.5,0.4S154.4,725,154.4,725.5z M153.3,725.5c0-0.2-0.1-0.4-0.3-0.6
		c-0.2-0.1-0.5-0.2-0.9-0.2c-0.5,0-1,0.2-1.4,0.5s-0.7,0.8-0.8,1.5c1.4,0,2.4-0.2,2.9-0.4C153.1,726.1,153.3,725.8,153.3,725.5z"/>
	<path class="st8" d="M160,724.1l-0.4,1.1c-0.3-0.1-0.6-0.1-0.9-0.1c-1,0-1.6,0.5-1.7,1.6c-0.2,1.6-0.3,2.9-0.4,4l-1.1,0.1
		c0.3-2.4,0.5-4,0.5-4.8c0-0.5,0-1.1-0.1-1.8l1.2-0.2c0,0.4,0.1,0.7,0.1,1h0.1c0.5-0.7,1.1-1.1,1.8-1.1
		C159.1,723.9,159.5,724,160,724.1z"/>
	<path class="st8" d="M169.6,721.8l-0.3,1.1c-0.5-0.2-0.9-0.2-1.3-0.2c-1.1,0-2,0.4-2.6,1.2c-0.7,0.8-1,1.7-1,2.8
		c0,0.9,0.3,1.7,0.8,2.3c0.5,0.6,1.3,0.9,2.3,0.9c0.4,0,1-0.1,1.7-0.3l-0.2,1c-0.8,0.2-1.4,0.3-1.8,0.3c-1.4,0-2.4-0.4-3-1.2
		c-0.7-0.8-1-1.7-1-2.9c0-1.5,0.5-2.7,1.5-3.7s2.2-1.5,3.7-1.5C168.8,721.6,169.2,721.7,169.6,721.8z"/>
	<path class="st8" d="M176.5,721.8l-0.3,1.1c-0.5-0.2-0.9-0.2-1.3-0.2c-1.1,0-2,0.4-2.6,1.2c-0.7,0.8-1,1.7-1,2.8
		c0,0.9,0.3,1.7,0.8,2.3c0.5,0.6,1.3,0.9,2.3,0.9c0.4,0,1-0.1,1.7-0.3l-0.2,1c-0.8,0.2-1.4,0.3-1.8,0.3c-1.4,0-2.4-0.4-3-1.2
		c-0.7-0.8-1-1.7-1-2.9c0-1.5,0.5-2.7,1.5-3.7s2.2-1.5,3.7-1.5C175.7,721.6,176.1,721.7,176.5,721.8z"/>
	<path class="st8" d="M186.4,727.8c0,1-0.4,1.7-1.2,2.2s-1.8,0.7-3.1,0.7c-0.3,0-1,0-2.1,0c0.1-0.6,0.3-2.2,0.6-4.7
		c0.2-1.6,0.3-3,0.3-4.2h0.8c0.2,0,0.5,0,1,0s0.9,0,1.1,0c0.8,0,1.4,0.2,1.8,0.5c0.5,0.3,0.7,0.8,0.7,1.4c0,0.5-0.1,0.9-0.4,1.3
		c-0.3,0.4-0.7,0.7-1.1,0.8v0.1c0.4,0.1,0.8,0.3,1.1,0.6C186.2,726.8,186.4,727.2,186.4,727.8z M185.3,727.8c0-1-0.9-1.5-2.7-1.5
		c-0.3,0-0.7,0-1.1,0c-0.1,1.2-0.2,2.3-0.3,3.3c0.3,0,0.7,0.1,1.2,0.1c0.8,0,1.4-0.1,2-0.4C185,729.1,185.3,728.6,185.3,727.8z
		 M185.2,723.8c0-0.8-0.6-1.2-1.7-1.2c-0.6,0-1.1,0-1.6,0.1c0,0.1-0.1,1-0.3,2.8c0.3,0,0.6,0,0.8,0c0.8,0,1.4-0.1,1.8-0.3
		C184.9,725,185.2,724.5,185.2,723.8z"/>
	<path class="st8" d="M194.6,721.8c0,0.2-0.4,0.8-1.2,1.8s-1.4,1.9-1.8,2.5c-0.4,0.6-0.7,1.2-0.7,1.7c-0.1,0.9-0.1,1.9-0.1,2.9h-1.3
		c0.3-1.7,0.4-2.8,0.4-3.1c0-0.6-0.1-1.2-0.4-1.9c-0.3-0.7-0.7-1.5-1.1-2.4c-0.5-0.9-0.7-1.4-0.7-1.5h1.3c0,0.2,0.3,0.9,0.9,2.2
		s0.9,2.2,0.9,2.6h0.1c0-0.4,0.5-1.3,1.3-2.6s1.3-2,1.3-2.2H194.6z"/>
	<path class="st8" d="M197.2,726.7l-0.2,0.9l-2.8,0.1l0.2-0.9L197.2,726.7z"/>
	<path class="st8" d="M203.6,721.8l-0.3,1.1c-0.5-0.2-1.2-0.3-1.9-0.3c-1.3,0-1.9,0.4-1.9,1.3c0,0.3,0.1,0.6,0.4,0.9
		s0.7,0.5,1.2,0.8c0.7,0.3,1.3,0.7,1.7,1.1s0.6,0.9,0.6,1.6c0,1.8-1.2,2.7-3.6,2.7c-0.8,0-1.5-0.1-2.1-0.3l0.3-1.1
		c0.6,0.3,1.2,0.4,1.9,0.4c1.6,0,2.4-0.5,2.4-1.4c0-0.4-0.1-0.7-0.4-1s-0.8-0.6-1.4-0.9c-0.7-0.3-1.2-0.7-1.6-1s-0.5-0.8-0.5-1.4
		c0-0.8,0.3-1.5,0.9-1.9s1.3-0.6,2.2-0.6C202.6,721.6,203.3,721.7,203.6,721.8z"/>
	<path class="st8" d="M212.1,730.7h-1.4c0-0.4-0.2-1.4-0.5-2.9h-3.7c-0.2,0.4-0.4,0.8-0.5,1.2c-0.4,0.8-0.5,1.4-0.6,1.7H204
		c0-0.1,0.7-1.6,2.2-4.4c1.4-2.8,2.1-4.3,2.1-4.5h1.5c0,0.4,0.4,1.9,1.1,4.5S212.1,730.3,212.1,730.7z M210,726.9
		c-0.7-2.6-1.1-4.1-1.1-4.3h-0.1c0,0.1-0.7,1.6-2,4.3H210z"/>
	<path class="st8" d="M222,728.5l-0.3,1.1h-1.1c-0.1,0.9-0.2,2-0.3,3.3h-1.2c0.2-1.2,0.3-2.3,0.4-3.3h-3.6l0-0.9c0-0.1,0.7-1,2-2.7
		c1.3-1.7,2-2.5,2-2.6h1.4c-0.2,1-0.4,2.7-0.6,5.1C221.1,728.6,221.5,728.6,222,728.5z M220.2,724.4L220.2,724.4
		c-0.1,0.1-0.6,0.8-1.6,2.1c-1,1.3-1.6,2-1.6,2l0,0.1c0.7,0,1.6,0,2.7,0C219.9,727.2,220,725.8,220.2,724.4z"/>
	<path class="st8" d="M224.8,729.5c0,0.3-0.1,0.6-0.3,0.8c-0.2,0.2-0.5,0.3-0.8,0.3c-0.5,0-0.7-0.3-0.7-0.8c0-0.3,0.1-0.6,0.3-0.8
		c0.2-0.2,0.5-0.3,0.8-0.3C224.5,728.8,224.8,729,224.8,729.5z"/>
	<path class="st8" d="M232.8,726.3c0,1.2-0.3,2.3-0.9,3.2c-0.6,0.9-1.4,1.3-2.5,1.3c-0.9,0-1.5-0.3-1.9-0.9s-0.6-1.3-0.6-2.1
		c0-1.2,0.3-2.3,0.9-3.2s1.4-1.3,2.5-1.3c0.9,0,1.5,0.3,1.9,0.9C232.6,724.9,232.8,725.6,232.8,726.3z M231.6,726.6
		c0-0.6-0.1-1.2-0.4-1.6c-0.2-0.4-0.6-0.7-1.2-0.7c-0.6,0-1.1,0.3-1.5,1c-0.4,0.6-0.6,1.4-0.6,2.4c0,0.7,0.1,1.3,0.4,1.7
		s0.7,0.6,1.1,0.6c0.6,0,1.1-0.3,1.4-0.9C231.5,728.3,231.6,727.6,231.6,726.6z"/>
</g>
<g id="g13250">
	<g id="text13254" transform="matrix(0.99992329,0,0,-1,29.03885,214.04535)">
		<path id="path14785" d="M23.1-393.5L9.6-412.3l13.5,53.4l13.5-53.4L23.1-393.5z M23.1-364.2v-27L33-405L23.1-364.2z M17.8-339.1
			h2.1l6.9-12.1v12.1h1.8v-15.8h-1.8l-7.3,12.7v-12.7h-1.7V-339.1L17.8-339.1z"/>
	</g>
</g>
</svg>
