<svg xmlns="http://www.w3.org/2000/svg" xmlns:xlink="http://www.w3.org/1999/xlink" version="1.1" class="marks" width="588" height="643" viewBox="0 0 588 643"><rect width="588" height="643" fill="white"/><g fill="none" stroke-miterlimit="10" transform="translate(177,25)"><g class="mark-group role-frame root" role="graphics-object" aria-roledescription="group mark container"><g transform="translate(0,0)"><path class="background" aria-hidden="true" d="M0,0h0v0h0Z"/><g><g class="mark-group role-row-header row_header" role="graphics-object" aria-roledescription="group mark container"><g transform="translate(-6,0)"><path class="background" aria-hidden="true" d="M0,0h0v168h0Z"/><g><g class="mark-group role-axis" role="graphics-symbol" aria-roledescription="axis" aria-label="Y-axis for a discrete scale with 6 values: Bidirectional Separability, Midpoint Integrity, Direction Preservation, Perceptual Uniformity, Lightness Monotonicity, Pairwise Distinguishability"><g transform="translate(0.5,0.5)"><path class="background" aria-hidden="true" d="M0,0h0v0h0Z" pointer-events="none"/><g><g class="mark-rule role-axis-tick" pointer-events="none"><line transform="translate(0,14)" x2="-5" y2="0" stroke="#888" stroke-width="1" opacity="1"/><line transform="translate(0,42)" x2="-5" y2="0" stroke="#888" stroke-width="1" opacity="1"/><line transform="translate(0,70)" x2="-5" y2="0" stroke="#888" stroke-width="1" opacity="1"/><line transform="translate(0,98)" x2="-5" y2="0" stroke="#888" stroke-width="1" opacity="1"/><line transform="translate(0,126)" x2="-5" y2="0" stroke="#888" stroke-width="1" opacity="1"/><line transform="translate(0,154)" x2="-5" y2="0" stroke="#888" stroke-width="1" opacity="1"/></g><g class="mark-text role-axis-label" pointer-events="none"><text text-anchor="end" transform="translate(-7,18)" font-family="sans-serif" font-size="12px" fill="#000" opacity="1">Bidirectional Separability</text><text text-anchor="end" transform="translate(-7,46)" font-family="sans-serif" font-size="12px" fill="#000" opacity="1">Midpoint Integrity</text><text text-anchor="end" transform="translate(-7,74)" font-family="sans-serif" font-size="12px" fill="#000" opacity="1">Direction Preservation</text><text text-anchor="end" transform="translate(-7,102)" font-family="sans-serif" font-size="12px" fill="#000" opacity="1">Perceptual Uniformity</text><text text-anchor="end" transform="translate(-7,130)" font-family="sans-serif" font-size="12px" fill="#000" opacity="1">Lightness Monotonicity</text><text text-anchor="end" transform="translate(-7,158)" font-family="sans-serif" font-size="12px" fill="#000" opacity="1">Pairwise Distinguishability</text></g><g class="mark-rule role-axis-domain" pointer-events="none"><line transform="translate(0,0)" x2="0" y2="168" stroke="#888" stroke-width="1" opacity="1"/></g></g><path class="foreground" aria-hidden="true" d="" pointer-events="none" display="none"/></g></g><g class="mark-group role-title"><g transform="translate(-165.052734375,84)"><path class="background" aria-hidden="true" d="M0,0h0v0h0Z" pointer-events="none"/><g><g class="mark-text role-title-text" role="graphics-symbol" aria-roledescription="title" aria-label="Title text 'Categorical'" pointer-events="none"><text text-anchor="middle" transform="translate(0,0) rotate(-90) translate(0,8)" font-family="sans-serif" font-size="10px" fill="#000" opacity="1">Categorical</text></g></g><path class="foreground" aria-hidden="true" d="" pointer-events="none" display="none"/></g></g></g><path class="foreground" aria-hidden="true" d="" display="none"/></g><g transform="translate(-6,190)"><path class="background" aria-hidden="true" d="M0,0h0v168h0Z"/><g><g class="mark-group role-axis" role="graphics-symbol" aria-roledescription="axis" aria-label="Y-axis for a discrete scale with 6 values: Bidirectional Separability, Midpoint Integrity, Direction Preservation, Perceptual Uniformity, Lightness Monotonicity, Pairwise Distinguishability"><g transform="translate(0.5,0.5)"><path class="background" aria-hidden="true" d="M0,0h0v0h0Z" pointer-events="none"/><g><g class="mark-rule role-axis-tick" pointer-events="none"><line transform="translate(0,14)" x2="-5" y2="0" stroke="#888" stroke-width="1" opacity="1"/><line transform="translate(0,42)" x2="-5" y2="0" stroke="#888" stroke-width="1" opacity="1"/><line transform="translate(0,70)" x2="-5" y2="0" stroke="#888" stroke-width="1" opacity="1"/><line transform="translate(0,98)" x2="-5" y2="0" stroke="#888" stroke-width="1" opacity="1"/><line transform="translate(0,126)" x2="-5" y2="0" stroke="#888" stroke-width="1" opacity="1"/><line transform="translate(0,154)" x2="-5" y2="0" stroke="#888" stroke-width="1" opacity="1"/></g><g class="mark-text role-axis-label" pointer-events="none"><text text-anchor="end" transform="translate(-7,18)" font-family="sans-serif" font-size="12px" fill="#000" opacity="1">Bidirectional Separability</text><text text-anchor="end" transform="translate(-7,46)" font-family="sans-serif" font-size="12px" fill="#000" opacity="1">Midpoint Integrity</text><text text-anchor="end" transform="translate(-7,74)" font-family="sans-serif" font-size="12px" fill="#000" opacity="1">Direction Preservation</text><text text-anchor="end" transform="translate(-7,102)" font-family="sans-serif" font-size="12px" fill="#000" opacity="1">Perceptual Uniformity</text><text text-anchor="end" transform="translate(-7,130)" font-family="sans-serif" font-size="12px" fill="#000" opacity="1">Lightness Monotonicity</text><text text-anchor="end" transform="translate(-7,158)" font-family="sans-serif" font-size="12px" fill="#000" opacity="1">Pairwise Distinguishability</text></g><g class="mark-rule role-axis-domain" pointer-events="none"><line transform="translate(0,0)" x2="0" y2="168" stroke="#888" stroke-width="1" opacity="1"/></g></g><path class="foreground" aria-hidden="true" d="" pointer-events="none" display="none"/></g></g><g class="mark-group role-title"><g transform="translate(-165.052734375,84)"><path class="background" aria-hidden="true" d="M0,0h0v0h0Z" pointer-events="none"/><g><g class="mark-text role-title-text" role="graphics-symbol" aria-roledescription="title" aria-label="Title text 'Sequential'" pointer-events="none"><text text-anchor="middle" transform="translate(0,0) rotate(-90) translate(0,8)" font-family="sans-serif" font-size="10px" fill="#000" opacity="1">Sequential</text></g></g><path class="foreground" aria-hidden="true" d="" pointer-events="none" display="none"/></g></g></g><path class="foreground" aria-hidden="true" d="" display="none"/></g><g transform="translate(-6,380)"><path class="background" aria-hidden="true" d="M0,0h0v168h0Z"/><g><g class="mark-group role-axis" role="graphics-symbol" aria-roledescription="axis" aria-label="Y-axis for a discrete scale with 6 values: Bidirectional Separability, Midpoint Integrity, Direction Preservation, Perceptual Uniformity, Lightness Monotonicity, Pairwise Distinguishability"><g transform="translate(0.5,0.5)"><path class="background" aria-hidden="true" d="M0,0h0v0h0Z" pointer-events="none"/><g><g class="mark-rule role-axis-tick" pointer-events="none"><line transform="translate(0,14)" x2="-5" y2="0" stroke="#888" stroke-width="1" opacity="1"/><line transform="translate(0,42)" x2="-5" y2="0" stroke="#888" stroke-width="1" opacity="1"/><line transform="translate(0,70)" x2="-5" y2="0" stroke="#888" stroke-width="1" opacity="1"/><line transform="translate(0,98)" x2="-5" y2="0" stroke="#888" stroke-width="1" opacity="1"/><line transform="translate(0,126)" x2="-5" y2="0" stroke="#888" stroke-width="1" opacity="1"/><line transform="translate(0,154)" x2="-5" y2="0" stroke="#888" stroke-width="1" opacity="1"/></g><g class="mark-text role-axis-label" pointer-events="none"><text text-anchor="end" transform="translate(-7,18)" font-family="sans-serif" font-size="12px" fill="#000" opacity="1">Bidirectional Separability</text><text text-anchor="end" transform="translate(-7,46)" font-family="sans-serif" font-size="12px" fill="#000" opacity="1">Midpoint Integrity</text><text text-anchor="end" transform="translate(-7,74)" font-family="sans-serif" font-size="12px" fill="#000" opacity="1">Direction Preservation</text><text text-anchor="end" transform="translate(-7,102)" font-family="sans-serif" font-size="12px" fill="#000" opacity="1">Perceptual Uniformity</text><text text-anchor="end" transform="translate(-7,130)" font-family="sans-serif" font-size="12px" fill="#000" opacity="1">Lightness Monotonicity</text><text text-anchor="end" transform="translate(-7,158)" font-family="sans-serif" font-size="12px" fill="#000" opacity="1">Pairwise Distinguishability</text></g><g class="mark-rule role-axis-domain" pointer-events="none"><line transform="translate(0,0)" x2="0" y2="168" stroke="#888" stroke-width="1" opacity="1"/></g></g><path class="foreground" aria-hidden="true" d="" pointer-events="none" display="none"/></g></g><g class="mark-group role-title"><g transform="translate(-165.052734375,84)"><path class="background" aria-hidden="true" d="M0,0h0v0h0Z" pointer-events="none"/><g><g class="mark-text role-title-text" role="graphics-symbol" aria-roledescription="title" aria-label="Title text 'Diverging'" pointer-events="none"><text text-anchor="middle" transform="translate(0,0) rotate(-90) translate(0,8)" font-family="sans-serif" font-size="10px" fill="#000" opacity="1">Diverging</text></g></g><path class="foreground" aria-hidden="true" d="" pointer-events="none" display="none"/></g></g></g><path class="foreground" aria-hidden="true" d="" display="none"/></g></g><g class="mark-group role-column-footer column_footer" role="graphics-object" aria-roledescription="group mark container"><g transform="translate(0,549)"><path class="background" aria-hidden="true" d="M0,0h400v0h-400Z"/><g><g class="mark-group role-axis" role="graphics-symbol" aria-roledescription="axis" aria-label="X-axis titled '% of Test Cases Passing' for a linear scale with values from 0 to 100"><g transform="translate(0.5,0.5)"><path class="background" aria-hidden="true" d="M0,0h0v0h0Z" pointer-events="none"/><g><g class="mark-rule role-axis-tick" pointer-events="none"><line transform="translate(0,0)" x2="0" y2="5" stroke="#888" stroke-width="1" opacity="1"/><line transform="translate(40,0)" x2="0" y2="5" stroke="#888" stroke-width="1" opacity="1"/><line transform="translate(80,0)" x2="0" y2="5" stroke="#888" stroke-width="1" opacity="1"/><line transform="translate(120,0)" x2="0" y2="5" stroke="#888" stroke-width="1" opacity="1"/><line transform="translate(160,0)" x2="0" y2="5" stroke="#888" stroke-width="1" opacity="1"/><line transform="translate(200,0)" x2="0" y2="5" stroke="#888" stroke-width="1" opacity="1"/><line transform="translate(240,0)" x2="0" y2="5" stroke="#888" stroke-width="1" opacity="1"/><line transform="translate(280,0)" x2="0" y2="5" stroke="#888" stroke-width="1" opacity="1"/><line transform="translate(320,0)" x2="0" y2="5" stroke="#888" stroke-width="1" opacity="1"/><line transform="translate(360,0)" x2="0" y2="5" stroke="#888" stroke-width="1" opacity="1"/><line transform="translate(400,0)" x2="0" y2="5" stroke="#888" stroke-width="1" opacity="1"/></g><g class="mark-text role-axis-label" pointer-events="none"><text text-anchor="start" transform="translate(0,16)" font-family="sans-serif" font-size="12px" fill="#000" opacity="1">0</text><text text-anchor="middle" transform="translate(40,16)" font-family="sans-serif" font-size="12px" fill="#000" opacity="1">10</text><text text-anchor="middle" transform="translate(80,16)" font-family="sans-serif" font-size="12px" fill="#000" opacity="1">20</text><text text-anchor="middle" transform="translate(120,16)" font-family="sans-serif" font-size="12px" fill="#000" opacity="1">30</text><text text-anchor="middle" transform="translate(160,16)" font-family="sans-serif" font-size="12px" fill="#000" opacity="1">40</text><text text-anchor="middle" transform="translate(200,16)" font-family="sans-serif" font-size="12px" fill="#000" opacity="1">50</text><text text-anchor="middle" transform="translate(240,16)" font-family="sans-serif" font-size="12px" fill="#000" opacity="1">60</text><text text-anchor="middle" transform="translate(280,16)" font-family="sans-serif" font-size="12px" fill="#000" opacity="1">70</text><text text-anchor="middle" transform="translate(320,16)" font-family="sans-serif" font-size="12px" fill="#000" opacity="1">80</text><text text-anchor="middle" transform="translate(360,16)" font-family="sans-serif" font-size="12px" fill="#000" opacity="1">90</text><text text-anchor="end" transform="translate(400,16)" font-family="sans-serif" font-size="12px" fill="#000" opacity="1">100</text></g><g class="mark-rule role-axis-domain" pointer-events="none"><line transform="translate(0,0)" x2="400" y2="0" stroke="#888" stroke-width="1" opacity="1"/></g><g class="mark-text role-axis-title" pointer-events="none"><text text-anchor="middle" transform="translate(200,32)" font-family="sans-serif" font-size="13px" font-weight="bold" fill="#000" opacity="1">% of Test Cases Passing</text></g></g><path class="foreground" aria-hidden="true" d="" pointer-events="none" display="none"/></g></g></g><path class="foreground" aria-hidden="true" d="" display="none"/></g></g><g class="mark-group role-scope cell" role="graphics-object" aria-roledescription="group mark container"><g transform="translate(0,0)"><path class="background" aria-hidden="true" d="M0.5,0.5h400v168h-400Z"/><g><g class="mark-group role-axis" aria-hidden="true"><g transform="translate(0.5,0.5)"><path class="background" aria-hidden="true" d="M0,0h0v0h0Z" pointer-events="none"/><g><g class="mark-rule role-axis-grid" pointer-events="none"><line transform="translate(0,14)" x2="400" y2="0" stroke="#ddd" stroke-width="1" opacity="1"/><line transform="translate(0,42)" x2="400" y2="0" stroke="#ddd" stroke-width="1" opacity="1"/><line transform="translate(0,70)" x2="400" y2="0" stroke="#ddd" stroke-width="1" opacity="1"/><line transform="translate(0,98)" x2="400" y2="0" stroke="#ddd" stroke-width="1" opacity="1"/><line transform="translate(0,126)" x2="400" y2="0" stroke="#ddd" stroke-width="1" opacity="1"/><line transform="translate(0,154)" x2="400" y2="0" stroke="#ddd" stroke-width="1" opacity="1"/></g></g><path class="foreground" aria-hidden="true" d="" pointer-events="none" display="none"/></g></g><g class="mark-symbol role-mark child_marks" role="graphics-object" aria-roledescription="symbol mark container"><path aria-label="% of Test Cases Passing: 35; Invariant: Pairwise Distinguishability; Condition: Before" role="graphics-symbol" aria-roledescription="point" transform="translate(140,154)" d="M4.472,0A4.472,4.472,0,1,1,-4.472,0A4.472,4.472,0,1,1,4.472,0" fill="#d62728" stroke-width="2" opacity="0.7"/><path aria-label="% of Test Cases Passing: 100; Invariant: Pairwise Distinguishability; Condition: After" role="graphics-symbol" aria-roledescription="point" transform="translate(400,154)" d="M4.472,0A4.472,4.472,0,1,1,-4.472,0A4.472,4.472,0,1,1,4.472,0" fill="#1f77b4" stroke-width="2" opacity="0.7"/><path aria-label="% of Test Cases Passing: 20; Invariant: Lightness Monotonicity; Condition: Before" role="graphics-symbol" aria-roledescription="point" transform="translate(80,126)" d="M4.472,0A4.472,4.472,0,1,1,-4.472,0A4.472,4.472,0,1,1,4.472,0" fill="#d62728" stroke-width="2" opacity="0.7"/><path aria-label="% of Test Cases Passing: 15; Invariant: Lightness Monotonicity; Condition: After" role="graphics-symbol" aria-roledescription="point" transform="translate(60,126)" d="M4.472,0A4.472,4.472,0,1,1,-4.472,0A4.472,4.472,0,1,1,4.472,0" fill="#1f77b4" stroke-width="2" opacity="0.7"/><path aria-label="% of Test Cases Passing: 25; Invariant: Perceptual Uniformity; Condition: Before" role="graphics-symbol" aria-roledescription="point" transform="translate(100,98)" d="M4.472,0A4.472,4.472,0,1,1,-4.472,0A4.472,4.472,0,1,1,4.472,0" fill="#d62728" stroke-width="2" opacity="0.7"/><path aria-label="% of Test Cases Passing: 20; Invariant: Perceptual Uniformity; Condition: After" role="graphics-symbol" aria-roledescription="point" transform="translate(80,98)" d="M4.472,0A4.472,4.472,0,1,1,-4.472,0A4.472,4.472,0,1,1,4.472,0" fill="#1f77b4" stroke-width="2" opacity="0.7"/><path aria-label="% of Test Cases Passing: 100; Invariant: Direction Preservation; Condition: Before" role="graphics-symbol" aria-roledescription="point" transform="translate(400,70)" d="M4.472,0A4.472,4.472,0,1,1,-4.472,0A4.472,4.472,0,1,1,4.472,0" fill="#d62728" stroke-width="2" opacity="0.7"/><path aria-label="% of Test Cases Passing: 100; Invariant: Direction Preservation; Condition: After" role="graphics-symbol" aria-roledescription="point" transform="translate(400,70)" d="M4.472,0A4.472,4.472,0,1,1,-4.472,0A4.472,4.472,0,1,1,4.472,0" fill="#1f77b4" stroke-width="2" opacity="0.7"/><path aria-label="% of Test Cases Passing: 72.2; Invariant: Midpoint Integrity; Condition: Before" role="graphics-symbol" aria-roledescription="point" transform="translate(288.8,42)" d="M4.472,0A4.472,4.472,0,1,1,-4.472,0A4.472,4.472,0,1,1,4.472,0" fill="#d62728" stroke-width="2" opacity="0.7"/><path aria-label="% of Test Cases Passing: 83.3; Invariant: Midpoint Integrity; Condition: After" role="graphics-symbol" aria-roledescription="point" transform="translate(333.2,42)" d="M4.472,0A4.472,4.472,0,1,1,-4.472,0A4.472,4.472,0,1,1,4.472,0" fill="#1f77b4" stroke-width="2" opacity="0.7"/><path aria-label="% of Test Cases Passing: 11.1; Invariant: Bidirectional Separability; Condition: Before" role="graphics-symbol" aria-roledescription="point" transform="translate(44.4,14)" d="M4.472,0A4.472,4.472,0,1,1,-4.472,0A4.472,4.472,0,1,1,4.472,0" fill="#d62728" stroke-width="2" opacity="0.7"/><path aria-label="% of Test Cases Passing: 0; Invariant: Bidirectional Separability; Condition: After" role="graphics-symbol" aria-roledescription="point" transform="translate(0,14)" d="M4.472,0A4.472,4.472,0,1,1,-4.472,0A4.472,4.472,0,1,1,4.472,0" fill="#1f77b4" stroke-width="2" opacity="0.7"/></g></g><path class="foreground" aria-hidden="true" d="" display="none"/></g><g transform="translate(0,190)"><path class="background" aria-hidden="true" d="M0.5,0.5h400v168h-400Z"/><g><g class="mark-group role-axis" aria-hidden="true"><g transform="translate(0.5,0.5)"><path class="background" aria-hidden="true" d="M0,0h0v0h0Z" pointer-events="none"/><g><g class="mark-rule role-axis-grid" pointer-events="none"><line transform="translate(0,14)" x2="400" y2="0" stroke="#ddd" stroke-width="1" opacity="1"/><line transform="translate(0,42)" x2="400" y2="0" stroke="#ddd" stroke-width="1" opacity="1"/><line transform="translate(0,70)" x2="400" y2="0" stroke="#ddd" stroke-width="1" opacity="1"/><line transform="translate(0,98)" x2="400" y2="0" stroke="#ddd" stroke-width="1" opacity="1"/><line transform="translate(0,126)" x2="400" y2="0" stroke="#ddd" stroke-width="1" opacity="1"/><line transform="translate(0,154)" x2="400" y2="0" stroke="#ddd" stroke-width="1" opacity="1"/></g></g><path class="foreground" aria-hidden="true" d="" pointer-events="none" display="none"/></g></g><g class="mark-symbol role-mark child_marks" role="graphics-object" aria-roledescription="symbol mark container"><path aria-label="% of Test Cases Passing: 16.7; Invariant: Pairwise Distinguishability; Condition: Before" role="graphics-symbol" aria-roledescription="point" transform="translate(66.8,154)" d="M4.472,0A4.472,4.472,0,1,1,-4.472,0A4.472,4.472,0,1,1,4.472,0" fill="#d62728" stroke-width="2" opacity="0.7"/><path aria-label="% of Test Cases Passing: 21.4; Invariant: Pairwise Distinguishability; Condition: After" role="graphics-symbol" aria-roledescription="point" transform="translate(85.6,154)" d="M4.472,0A4.472,4.472,0,1,1,-4.472,0A4.472,4.472,0,1,1,4.472,0" fill="#1f77b4" stroke-width="2" opacity="0.7"/><path aria-label="% of Test Cases Passing: 22.6; Invariant: Lightness Monotonicity; Condition: Before" role="graphics-symbol" aria-roledescription="point" transform="translate(90.4,126)" d="M4.472,0A4.472,4.472,0,1,1,-4.472,0A4.472,4.472,0,1,1,4.472,0" fill="#d62728" stroke-width="2" opacity="0.7"/><path aria-label="% of Test Cases Passing: 97.6; Invariant: Lightness Monotonicity; Condition: After" role="graphics-symbol" aria-roledescription="point" transform="translate(390.4,126)" d="M4.472,0A4.472,4.472,0,1,1,-4.472,0A4.472,4.472,0,1,1,4.472,0" fill="#1f77b4" stroke-width="2" opacity="0.7"/><path aria-label="% of Test Cases Passing: 25; Invariant: Perceptual Uniformity; Condition: Before" role="graphics-symbol" aria-roledescription="point" transform="translate(100,98)" d="M4.472,0A4.472,4.472,0,1,1,-4.472,0A4.472,4.472,0,1,1,4.472,0" fill="#d62728" stroke-width="2" opacity="0.7"/><path aria-label="% of Test Cases Passing: 100; Invariant: Perceptual Uniformity; Condition: After" role="graphics-symbol" aria-roledescription="point" transform="translate(400,98)" d="M4.472,0A4.472,4.472,0,1,1,-4.472,0A4.472,4.472,0,1,1,4.472,0" fill="#1f77b4" stroke-width="2" opacity="0.7"/><path aria-label="% of Test Cases Passing: 100; Invariant: Direction Preservation; Condition: Before" role="graphics-symbol" aria-roledescription="point" transform="translate(400,70)" d="M4.472,0A4.472,4.472,0,1,1,-4.472,0A4.472,4.472,0,1,1,4.472,0" fill="#d62728" stroke-width="2" opacity="0.7"/><path aria-label="% of Test Cases Passing: 100; Invariant: Direction Preservation; Condition: After" role="graphics-symbol" aria-roledescription="point" transform="translate(400,70)" d="M4.472,0A4.472,4.472,0,1,1,-4.472,0A4.472,4.472,0,1,1,4.472,0" fill="#1f77b4" stroke-width="2" opacity="0.7"/><path aria-label="% of Test Cases Passing: 80; Invariant: Midpoint Integrity; Condition: Before" role="graphics-symbol" aria-roledescription="point" transform="translate(320,42)" d="M4.472,0A4.472,4.472,0,1,1,-4.472,0A4.472,4.472,0,1,1,4.472,0" fill="#d62728" stroke-width="2" opacity="0.7"/><path aria-label="% of Test Cases Passing: 86.2; Invariant: Midpoint Integrity; Condition: After" role="graphics-symbol" aria-roledescription="point" transform="translate(344.8,42)" d="M4.472,0A4.472,4.472,0,1,1,-4.472,0A4.472,4.472,0,1,1,4.472,0" fill="#1f77b4" stroke-width="2" opacity="0.7"/><path aria-label="% of Test Cases Passing: 12.5; Invariant: Bidirectional Separability; Condition: Before" role="graphics-symbol" aria-roledescription="point" transform="translate(50,14)" d="M4.472,0A4.472,4.472,0,1,1,-4.472,0A4.472,4.472,0,1,1,4.472,0" fill="#d62728" stroke-width="2" opacity="0.7"/><path aria-label="% of Test Cases Passing: 27.5; Invariant: Bidirectional Separability; Condition: After" role="graphics-symbol" aria-roledescription="point" transform="translate(110.00000000000001,14)" d="M4.472,0A4.472,4.472,0,1,1,-4.472,0A4.472,4.472,0,1,1,4.472,0" fill="#1f77b4" stroke-width="2" opacity="0.7"/></g></g><path class="foreground" aria-hidden="true" d="" display="none"/></g><g transform="translate(0,380)"><path class="background" aria-hidden="true" d="M0.5,0.5h400v168h-400Z"/><g><g class="mark-group role-axis" aria-hidden="true"><g transform="translate(0.5,0.5)"><path class="background" aria-hidden="true" d="M0,0h0v0h0Z" pointer-events="none"/><g><g class="mark-rule role-axis-grid" pointer-events="none"><line transform="translate(0,14)" x2="400" y2="0" stroke="#ddd" stroke-width="1" opacity="1"/><line transform="translate(0,42)" x2="400" y2="0" stroke="#ddd" stroke-width="1" opacity="1"/><line transform="translate(0,70)" x2="400" y2="0" stroke="#ddd" stroke-width="1" opacity="1"/><line transform="translate(0,98)" x2="400" y2="0" stroke="#ddd" stroke-width="1" opacity="1"/><line transform="translate(0,126)" x2="400" y2="0" stroke="#ddd" stroke-width="1" opacity="1"/><line transform="translate(0,154)" x2="400" y2="0" stroke="#ddd" stroke-width="1" opacity="1"/></g></g><path class="foreground" aria-hidden="true" d="" pointer-events="none" display="none"/></g></g><g class="mark-symbol role-mark child_marks" role="graphics-object" aria-roledescription="symbol mark container"><path aria-label="% of Test Cases Passing: 27.3; Invariant: Pairwise Distinguishability; Condition: Before" role="graphics-symbol" aria-roledescription="point" transform="translate(109.2,154)" d="M4.472,0A4.472,4.472,0,1,1,-4.472,0A4.472,4.472,0,1,1,4.472,0" fill="#d62728" stroke-width="2" opacity="0.7"/><path aria-label="% of Test Cases Passing: 50; Invariant: Pairwise Distinguishability; Condition: After" role="graphics-symbol" aria-roledescription="point" transform="translate(200,154)" d="M4.472,0A4.472,4.472,0,1,1,-4.472,0A4.472,4.472,0,1,1,4.472,0" fill="#1f77b4" stroke-width="2" opacity="0.7"/><path aria-label="% of Test Cases Passing: 13.6; Invariant: Lightness Monotonicity; Condition: Before" role="graphics-symbol" aria-roledescription="point" transform="translate(54.400000000000006,126)" d="M4.472,0A4.472,4.472,0,1,1,-4.472,0A4.472,4.472,0,1,1,4.472,0" fill="#d62728" stroke-width="2" opacity="0.7"/><path aria-label="% of Test Cases Passing: 36.4; Invariant: Lightness Monotonicity; Condition: After" role="graphics-symbol" aria-roledescription="point" transform="translate(145.6,126)" d="M4.472,0A4.472,4.472,0,1,1,-4.472,0A4.472,4.472,0,1,1,4.472,0" fill="#1f77b4" stroke-width="2" opacity="0.7"/><path aria-label="% of Test Cases Passing: 4.5; Invariant: Perceptual Uniformity; Condition: Before" role="graphics-symbol" aria-roledescription="point" transform="translate(18,98)" d="M4.472,0A4.472,4.472,0,1,1,-4.472,0A4.472,4.472,0,1,1,4.472,0" fill="#d62728" stroke-width="2" opacity="0.7"/><path aria-label="% of Test Cases Passing: 36.4; Invariant: Perceptual Uniformity; Condition: After" role="graphics-symbol" aria-roledescription="point" transform="translate(145.6,98)" d="M4.472,0A4.472,4.472,0,1,1,-4.472,0A4.472,4.472,0,1,1,4.472,0" fill="#1f77b4" stroke-width="2" opacity="0.7"/><path aria-label="% of Test Cases Passing: 100; Invariant: Direction Preservation; Condition: Before" role="graphics-symbol" aria-roledescription="point" transform="translate(400,70)" d="M4.472,0A4.472,4.472,0,1,1,-4.472,0A4.472,4.472,0,1,1,4.472,0" fill="#d62728" stroke-width="2" opacity="0.7"/><path aria-label="% of Test Cases Passing: 100; Invariant: Direction Preservation; Condition: After" role="graphics-symbol" aria-roledescription="point" transform="translate(400,70)" d="M4.472,0A4.472,4.472,0,1,1,-4.472,0A4.472,4.472,0,1,1,4.472,0" fill="#1f77b4" stroke-width="2" opacity="0.7"/><path aria-label="% of Test Cases Passing: 86.4; Invariant: Midpoint Integrity; Condition: Before" role="graphics-symbol" aria-roledescription="point" transform="translate(345.6,42)" d="M4.472,0A4.472,4.472,0,1,1,-4.472,0A4.472,4.472,0,1,1,4.472,0" fill="#d62728" stroke-width="2" opacity="0.7"/><path aria-label="% of Test Cases Passing: 100; Invariant: Midpoint Integrity; Condition: After" role="graphics-symbol" aria-roledescription="point" transform="translate(400,42)" d="M4.472,0A4.472,4.472,0,1,1,-4.472,0A4.472,4.472,0,1,1,4.472,0" fill="#1f77b4" stroke-width="2" opacity="0.7"/><path aria-label="% of Test Cases Passing: 9.1; Invariant: Bidirectional Separability; Condition: Before" role="graphics-symbol" aria-roledescription="point" transform="translate(36.4,14)" d="M4.472,0A4.472,4.472,0,1,1,-4.472,0A4.472,4.472,0,1,1,4.472,0" fill="#d62728" stroke-width="2" opacity="0.7"/><path aria-label="% of Test Cases Passing: 77.3; Invariant: Bidirectional Separability; Condition: After" role="graphics-symbol" aria-roledescription="point" transform="translate(309.2,14)" d="M4.472,0A4.472,4.472,0,1,1,-4.472,0A4.472,4.472,0,1,1,4.472,0" fill="#1f77b4" stroke-width="2" opacity="0.7"/></g></g><path class="foreground" aria-hidden="true" d="" display="none"/></g></g><g class="mark-group role-legend" role="graphics-symbol" aria-roledescription="legend" aria-label="Symbol legend for fill color with 2 values: Before, After"><g transform="translate(0,602)"><path class="background" aria-hidden="true" d="M0,0h94v11h-94Z" pointer-events="none"/><g><g class="mark-group role-legend-entry"><g transform="translate(0,0)"><path class="background" aria-hidden="true" d="M0,0h0v0h0Z" pointer-events="none"/><g><g class="mark-group role-scope" role="graphics-object" aria-roledescription="group mark container"><g transform="translate(0,0)"><path class="background" aria-hidden="true" d="M0,0h45.462890625v11h-45.462890625Z" pointer-events="none" opacity="1"/><g><g class="mark-symbol role-legend-symbol" pointer-events="none"><path transform="translate(6,6)" d="M5,0A5,5,0,1,1,-5,0A5,5,0,1,1,5,0" fill="#d62728" stroke-width="1.5" opacity="0.7"/></g><g class="mark-text role-legend-label" pointer-events="none"><text text-anchor="start" transform="translate(16,9)" font-family="sans-serif" font-size="10px" fill="#000" opacity="1">Before</text></g></g><path class="foreground" aria-hidden="true" d="" pointer-events="none" display="none"/></g><g transform="translate(56,0)"><path class="background" aria-hidden="true" d="M0,0h37.1181640625v11h-37.1181640625Z" pointer-events="none" opacity="1"/><g><g class="mark-symbol role-legend-symbol" pointer-events="none"><path transform="translate(6,6)" d="M5,0A5,5,0,1,1,-5,0A5,5,0,1,1,5,0" fill="#1f77b4" stroke-width="1.5" opacity="0.7"/></g><g class="mark-text role-legend-label" pointer-events="none"><text text-anchor="start" transform="translate(16,9)" font-family="sans-serif" font-size="10px" fill="#000" opacity="1">After</text></g></g><path class="foreground" aria-hidden="true" d="" pointer-events="none" display="none"/></g></g></g><path class="foreground" aria-hidden="true" d="" pointer-events="none" display="none"/></g></g></g><path class="foreground" aria-hidden="true" d="" pointer-events="none" display="none"/></g></g><g class="mark-group role-title"><g transform="translate(-171.052734375,-20)"><path class="background" aria-hidden="true" d="M0,0h0v0h0Z" pointer-events="none"/><g><g class="mark-text role-title-text" role="graphics-symbol" aria-roledescription="title" aria-label="Title text 'Invariant Pass Rates Before and After Correction'" pointer-events="none"><text text-anchor="start" transform="translate(0,12)" font-family="sans-serif" font-size="15px" font-weight="bold" fill="#000" opacity="1">Invariant Pass Rates Before and After Correction</text></g></g><path class="foreground" aria-hidden="true" d="" pointer-events="none" display="none"/></g></g></g><path class="foreground" aria-hidden="true" d="" display="none"/></g></g></g></svg>